<?xml version="1.0" encoding="utf-8"?>
<!-- Generator: Adobe Illustrator 16.0.0, SVG Export Plug-In . SVG Version: 6.00 Build 0)  -->
<!DOCTYPE svg PUBLIC "-//W3C//DTD SVG 1.1//EN" "http://www.w3.org/Graphics/SVG/1.1/DTD/svg11.dtd">
<svg version="1.1" id="レイヤー_1" xmlns="http://www.w3.org/2000/svg" xmlns:xlink="http://www.w3.org/1999/xlink" x="0px"
	 y="0px" width="22.295px" height="22.275px" viewBox="0 0 22.295 22.275" enable-background="new 0 0 22.295 22.275"
	 xml:space="preserve">
<g>
	<g>
		<g>
			<rect x="3.791" y="3.609" fill="#D5C78C" width="14.955" height="15.112"/>
			<g>
				<path fill="#D5C78C" stroke="#947F28" stroke-width="1.296" stroke-linecap="round" stroke-miterlimit="10" d="M3.96,6.678
					c-1.817,0.668-3.312,2.413-3.312,4.459s1.495,3.79,3.312,4.458"/>
				<path fill="#D5C78C" stroke="#947F28" stroke-width="1.296" stroke-linecap="round" stroke-miterlimit="10" d="M18.337,15.595
					c1.814-0.668,3.311-2.412,3.311-4.458s-1.496-3.791-3.311-4.459"/>
				<path fill="#D5C78C" stroke="#947F28" stroke-width="1.296" stroke-linecap="round" stroke-miterlimit="10" d="M6.687,18.317
					c0.67,1.813,2.417,3.31,4.469,3.31c2.047,0,3.793-1.496,4.461-3.31"/>
				<path fill="#D5C78C" stroke="#947F28" stroke-width="1.296" stroke-linecap="round" stroke-miterlimit="10" d="M15.616,3.956
					c-0.668-1.812-2.414-3.308-4.461-3.308c-2.052,0-3.798,1.495-4.469,3.308"/>
				<polyline fill="#D5C78C" stroke="#947F28" stroke-width="1.296" stroke-linecap="round" stroke-miterlimit="10" points="
					6.687,3.956 3.96,3.956 3.96,6.678 				"/>
				<polyline fill="#D5C78C" stroke="#947F28" stroke-width="1.296" stroke-linecap="round" stroke-miterlimit="10" points="
					18.337,6.678 18.337,3.956 15.616,3.956 				"/>
				<polyline fill="#D5C78C" stroke="#947F28" stroke-width="1.296" stroke-linecap="round" stroke-miterlimit="10" points="
					15.616,18.317 18.337,18.317 18.337,15.595 				"/>
				<polyline fill="#D5C78C" stroke="#947F28" stroke-width="1.296" stroke-linecap="round" stroke-miterlimit="10" points="
					3.96,15.595 3.96,18.317 6.687,18.317 				"/>
				<path fill="#D5C78C" stroke="#AB951D" stroke-width="1.296" stroke-miterlimit="10" d="M3.96,6.678"/>
			</g>
		</g>
	</g>
	<g>
		<path fill="#947F28" stroke="#947F28" stroke-width="0.25" stroke-miterlimit="10" d="M7.291,10.318l-1.227,1.18
			c-0.214-0.557-0.32-1.096-0.32-1.617c0-1.291,0.56-2.333,1.68-3.125c0.938-0.666,2.542-1,4.813-1c0.385,0,0.723,0.008,1.016,0.023
			c0.807,0.052,1.221,0.078,1.242,0.078h0.547c-0.406,0.635-0.609,1.92-0.609,3.856l0.008,0.405l0.031,0.898
			c0,1.077,0.133,2.18,0.398,3.31c0.104,0.437,0.205,0.718,0.305,0.843c0.098,0.125,0.27,0.188,0.516,0.188
			c0.266,0,0.566-0.086,0.906-0.258c0.035,0.089,0.055,0.162,0.055,0.219c0,0.131-0.102,0.242-0.305,0.336l-0.367,0.18l-1.922,0.836
			c-0.428-1.317-0.686-2.697-0.773-4.141l-0.594,0.414h-2.626c-0.479,1.219-1.136,2.089-1.969,2.609l1.617,0.078l-0.844,0.891
			l-3.117-0.109l1.039-0.938l0.781,0.047c0.354-0.26,0.656-0.626,0.906-1.097s0.622-1.383,1.117-2.735l0.234-0.648
			c0.479-1.307,0.935-2.257,1.367-2.853c0.432-0.597,1.021-1.087,1.767-1.472c-0.818-0.15-1.681-0.227-2.587-0.227
			c-2.308,0-3.461,0.779-3.461,2.336C6.916,9.357,7.041,9.855,7.291,10.318z M13.269,12.099c-0.074-0.904-0.109-1.639-0.109-2.199
			c0-0.287,0.004-0.521,0.016-0.703l0.062-0.904c0.041-0.619,0.098-1.092,0.172-1.42c-1.021,0.624-1.86,1.898-2.517,3.822
			c-0.188,0.557-0.297,0.877-0.328,0.959l-0.18,0.445H13.269z"/>
	</g>
</g>
</svg>
