<?xml version="1.0" encoding="utf-8"?>
<!-- Generator: Adobe Illustrator 16.0.0, SVG Export Plug-In . SVG Version: 6.00 Build 0)  -->
<!DOCTYPE svg PUBLIC "-//W3C//DTD SVG 1.1//EN" "http://www.w3.org/Graphics/SVG/1.1/DTD/svg11.dtd">
<svg version="1.1" id="レイヤー_1" xmlns="http://www.w3.org/2000/svg" xmlns:xlink="http://www.w3.org/1999/xlink" x="0px"
	 y="0px" width="22.295px" height="22.275px" viewBox="0 0 22.295 22.275" enable-background="new 0 0 22.295 22.275"
	 xml:space="preserve">
<g>
	<g>
		<rect x="3.791" y="3.609" fill="#D5C78C" width="14.955" height="15.112"/>
		<g>
			<path fill="#D5C78C" stroke="#947F28" stroke-width="1.296" stroke-linecap="round" stroke-miterlimit="10" d="M3.96,6.678
				c-1.817,0.668-3.312,2.413-3.312,4.459s1.495,3.79,3.312,4.458"/>
			<path fill="#D5C78C" stroke="#947F28" stroke-width="1.296" stroke-linecap="round" stroke-miterlimit="10" d="M18.337,15.595
				c1.814-0.668,3.311-2.412,3.311-4.458s-1.496-3.791-3.311-4.459"/>
			<path fill="#D5C78C" stroke="#947F28" stroke-width="1.296" stroke-linecap="round" stroke-miterlimit="10" d="M6.687,18.317
				c0.67,1.813,2.417,3.31,4.469,3.31c2.047,0,3.793-1.496,4.461-3.31"/>
			<path fill="#D5C78C" stroke="#947F28" stroke-width="1.296" stroke-linecap="round" stroke-miterlimit="10" d="M15.616,3.956
				c-0.668-1.812-2.414-3.308-4.461-3.308c-2.052,0-3.798,1.495-4.469,3.308"/>
			<polyline fill="#D5C78C" stroke="#947F28" stroke-width="1.296" stroke-linecap="round" stroke-miterlimit="10" points="
				6.687,3.956 3.96,3.956 3.96,6.678 			"/>
			<polyline fill="#D5C78C" stroke="#947F28" stroke-width="1.296" stroke-linecap="round" stroke-miterlimit="10" points="
				18.337,6.678 18.337,3.956 15.616,3.956 			"/>
			<polyline fill="#D5C78C" stroke="#947F28" stroke-width="1.296" stroke-linecap="round" stroke-miterlimit="10" points="
				15.616,18.317 18.337,18.317 18.337,15.595 			"/>
			<polyline fill="#D5C78C" stroke="#947F28" stroke-width="1.296" stroke-linecap="round" stroke-miterlimit="10" points="
				3.96,15.595 3.96,18.317 6.687,18.317 			"/>
			<path fill="#D5C78C" stroke="#AB951D" stroke-width="1.296" stroke-miterlimit="10" d="M3.96,6.678"/>
		</g>
	</g>
	<g>
		<path fill="#947F28" stroke="#947F28" stroke-width="0.27" stroke-miterlimit="10" d="M6.202,16.695l1.007-1.076l0.245,0.055
			c0.317,0.08,0.618,0.14,0.903,0.178c0.428-0.264,0.719-0.58,0.869-0.953c0.15-0.371,0.287-1.094,0.408-2.168l0.661-5.947
			C9.196,6.861,8.32,7.157,7.667,7.667C7.012,8.177,6.685,8.82,6.685,9.593c0,0.464,0.116,0.901,0.349,1.311l-1.275,1.123
			c-0.112-0.405-0.167-0.816-0.167-1.234c0-1.424,0.609-2.591,1.827-3.5c1.217-0.909,2.774-1.365,4.669-1.365
			c2.443,0,3.664,0.7,3.664,2.102c0,1.195-0.848,2.151-2.543,2.867c1.658,0.601,2.486,1.525,2.486,2.771
			c0,1.014-0.514,1.821-1.541,2.424c-1.029,0.602-2.405,0.902-4.133,0.902C8.959,16.994,7.686,16.895,6.202,16.695z M11.042,11.537
			l-0.117,1.059l-0.07,0.664c-0.091,0.784-0.248,1.336-0.472,1.656c-0.226,0.318-0.701,0.662-1.43,1.031
			c1.046,0.171,2.079,0.256,3.099,0.256c1.648,0,2.473-0.653,2.473-1.961c0-0.563-0.227-1.108-0.68-1.635
			c-0.449-0.523-1.002-0.88-1.652-1.07l-0.205,0.008l-0.381,0.016l-0.35-0.016L11.042,11.537z M11.577,6.718l-0.464,4.178
			c0.312,0.025,0.581,0.04,0.808,0.04c0.254,0,0.557-0.02,0.91-0.057c1.123-0.646,1.686-1.424,1.686-2.333
			C14.517,7.329,13.536,6.718,11.577,6.718z"/>
	</g>
</g>
</svg>
