<?xml version="1.0" encoding="utf-8"?>
<!-- Generator: Adobe Illustrator 16.0.0, SVG Export Plug-In . SVG Version: 6.00 Build 0)  -->
<!DOCTYPE svg PUBLIC "-//W3C//DTD SVG 1.1//EN" "http://www.w3.org/Graphics/SVG/1.1/DTD/svg11.dtd">
<svg version="1.1" id="レイヤー_1" xmlns="http://www.w3.org/2000/svg" xmlns:xlink="http://www.w3.org/1999/xlink" x="0px"
	 y="0px" width="22.295px" height="22.275px" viewBox="0 0 22.295 22.275" enable-background="new 0 0 22.295 22.275"
	 xml:space="preserve">
<g>
	<g>
		<g>
			<g>
				<rect x="3.791" y="3.609" fill="#D5C78C" width="14.955" height="15.112"/>
				<g>
					<path fill="#D5C78C" stroke="#947F28" stroke-width="1.296" stroke-linecap="round" stroke-miterlimit="10" d="M3.96,6.678
						c-1.817,0.668-3.312,2.413-3.312,4.459s1.495,3.79,3.312,4.458"/>
					<path fill="#D5C78C" stroke="#947F28" stroke-width="1.296" stroke-linecap="round" stroke-miterlimit="10" d="M18.337,15.595
						c1.814-0.668,3.311-2.412,3.311-4.458s-1.496-3.791-3.311-4.459"/>
					<path fill="#D5C78C" stroke="#947F28" stroke-width="1.296" stroke-linecap="round" stroke-miterlimit="10" d="M6.687,18.317
						c0.67,1.813,2.417,3.31,4.469,3.31c2.047,0,3.793-1.496,4.461-3.31"/>
					<path fill="#D5C78C" stroke="#947F28" stroke-width="1.296" stroke-linecap="round" stroke-miterlimit="10" d="M15.616,3.956
						c-0.668-1.812-2.414-3.308-4.461-3.308c-2.052,0-3.798,1.495-4.469,3.308"/>
					<polyline fill="#D5C78C" stroke="#947F28" stroke-width="1.296" stroke-linecap="round" stroke-miterlimit="10" points="
						6.687,3.956 3.96,3.956 3.96,6.678 					"/>
					<polyline fill="#D5C78C" stroke="#947F28" stroke-width="1.296" stroke-linecap="round" stroke-miterlimit="10" points="
						18.337,6.678 18.337,3.956 15.616,3.956 					"/>
					<polyline fill="#D5C78C" stroke="#947F28" stroke-width="1.296" stroke-linecap="round" stroke-miterlimit="10" points="
						15.616,18.317 18.337,18.317 18.337,15.595 					"/>
					<polyline fill="#D5C78C" stroke="#947F28" stroke-width="1.296" stroke-linecap="round" stroke-miterlimit="10" points="
						3.96,15.595 3.96,18.317 6.687,18.317 					"/>
					<path fill="#D5C78C" stroke="#AB951D" stroke-width="1.296" stroke-miterlimit="10" d="M3.96,6.678"/>
				</g>
			</g>
		</g>
	</g>
	<g>
		<path fill="#947F28" stroke="#947F28" stroke-width="0.25" stroke-miterlimit="10" d="M11.236,10.908h1.675
			c0.777,0,1.578-0.07,2.402-0.211c-0.617,0.734-1.197,1.102-1.74,1.102l-0.666-0.016l-0.762-0.016l-0.604-0.016h-0.407l-0.056,0.57
			l-0.078,0.688c-0.088,0.734-0.247,1.268-0.477,1.598c-0.23,0.332-0.676,0.652-1.336,0.965l2.156,0.117l-0.933,0.906l-3.7-0.172
			l1.008-0.969l0.844,0.094c0.636-0.4,1.026-1.221,1.172-2.461l0.086-0.766l0.616-5.562h-0.266c-1.01,0-1.803,0.207-2.379,0.621
			S6.93,8.361,6.93,9.08c0,0.434,0.12,0.875,0.359,1.328l-1.266,1.219c-0.12-0.406-0.18-0.801-0.18-1.188
			c0-1.457,0.606-2.637,1.82-3.539c0.885-0.656,2.143-0.984,3.773-0.984h2.587c0.969,0,1.955-0.035,2.961-0.109L16.36,7.414
			l-0.125,0.29c-0.131,0.308-0.297,0.462-0.5,0.462c-0.037,0-0.076-0.002-0.117-0.008c0.062-0.266,0.094-0.473,0.094-0.625
			c0-0.344-0.184-0.559-0.549-0.645s-1.27-0.129-2.717-0.129h-0.75L11.236,10.908z"/>
	</g>
</g>
</svg>
