<?xml version="1.0" encoding="utf-8"?>
<!-- Generator: Adobe Illustrator 16.0.0, SVG Export Plug-In . SVG Version: 6.00 Build 0)  -->
<!DOCTYPE svg PUBLIC "-//W3C//DTD SVG 1.1//EN" "http://www.w3.org/Graphics/SVG/1.1/DTD/svg11.dtd">
<svg version="1.1" id="レイヤー_1" xmlns="http://www.w3.org/2000/svg" xmlns:xlink="http://www.w3.org/1999/xlink" x="0px"
	 y="0px" width="442.929px" height="15.112px" viewBox="0 0 442.929 15.112" enable-background="new 0 0 442.929 15.112"
	 xml:space="preserve">
<line fill="none" stroke="#947F28" stroke-width="0.5" stroke-miterlimit="10" x1="0" y1="7.535" x2="442.929" y2="7.535"/>
<g>
	<path fill="#947F28" d="M191.151,2.543c1.723,1.322,3.036,3.65,1.498,5.658c-1.498,1.951-4.402,1.616-6.238,0.211
		c-1.478-1.134-2.124-2.564-2.039-2.678c0.042-0.058,0.112-0.064,0.169-0.021c0.076,0.059,0.358,1.177,2.007,2.44
		c1.722,1.323,4.39,1.806,5.883-0.146c1.308-1.705-0.01-3.59-1.433-4.679c-2.328-1.786-6.256-2.001-8.171,0.497
		c-1.585,2.066,0.303,5.016,2.008,6.323c4.695,3.603,8.766,1.16,13.233-1.218c-0.356-0.24-0.738-0.447-1.118-0.736
		c-2.104-1.613-3.586-4.615-1.974-6.718c1.555-2.025,4.434-1.862,6.649-0.163c1.782,1.365,2.712,3.523,2.767,5.611
		c1.205-0.159,3.22-0.117,4.202,0.637c0.643,0.494,0.685,1.067,0.25,1.637c-1.598,2.082-6.633,1.861-9.312,0.492
		c-3.501,1.979-6.792,3.758-11.003,2.66c-1.305-0.337-2.717-1.088-3.776-1.901c-2.254-1.729-4.047-4.879-2.043-7.491
		C184.76,0.288,188.708,0.67,191.151,2.543z M197.709,7.993c0.339,0.262,0.681,0.524,0.951,0.643
		c1.701-0.803,3.557-1.422,5.493-1.713c-0.038-2.105-1.11-4.158-2.626-5.322c-2.025-1.555-4.474-1.81-5.856-0.011
		C194.235,3.465,195.891,6.599,197.709,7.993z M208.443,7.805c-0.931-0.712-3.002-0.559-4.066-0.229
		c-0.004,0.356-0.16,1.62-0.219,1.694c-0.042,0.057-0.095,0.051-0.135,0.02c-0.057-0.045,0.128-0.834,0.126-1.65
		c-1.504,0.351-2.869,1.109-4.16,1.774c2.464,1.374,7.104,1.599,8.631-0.39C208.923,8.625,208.895,8.154,208.443,7.805z"/>
	<path fill="#947F28" d="M261.291,2.959c2.006,2.612,0.211,5.762-2.043,7.491c-1.059,0.813-2.469,1.564-3.773,1.901
		c-4.213,1.098-7.502-0.682-11.004-2.66c-2.68,1.369-7.715,1.59-9.312-0.492c-0.436-0.569-0.393-1.143,0.252-1.637
		c0.98-0.754,2.996-0.796,4.201-0.637c0.053-2.088,0.986-4.246,2.766-5.611c2.215-1.699,5.094-1.862,6.65,0.163
		c1.611,2.103,0.129,5.104-1.975,6.718c-0.379,0.289-0.764,0.496-1.119,0.736c4.469,2.378,8.539,4.82,13.236,1.218
		c1.703-1.308,3.59-4.257,2.008-6.323c-1.916-2.498-5.844-2.283-8.174-0.497c-1.422,1.089-2.74,2.974-1.432,4.679
		c1.492,1.951,4.162,1.469,5.885,0.146c1.65-1.264,1.932-2.382,2.006-2.44c0.059-0.043,0.127-0.036,0.168,0.021
		c0.088,0.113-0.559,1.544-2.037,2.678c-1.838,1.405-4.74,1.74-6.236-0.211c-1.541-2.008-0.227-4.336,1.496-5.658
		C255.294,0.67,259.244,0.288,261.291,2.959z M248.332,1.589c-1.381-1.799-3.83-1.544-5.855,0.011
		c-1.518,1.164-2.586,3.217-2.627,5.322c1.938,0.291,3.795,0.91,5.496,1.713c0.268-0.118,0.609-0.381,0.951-0.643
		C248.115,6.599,249.769,3.465,248.332,1.589z M235.384,9.024c1.525,1.988,6.168,1.764,8.631,0.39
		c-1.291-0.665-2.656-1.424-4.16-1.774c-0.004,0.816,0.184,1.605,0.125,1.65c-0.037,0.031-0.09,0.037-0.135-0.02
		c-0.057-0.074-0.213-1.338-0.219-1.694c-1.062-0.329-3.135-0.482-4.064,0.229C235.109,8.154,235.082,8.625,235.384,9.024z"/>
	<g>
		<path fill="#947F28" d="M223.818,12.154c-1.995-4.749-4.68-6.645-7.641-6.396c-1.857,0.153-2.777,0.585-3.12,2.483
			c0.253,0.016,0.464,0,0.714,0.041c3.543,0.55,5.855,2.885,5.473,5.333c-0.178,1.133-1.141,1.635-2.23,1.465
			c-2.589-0.403-4.441-4.034-4.256-6.562c-1.266-0.082-2.059,0.098-2.173,0.08c-0.088-0.014-0.13-0.066-0.118-0.134
			c0.02-0.14,1.647-0.278,2.311-0.222c0.398-2.561,2.178-3.656,4.582-3.281c1.139,0.178,3.889,1.068,5.592,3.984L223.818,12.154z
			 M218.866,13.65c0.298-1.903-2.629-4.612-5.354-5.036l-0.501-0.078c-0.264,2.281,1.57,5.888,4.067,6.275
			C218.01,14.958,218.714,14.602,218.866,13.65z"/>
		<path fill="#947F28" d="M220.902,8.946c1.705-2.916,4.453-3.807,5.588-3.984c2.402-0.375,4.176,0.721,4.576,3.281
			c0.662-0.057,2.289,0.082,2.309,0.222c0.014,0.067-0.027,0.12-0.117,0.134c-0.115,0.018-0.908-0.162-2.172-0.08
			c0.186,2.527-1.666,6.158-4.25,6.562c-1.088,0.17-2.049-0.332-2.227-1.465c-0.381-2.448,1.926-4.783,5.463-5.333
			c0.25-0.041,0.461-0.025,0.713-0.041c-0.342-1.898-1.262-2.33-3.115-2.483c-2.955-0.248-5.638,1.647-7.633,6.396L220.902,8.946z
			 M226.771,14.811c2.492-0.388,4.324-3.994,4.061-6.275l-0.5,0.078c-2.721,0.424-5.643,3.133-5.346,5.036
			C225.136,14.602,225.841,14.958,226.771,14.811z"/>
	</g>
</g>
</svg>
