<?xml version="1.0" encoding="utf-8"?>
<!-- Generator: Adobe Illustrator 16.0.0, SVG Export Plug-In . SVG Version: 6.00 Build 0)  -->
<!DOCTYPE svg PUBLIC "-//W3C//DTD SVG 1.1//EN" "http://www.w3.org/Graphics/SVG/1.1/DTD/svg11.dtd">
<svg version="1.1" id="レイヤー_1" xmlns="http://www.w3.org/2000/svg" xmlns:xlink="http://www.w3.org/1999/xlink" x="0px"
	 y="0px" width="36.643px" height="32.757px" viewBox="0 0 36.643 32.757" enable-background="new 0 0 36.643 32.757"
	 xml:space="preserve">
<g>
	<g>
		<g>
			<g>
				<path fill-rule="evenodd" clip-rule="evenodd" fill="#947F28" d="M33.127,24.613H32.94v-0.555h-0.553v-0.74h0.553
					c-0.016-0.783-0.09-0.962-0.74-1.109v-0.186h0.928v0.554c0.369-0.11,0.158,0.027,0.369-0.185h0.186v-0.556h-0.555v-0.739
					c0.369-0.112,0.158,0.025,0.369-0.185c0.441-0.736-1.082-0.694,0.186-1.481c-0.066-0.626,0-0.596-0.555-0.74v-0.37
					c0.184-0.062,0.369-0.123,0.555-0.185c-0.018-0.707,0.037-0.772-0.555-0.927c0.121-0.477,0.189-0.531,0.555-0.737V16.1
					c-0.186-0.061-0.371-0.121-0.555-0.185v-0.738c0.369-0.113,0.158,0.024,0.369-0.186h0.186v-0.557
					c-0.625,0.068-0.688,0.136-0.926,0.557h-0.369v-0.187c0.186-0.061,0.369-0.123,0.553-0.186v-0.924
					c-0.738-0.203-0.723-0.76-1.295-1.111v-0.371c0.371-0.108,0.16,0.027,0.371-0.185H32.2v-0.555h-0.555v-0.185h-0.184v-0.556
					c-0.184-0.061-0.369-0.123-0.557-0.184c-0.061-0.126-0.123-0.248-0.184-0.371c0.51-0.236,0.664-0.21,0.74-0.925h-0.74v0.554
					h-0.186c-0.156,0.21,0.025,0.029-0.186,0.186c-0.107-0.282-0.148-0.302-0.184-0.739c0.369-0.112,0.158,0.026,0.369-0.185
					c0.207-0.211,0.078,0,0.186-0.372c-0.295-0.113-0.439-0.17-0.926-0.185c0.062-0.124,0.123-0.247,0.186-0.37
					c-0.029-0.26-0.025,0.022-0.186-0.184c-0.209-0.208,0.002-0.08-0.371-0.187c-0.061,0.187-0.123,0.37-0.186,0.556H28.5V7.772
					h-0.74v0.556h-0.186c-0.211,0.207,0.002,0.079-0.369,0.185c-0.109-0.282-0.148-0.301-0.188-0.74h-0.74
					c-0.061,0.246-0.121,0.493-0.184,0.74c-0.209-0.159-0.029,0.025-0.186-0.185h-0.371V8.143c0.242-0.153,0.223-0.128,0.371-0.37
					h0.369v-0.74h-0.555V6.847h-0.186V6.291c-0.367-0.108-0.158,0.027-0.367-0.185h-0.188c-0.137-0.386,0.207-0.445,0.371-0.554
					c-0.061-0.567-0.125-0.593-0.371-0.927h-0.184c-0.334-0.569,0.324-0.498-0.557-0.74c0.141-0.502,0.045-0.421,0.557-0.555v-0.74
					c-0.371-0.11-0.162,0.024-0.373-0.187h-0.184V1.851h0.557V1.109h-0.557V0.186c-0.184,0.062-0.369,0.123-0.555,0.185V0.186
					C23.502,0.123,23.319,0.062,23.131,0v0.186c-0.207,0.156-0.027-0.025-0.184,0.185h0.371v0.739h-0.188v0.372
					c0.188-0.124,0.371-0.247,0.557-0.372c0.158,0.209-0.023,0.03,0.186,0.187c-0.141,0.503-0.045,0.42-0.555,0.555
					c0.061,0.246,0.121,0.493,0.184,0.74c0.371,0.111,0.16-0.025,0.371,0.186c0.295,0.416-0.453,0.536-0.186,1.296
					c0.123,0.062,0.246,0.123,0.371,0.185c0.127,0.52-0.316,0.414-0.371,0.554v0.742c-0.752,0.173-1.094,0.588-1.85,0.738v0.556
					h-0.186v0.186c-0.291,0.259-0.152-0.342-0.186-0.37h-0.186c-0.143,0.188-0.229,0.182-0.369,0.37h-0.371v0.186h0.555
					c-0.141,0.503-0.043,0.42-0.555,0.555V7.218c-0.184,0.123-0.369,0.247-0.555,0.37c-0.371-0.617-0.74-1.234-1.111-1.852h-0.371
					c-0.133-0.533-0.198-0.612-0.739-0.74v-0.37c-0.09-0.156-2.045-1.23-2.406-1.295V3.7h0.555v0.186H16.1v0.556h0.556
					c0.157,0.207-0.024,0.029,0.186,0.185c-0.111,0.37,0.024,0.159-0.186,0.37v0.185H16.1v0.556h0.187v0.186h0.555v0.74h0.554v0.185
					h0.187v0.555h-0.74v0.741h0.74v0.74h-0.555V8.697h-0.186V8.143h-0.555C16.128,8.351,16.31,8.172,16.1,8.328
					c0.112,0.368-0.025,0.159,0.187,0.369v0.186h0.555v0.74h0.74v0.741c0.185-0.062,0.37-0.124,0.556-0.186v0.186
					c-0.55,0.17-0.509,0.038-1.296,0v0.74H16.1v0.74h-0.74v0.739h-0.555v-0.185h-0.187v-0.555h-0.554
					c-0.158,0.207,0.025,0.028-0.186,0.184c0.111,0.37-0.025,0.16,0.186,0.371v0.185h0.554v0.739h-0.739v0.741h-0.555v-0.184
					c-0.207-0.211-0.079,0.002-0.184-0.371c0.281-0.108,0.301-0.148,0.738-0.187v-0.739h-0.555v0.186h-0.184v0.554h-0.558V13.14
					c-0.207-0.212-0.078,0.002-0.184-0.37c0.247-0.123,0.493-0.247,0.741-0.37v-0.371c0.303-0.311,0.426-0.082,0.738,0v-0.924
					h-0.738v0.74h-0.558v-0.187h-0.184v-0.554h-0.555v-0.187h-0.186v-0.554h-0.556v-0.186h-0.185V9.623h-0.741v0.741h0.556v0.186
					c0.471,0.387,0.076,0.433,0.926,0.555v0.554h-0.187v0.187c-0.342,0.117-0.261-0.109-0.369-0.187h-0.185
					c0.062-0.185,0.122-0.369,0.185-0.554h-0.741v-0.187h-0.185v-0.554H9.438v0.74H8.882v-0.187H8.696v-0.554H8.143v-0.186H7.957
					V9.623H7.218v0.741H6.661v-0.186H6.478V9.623H5.922V9.438C5.714,9.228,5.843,9.439,5.736,9.069
					C6.02,8.96,6.037,8.921,6.478,8.883v-0.74H5.922v0.186H5.736v0.555H4.995v-0.74H4.44V7.959C4.233,7.747,4.361,7.961,4.256,7.588
					c0.283-0.108,0.301-0.148,0.739-0.187v0.741h0.741V7.401H5.181V7.218H4.995V6.662H4.256v0.739h-0.74v0.741h0.74v0.74h0.555
					v0.187h0.185v0.554h0.741v0.741H5.181v-0.186H4.995V9.623H4.256v0.556H4.44v0.186h0.555v0.74h0.741
					c-0.079,0.703-0.228,0.703-0.741,0.924c0.112,0.37-0.026,0.16,0.186,0.371v0.185h0.556v0.739H5.181V13.14H4.995v-0.556H4.256
					v0.739H3.699v0.187H3.516v0.555H2.96v-0.184c-0.207-0.211-0.078,0.002-0.186-0.371c0.283-0.108,0.302-0.148,0.741-0.187v-0.739
					H2.774v0.739H2.221V13.14H2.035v-0.556H1.479v0.186H1.294c0.112,0.37-0.025,0.158,0.186,0.37v0.184h0.556v0.558h0.186v0.184
					h0.554v0.74H2.221v-0.186H2.035v-0.555H1.294v0.74h0.741v0.74h0.739v0.741H2.221V16.1H2.035v-0.555H1.294v0.741h0.741v0.74
					h0.739v0.74H2.221v-0.184H2.035v-0.557H1.294v0.557h0.186v0.184h0.556c0.062,0.246,0.123,0.493,0.186,0.739h0.554v0.557H2.96
					v0.185h0.556v0.37c0.086,0.149,1.385,0.693,1.665,0.741v-0.371c0.37,0.11,0.16-0.026,0.37,0.185h0.186
					c-0.062,0.187-0.124,0.37-0.186,0.555h0.927c0.095,0.04,0.253,0.635,0.923,0.371c0,0,0.299-0.331,0.372-0.371
					c0.062,0.187,0.123,0.371,0.185,0.557h0.925v-0.557c0.503,0.143,0.421,0.046,0.557,0.557h0.924v-0.37h0.557v0.37
					c0.308-0.062,0.616-0.123,0.926-0.186v-0.185c0.677-0.062,1.356-0.124,2.034-0.187c0.062-0.185,0.124-0.368,0.186-0.555h0.371
					c0.325,0.233,1.195-0.195,1.479-0.555c0.356,0.296,0.646,0.942,0.741,1.48c0.208,0.158,0.029-0.023,0.186,0.186
					c-0.186,0.06-0.371,0.123-0.555,0.184c-0.112,0.37,0.024,0.159-0.187,0.37v0.187h0.556c0.111,0.368-0.024,0.159,0.186,0.369
					v0.185h0.554v-0.554h0.187v-0.187h0.556c0.062-0.247,0.121-0.494,0.184-0.739c0.37,0.111,0.16-0.026,0.371,0.186h0.185v0.554
					H18.32v0.187c-0.471,0.387-0.076,0.434-0.926,0.554c-0.11,0.371,0.025,0.159-0.185,0.371v0.184h-0.555v-0.555h-0.369
					c0,0-0.027-0.719-0.187-0.368c-0.257,0.044,0.078,0.174-0.186,0.184c-0.157-0.208,0.026-0.028-0.184-0.184
					c0.062,0.307,0.122,0.615,0.184,0.923c0,0.004-0.308,0.086-0.184,0.372h0.184v0.185c0.125-0.062,0.248-0.123,0.372-0.185v-0.186
					c0.251-0.071-0.074,0.147,0.184,0.186c0.483,0.069,0.734-0.141,0.925-0.372c1.295,0.097,1.31,1.018,2.407,1.297v0.185h0.186
					v-0.37h0.186V24.8h0.186v0.184c0.309,0.062,0.615,0.124,0.924,0.186v0.185h0.557v0.186h0.553v0.185h0.74v0.187
					c0.594,0.178,1.178-0.241,1.482-0.187v0.187h1.109v-0.187c0.494,0.063,0.988,0.124,1.482,0.187
					c0.061-0.123,0.123-0.247,0.184-0.371c0.186,0.124,0.371,0.248,0.557,0.371v-0.187c0.492-0.061,0.986-0.123,1.479-0.185V24.8
					c0.439,0.118,0.348,0.051,0.557,0.369h0.555v-0.186h0.186V24.8h-0.555v-0.187c-0.207-0.209-0.08,0.003-0.186-0.37
					c0.281-0.108,0.301-0.146,0.74-0.185v0.555h0.184V24.8c0.188-0.063,0.373-0.124,0.557-0.187
					c-0.062,0.123-0.123,0.248-0.184,0.37l0.184,0.186c-0.24,0.152-0.221,0.127-0.369,0.37h-0.371
					c-0.068,0.624-0.135,0.688-0.555,0.925v0.741c0.184-0.062,0.369-0.123,0.555-0.187c0.061-0.245,0.123-0.493,0.184-0.739h0.557
					v0.556h0.184v0.184H32.2v-0.555h0.188v-0.185h0.553v-0.74H32.2v0.74h-0.555v-0.185c-0.205-0.209-0.078,0.002-0.184-0.371
					c0.281-0.107,0.301-0.147,0.738-0.185V24.8c-0.533-0.135-0.611-0.199-0.738-0.741h-0.557v-0.186
					c-0.207-0.21-0.078,0.001-0.184-0.369h0.184c0.211-0.207-0.002-0.079,0.373-0.186c0.1,0.241,0.07-0.051,0.184,0.186v0.555h0.184
					v0.185H32.2V24.8h0.74v0.739h0.742V24.8h-0.555V24.613z M32.756,16.1v0.373h-0.184v-0.187c-0.209-0.158-0.029,0.024-0.186-0.187
					H32.756z M32.756,17.583v0.368h-0.184v-0.185c-0.209-0.159-0.029,0.024-0.186-0.184H32.756z M32.387,19.062h0.369v0.369h-0.369
					V19.062z M32.573,20.358h0.184c0.158,0.323-0.105,0.462-0.184,0.555v0.185h-0.186C32.43,20.661,32.465,20.641,32.573,20.358z
					 M16.286,12.028v-0.184h0.184v0.555H16.1C16.212,12.029,16.074,12.24,16.286,12.028z M15.546,12.77
					c0.209-0.207-0.002-0.078,0.368-0.186c0.062,0.186,0.125,0.371,0.186,0.556h0.37v0.37H16.1v-0.37h-0.186
					c0.001,0.197-0.16,0.305-0.368,0.184V13.14c-0.208-0.212-0.08,0.002-0.187-0.37H15.546z M14.805,13.323
					c0.368,0.113,0.159-0.024,0.37,0.187h0.185v0.555h-0.555v-0.184h-0.187C14.681,13.695,14.743,13.51,14.805,13.323z
					 M14.064,14.25c0.21-0.207-0.002-0.079,0.371-0.186c0.108,0.283,0.146,0.302,0.183,0.74h-0.554v-0.186
					c-0.207-0.21-0.08,0.003-0.186-0.369H14.064z M13.324,14.805c0.184,0.062,0.37,0.124,0.555,0.187
					c-0.11,0.367,0.026,0.158-0.185,0.369c-0.211,0.207,0.002,0.079-0.37,0.185V15.36h-0.184
					C13.201,15.177,13.264,14.991,13.324,14.805z M12.583,14.064c0.371,0.111,0.16-0.025,0.371,0.186h0.187v0.555h-0.558v-0.186
					h-0.184C12.46,14.435,12.521,14.25,12.583,14.064z M12.399,16.1c0.061-0.185,0.122-0.369,0.184-0.555
					c0.186,0.062,0.371,0.123,0.558,0.186c-0.114,0.369,0.024,0.159-0.187,0.369c-0.209,0.209,0.001,0.08-0.371,0.187V16.1H12.399z
					 M11.659,14.991h0.186c0.209-0.207-0.004-0.08,0.368-0.187c0.109,0.282,0.149,0.301,0.187,0.74h-0.555V15.36
					C11.636,15.149,11.766,15.361,11.659,14.991z M10.919,16.1c0.062-0.185,0.122-0.369,0.185-0.555
					c0.185,0.062,0.369,0.123,0.556,0.186c-0.111,0.369,0.024,0.159-0.187,0.369c-0.209,0.209,0.002,0.08-0.369,0.187V16.1H10.919z
					 M10.178,16.841c0.062-0.186,0.124-0.368,0.185-0.555c0.186,0.062,0.371,0.123,0.557,0.187
					c-0.111,0.368,0.025,0.158-0.186,0.368c-0.21,0.207,0.001,0.079-0.371,0.186v-0.186H10.178z M9.992,16.1
					c-0.21,0.209,0.001,0.08-0.369,0.187V16.1H9.438c0.062-0.185,0.123-0.369,0.185-0.555c0.185,0.062,0.369,0.123,0.555,0.186
					C10.067,16.1,10.203,15.89,9.992,16.1z M10.178,17.21c-0.142,0.504-0.044,0.423-0.555,0.557v-0.74
					C9.808,17.088,9.992,17.149,10.178,17.21z M8.696,16.841c0.063-0.186,0.124-0.368,0.186-0.555
					c0.369,0.11,0.16-0.026,0.371,0.187h0.186v0.554H8.882v-0.186H8.696z M7.218,18.321c0.062-0.185,0.121-0.37,0.183-0.555
					c0.186,0.061,0.372,0.123,0.557,0.185c-0.111,0.37,0.026,0.159-0.185,0.37C7.562,18.528,7.774,18.4,7.4,18.506v-0.185H7.218z
					 M6.478,17.583c0.061-0.187,0.121-0.373,0.184-0.557c0.186,0.062,0.371,0.123,0.557,0.184c-0.113,0.371,0.025,0.162-0.186,0.373
					c-0.21,0.207,0.002,0.076-0.371,0.184v-0.184H6.478z M5.736,18.321c0.062-0.185,0.123-0.37,0.186-0.555
					c0.185,0.061,0.369,0.123,0.556,0.185c-0.111,0.37,0.024,0.159-0.187,0.37c-0.209,0.207,0.002,0.079-0.369,0.185v-0.185H5.736z
					 M4.256,17.951H4.44c0.211-0.207-0.001-0.077,0.37-0.185c0.109,0.282,0.148,0.302,0.185,0.739H4.44v-0.185
					C4.233,18.111,4.361,18.323,4.256,17.951z M3.516,17.21c0.282-0.107,0.301-0.146,0.74-0.184v0.74H3.699v-0.184
					C3.493,17.372,3.621,17.583,3.516,17.21z M3.516,15.73c0.282-0.108,0.301-0.147,0.74-0.186v0.741H3.699V16.1
					C3.493,15.892,3.621,16.104,3.516,15.73z M4.44,17.026v-0.186c-0.207-0.21-0.079,0.002-0.185-0.368H4.44
					c0.211-0.208-0.001-0.08,0.37-0.187c0.109,0.281,0.148,0.301,0.185,0.74H4.44z M4.995,16.1c0.062-0.185,0.124-0.369,0.186-0.555
					c0.186,0.062,0.37,0.123,0.556,0.186C5.626,16.1,5.762,15.89,5.551,16.1c-0.209,0.209,0.002,0.08-0.37,0.187V16.1H4.995z
					 M4.44,15.545V15.36c-0.207-0.211-0.079,0.001-0.185-0.369H4.44c0.211-0.207-0.001-0.08,0.37-0.187
					c0.109,0.282,0.148,0.301,0.185,0.74H4.44z M5.181,17.026c0.186,0.062,0.37,0.123,0.556,0.184
					c-0.11,0.371,0.025,0.162-0.186,0.373v0.184c-0.343,0.117-0.264-0.109-0.37-0.184H4.995C5.057,17.396,5.119,17.21,5.181,17.026z
					 M5.922,17.026v-0.186c-0.208-0.21-0.079,0.002-0.186-0.368h0.186c0.21-0.208-0.002-0.08,0.369-0.187
					c0.109,0.281,0.148,0.301,0.187,0.74H5.922z M10.178,13.51h0.185c0.211-0.207-0.001-0.08,0.371-0.187
					c0.107,0.283,0.147,0.301,0.186,0.741h-0.557v-0.184C10.155,13.67,10.284,13.883,10.178,13.51z M10.178,13.323H9.623V13.14
					c-0.207-0.212-0.079,0.002-0.185-0.37c0.282-0.108,0.301-0.149,0.739-0.186V13.323z M9.623,14.064
					c0.185,0.062,0.369,0.124,0.555,0.186c-0.11,0.369,0.025,0.159-0.186,0.369v0.186c-0.344,0.117-0.262-0.106-0.369-0.186H9.438
					C9.5,14.435,9.562,14.25,9.623,14.064z M9.253,13.881c-0.21,0.207,0,0.077-0.371,0.184v-0.184H8.696
					c0.063-0.186,0.124-0.371,0.186-0.558c0.186,0.063,0.371,0.126,0.557,0.187C9.326,13.878,9.464,13.669,9.253,13.881z
					 M8.513,13.14c-0.212,0.207,0.002,0.079-0.37,0.184V13.14H7.957c0.062-0.185,0.123-0.37,0.186-0.556
					c0.186,0.062,0.37,0.124,0.554,0.186C8.586,13.14,8.724,12.928,8.513,13.14z M8.696,14.25c-0.11,0.369,0.027,0.159-0.184,0.369
					v0.186c-0.343,0.117-0.264-0.106-0.37-0.186H7.957c0.062-0.185,0.123-0.369,0.186-0.555C8.328,14.126,8.513,14.188,8.696,14.25z
					 M7.4,12.584v-0.185c-0.206-0.21-0.077,0.002-0.183-0.371H7.4c0.213-0.207-0.001-0.079,0.372-0.184
					c0.108,0.282,0.147,0.302,0.185,0.739H7.4z M7.4,13.323c0.371,0.113,0.161-0.024,0.372,0.187h0.185v0.555H7.4v-0.184H7.218
					C7.279,13.695,7.339,13.51,7.4,13.323z M7.218,15.36c0.062-0.184,0.121-0.369,0.183-0.556c0.186,0.062,0.372,0.124,0.557,0.187
					c-0.111,0.367,0.026,0.158-0.185,0.369c-0.21,0.207,0.002,0.079-0.372,0.185V15.36H7.218z M7.218,13.323H6.661V13.14
					c-0.207-0.212-0.078,0.002-0.184-0.37c0.282-0.108,0.3-0.149,0.74-0.186V13.323z M7.218,14.064v0.555H7.032
					c-0.21,0.209,0.002,0.079-0.371,0.186v-0.186c-0.207-0.21-0.078,0.003-0.184-0.369C6.76,14.142,6.777,14.103,7.218,14.064z
					 M6.661,15.545c0.186,0.062,0.371,0.123,0.557,0.186C7.104,16.1,7.243,15.89,7.032,16.1c-0.21,0.209,0.002,0.08-0.371,0.187
					V16.1H6.478C6.538,15.915,6.599,15.73,6.661,15.545z M5.922,15.545V15.36c-0.208-0.211-0.079,0.001-0.186-0.369h0.186
					c0.21-0.207-0.002-0.08,0.369-0.187c0.109,0.282,0.148,0.301,0.187,0.74H5.922z M7.772,16.841
					c-0.21,0.207,0.002,0.079-0.372,0.186v-0.186H7.218c0.062-0.186,0.121-0.368,0.183-0.555c0.186,0.062,0.372,0.123,0.557,0.187
					C7.846,16.841,7.983,16.631,7.772,16.841z M8.143,17.026c0.186,0.062,0.37,0.123,0.554,0.184
					c-0.11,0.371,0.027,0.162-0.184,0.373v0.184c-0.343,0.117-0.264-0.109-0.37-0.184H7.957C8.02,17.396,8.08,17.21,8.143,17.026z
					 M8.513,16.1c-0.212,0.209,0.002,0.08-0.37,0.187V16.1H7.957c0.062-0.185,0.123-0.369,0.186-0.555
					c0.186,0.062,0.37,0.123,0.554,0.186C8.586,16.1,8.724,15.89,8.513,16.1z M9.253,15.36c-0.21,0.207,0,0.079-0.371,0.185V15.36
					H8.696c0.063-0.184,0.124-0.369,0.186-0.556c0.186,0.062,0.371,0.124,0.557,0.187C9.326,15.358,9.464,15.149,9.253,15.36z
					 M10.733,15.36c-0.21,0.207,0.001,0.079-0.371,0.185V15.36h-0.185c0.062-0.184,0.124-0.369,0.185-0.556
					c0.186,0.062,0.371,0.124,0.557,0.187C10.808,15.358,10.944,15.149,10.733,15.36z M11.473,14.619
					c-0.209,0.209,0.002,0.079-0.369,0.186v-0.186h-0.185c0.062-0.185,0.122-0.369,0.185-0.555c0.185,0.062,0.369,0.124,0.556,0.186
					C11.548,14.619,11.684,14.409,11.473,14.619z M11.659,13.51h0.186c0.209-0.207-0.004-0.08,0.368-0.187
					c0.109,0.283,0.149,0.301,0.187,0.741h-0.555v-0.184C11.636,13.67,11.766,13.883,11.659,13.51z M12.399,11.845v0.739h-0.555
					v-0.185c-0.209-0.21-0.079,0.002-0.186-0.371C11.94,11.92,11.96,11.881,12.399,11.845z M11.104,12.584
					c0.369,0.112,0.159-0.025,0.369,0.186h0.187v0.554h-0.556V13.14h-0.185C10.98,12.955,11.041,12.77,11.104,12.584z
					 M10.362,12.028c0.211-0.207-0.001-0.079,0.371-0.184c0.107,0.282,0.147,0.302,0.186,0.739h-0.557v-0.185
					c-0.207-0.21-0.078,0.002-0.185-0.371H10.362z M10.178,11.104v0.554H9.992c-0.21,0.207,0.001,0.079-0.369,0.187v-0.187
					c-0.207-0.209-0.079,0.003-0.185-0.369C9.721,11.182,9.739,11.14,10.178,11.104z M8.882,12.028
					c0.21-0.207-0.001-0.079,0.371-0.184c0.108,0.282,0.147,0.302,0.186,0.739H8.882v-0.185c-0.207-0.21-0.079,0.002-0.186-0.371
					H8.882z M8.696,11.104v0.74H8.143v-0.187c-0.207-0.209-0.078,0.003-0.186-0.369C8.24,11.182,8.257,11.14,8.696,11.104z
					 M7.957,10.364v0.74H7.4v-0.187c-0.206-0.209-0.077,0.003-0.183-0.368C7.499,10.439,7.519,10.401,7.957,10.364z M6.661,11.289
					c0.21-0.208-0.002-0.079,0.371-0.185c0.108,0.281,0.147,0.301,0.186,0.74H6.661v-0.187c-0.207-0.209-0.078,0.003-0.184-0.369
					H6.661z M5.922,10.55c0.21-0.21-0.002-0.079,0.369-0.186c0.109,0.282,0.148,0.301,0.187,0.74H5.922v-0.187
					c-0.208-0.209-0.079,0.003-0.186-0.368H5.922z M6.478,11.845v0.739H5.922v-0.185c-0.208-0.21-0.079,0.002-0.186-0.371
					C6.02,11.92,6.037,11.881,6.478,11.845z M5.922,13.323c0.185,0.063,0.369,0.126,0.556,0.187
					c-0.111,0.368,0.024,0.159-0.187,0.371c-0.209,0.207,0.002,0.077-0.369,0.184v-0.184H5.736
					C5.798,13.695,5.859,13.51,5.922,13.323z M5.181,14.25c0.21-0.207-0.001-0.079,0.37-0.186c0.108,0.283,0.148,0.302,0.186,0.74
					H5.181v-0.186c-0.207-0.21-0.08,0.003-0.186-0.369H5.181z M4.995,13.323v0.741H4.44v-0.184
					c-0.207-0.211-0.079,0.002-0.185-0.371C4.539,13.401,4.557,13.361,4.995,13.323z M4.256,14.064v0.74H3.699v-0.186
					c-0.206-0.21-0.078,0.003-0.184-0.369C3.798,14.142,3.816,14.103,4.256,14.064z M3.516,14.805v0.74H2.96V15.36
					c-0.207-0.211-0.078,0.001-0.186-0.369C3.058,14.883,3.076,14.843,3.516,14.805z M2.96,16.473
					c0.21-0.208-0.002-0.08,0.372-0.187c0.106,0.281,0.146,0.301,0.184,0.74H2.96v-0.186c-0.207-0.21-0.078,0.002-0.186-0.368H2.96z
					 M2.96,18.506v-0.185c-0.207-0.21-0.078,0.002-0.186-0.37c0.283-0.109,0.302-0.147,0.741-0.185v0.739H2.96z M4.07,19.062
					c-0.21,0.207,0.002,0.078-0.371,0.185v-0.185H3.516c0.062-0.185,0.124-0.371,0.184-0.557c0.187,0.062,0.371,0.124,0.557,0.186
					C4.145,19.062,4.281,18.852,4.07,19.062z M4.811,19.802v0.186c-0.184-0.062-0.37-0.122-0.555-0.186
					c0.11-0.37-0.025-0.159,0.185-0.37c0.211-0.207-0.001-0.08,0.37-0.185c0.158,0.207-0.024,0.03,0.185,0.185
					C4.886,19.802,5.022,19.592,4.811,19.802z M5.551,19.062c-0.209,0.207,0.002,0.078-0.37,0.185v-0.185H4.995
					c0.062-0.185,0.124-0.371,0.186-0.557c0.186,0.062,0.37,0.124,0.556,0.186C5.626,19.062,5.762,18.852,5.551,19.062z
					 M6.291,19.802v0.186c-0.343,0.117-0.263-0.108-0.369-0.186H5.736c0.062-0.185,0.123-0.37,0.186-0.555
					c0.185,0.061,0.369,0.124,0.556,0.185C6.366,19.802,6.502,19.592,6.291,19.802z M6.478,19.062
					c0.061-0.185,0.121-0.371,0.184-0.557c0.186,0.062,0.371,0.124,0.557,0.186c-0.113,0.37,0.025,0.16-0.186,0.371
					c-0.21,0.207,0.002,0.078-0.371,0.185v-0.185H6.478z M6.661,20.727v-0.739c0.186,0.062,0.371,0.122,0.557,0.185
					C7.076,20.677,7.172,20.595,6.661,20.727z M7.772,19.802C7.562,20.01,7.774,19.88,7.4,19.987v-0.186H7.218
					c0.062-0.185,0.121-0.37,0.183-0.555c0.186,0.061,0.372,0.124,0.557,0.185C7.846,19.802,7.983,19.592,7.772,19.802z
					 M8.513,20.542c-0.159,0.209,0.025,0.03-0.185,0.185c-0.11-0.283-0.147-0.3-0.186-0.739c0.186,0.062,0.37,0.122,0.554,0.185
					C8.586,20.542,8.724,20.331,8.513,20.542z M8.143,19.247c-0.062-0.185-0.123-0.369-0.186-0.556
					c0.186-0.062,0.371-0.123,0.556-0.186c0.157,0.21-0.025,0.029,0.184,0.186C8.558,19.195,8.652,19.114,8.143,19.247z
					 M8.696,18.321c0.063-0.185,0.124-0.37,0.186-0.555c0.186,0.061,0.371,0.123,0.557,0.185c-0.112,0.37,0.025,0.159-0.186,0.37
					c-0.21,0.207,0,0.079-0.371,0.185v-0.185H8.696z M8.882,19.987v-0.74c0.186,0.061,0.371,0.124,0.557,0.185
					C9.296,19.936,9.394,19.853,8.882,19.987z M9.992,20.542c-0.157,0.209,0.026,0.03-0.185,0.185
					c-0.109-0.283-0.147-0.3-0.185-0.739c0.185,0.062,0.369,0.122,0.555,0.185C10.067,20.542,10.203,20.331,9.992,20.542z
					 M9.992,19.062v0.185c-0.344,0.117-0.262-0.108-0.369-0.185H9.438c0.062-0.185,0.123-0.371,0.185-0.557
					c0.185,0.062,0.369,0.124,0.555,0.186C10.067,19.062,10.203,18.852,9.992,19.062z M10.178,18.321
					c0.062-0.185,0.124-0.37,0.185-0.555c0.186,0.061,0.371,0.123,0.557,0.185c-0.111,0.37,0.025,0.159-0.186,0.37v0.185
					c-0.343,0.118-0.264-0.107-0.371-0.185H10.178z M10.733,19.802c-0.158,0.21,0.024,0.029-0.186,0.186
					c-0.108-0.283-0.147-0.301-0.186-0.74c0.186,0.061,0.371,0.124,0.557,0.185C10.808,19.802,10.944,19.592,10.733,19.802z
					 M11.473,20.542c-0.156,0.209,0.025,0.03-0.185,0.185c-0.108-0.283-0.148-0.3-0.185-0.739c0.185,0.062,0.369,0.122,0.556,0.185
					C11.548,20.542,11.684,20.331,11.473,20.542z M11.473,19.062v0.185c-0.342,0.117-0.261-0.108-0.369-0.185h-0.185
					c0.062-0.185,0.122-0.371,0.185-0.557c0.185,0.062,0.369,0.124,0.556,0.186C11.548,19.062,11.684,18.852,11.473,19.062z
					 M11.104,17.767v-0.74c0.185,0.062,0.369,0.123,0.556,0.184C11.517,17.714,11.615,17.633,11.104,17.767z M11.659,16.841
					c0.061-0.186,0.123-0.368,0.186-0.555c0.368,0.11,0.157-0.026,0.368,0.187h0.187v0.554h-0.555v-0.186H11.659z M12.213,19.802
					c-0.157,0.21,0.025,0.029-0.184,0.186c-0.11-0.283-0.148-0.301-0.185-0.74c0.185,0.061,0.368,0.124,0.555,0.185
					C12.287,19.802,12.425,19.592,12.213,19.802z M12.213,18.321c-0.157,0.209,0.025,0.028-0.184,0.185
					c-0.11-0.282-0.148-0.302-0.185-0.739c0.185,0.061,0.368,0.123,0.555,0.185C12.287,18.321,12.425,18.11,12.213,18.321z
					 M13.141,20.358c-0.187,0.061-0.372,0.123-0.558,0.184v-0.555c0.371,0.11,0.16-0.026,0.371,0.185h0.187V20.358z M12.954,19.062
					c-0.158,0.207,0.024,0.028-0.186,0.185c-0.107-0.281-0.147-0.301-0.186-0.741c0.186,0.062,0.371,0.124,0.558,0.186
					C13.026,19.062,13.165,18.852,12.954,19.062z M12.954,17.583c-0.209,0.207,0.001,0.076-0.371,0.184v-0.184h-0.184
					c0.061-0.187,0.122-0.373,0.184-0.557c0.186,0.062,0.371,0.123,0.558,0.184C13.026,17.581,13.165,17.372,12.954,17.583z
					 M13.324,19.802v-0.555c0.504,0.141,0.422,0.044,0.555,0.555H13.324z M13.324,18.506v-0.739c0.184,0.061,0.37,0.123,0.555,0.185
					C13.738,18.454,13.837,18.373,13.324,18.506z M13.694,16.841c-0.211,0.207,0.002,0.079-0.37,0.186v-0.186h-0.184
					c0.061-0.186,0.123-0.368,0.184-0.555c0.184,0.062,0.37,0.123,0.555,0.187C13.769,16.841,13.905,16.631,13.694,16.841z
					 M14.436,19.062c-0.159,0.207,0.024,0.028-0.187,0.185c-0.172-0.564-0.184-0.171,0-0.741c0.123,0.062,0.247,0.124,0.369,0.186
					C14.508,19.062,14.646,18.852,14.436,19.062z M14.064,17.767v-0.74c0.185,0.062,0.371,0.123,0.554,0.184
					C14.479,17.714,14.575,17.633,14.064,17.767z M14.436,16.1c-0.212,0.209,0.002,0.08-0.371,0.187V16.1h-0.186
					c0.062-0.185,0.124-0.369,0.186-0.555c0.185,0.062,0.371,0.123,0.554,0.186C14.508,16.1,14.646,15.89,14.436,16.1z
					 M15.175,19.802h-0.186v-0.185c-0.209-0.158-0.028,0.025-0.185-0.186h0.37V19.802z M14.805,18.321
					c0.112-0.37-0.025-0.16,0.185-0.37c0.159-0.209-0.025-0.028,0.186-0.185c0.062,0.185,0.124,0.37,0.185,0.555H14.805z
					 M15.175,16.841c-0.159,0.208,0.024,0.03-0.186,0.186c-0.106-0.282-0.147-0.301-0.185-0.74c0.185,0.062,0.37,0.123,0.555,0.187
					C15.249,16.841,15.386,16.631,15.175,16.841z M15.175,15.36c-0.211,0.207,0.001,0.079-0.37,0.185V15.36h-0.187
					c0.062-0.184,0.125-0.369,0.187-0.556c0.185,0.062,0.37,0.124,0.555,0.187C15.249,15.358,15.386,15.149,15.175,15.36z
					 M15.546,14.064h0.368v0.555H15.73c-0.159,0.21,0.024,0.03-0.185,0.186v-0.186h-0.187C15.421,14.435,15.483,14.25,15.546,14.064
					z M15.73,17.026v0.37c0.209,0.157,0.028-0.024,0.184,0.187h-0.368v-0.557H15.73z M15.546,16.286v-0.741h0.185v0.741H15.546z
					 M16.1,18.878c-0.186,0.06-0.369,0.122-0.554,0.185v-0.371H16.1V18.878z M16.47,19.432h-0.184v-0.369h0.184V19.432z
					 M16.655,17.951H16.1v-0.368h0.556V17.951z M16.655,16.473H16.1V16.1h0.556V16.473z M16.655,14.991H16.1v-0.372h0.556V14.991z
					 M17.21,21.837h-0.184v-0.184h-0.186c0.062-0.125,0.123-0.247,0.186-0.37C17.289,21.503,17.518,21.49,17.21,21.837z
					 M17.395,20.172h-0.554v-0.37h0.554V20.172z M16.841,18.691c0.11-0.37-0.027-0.159,0.186-0.37
					c0.157-0.207-0.025-0.028,0.184-0.185c0.063,0.185,0.124,0.369,0.185,0.555H16.841z M17.21,17.21
					c-0.157,0.21,0.026,0.029-0.184,0.187c-0.175-0.562-0.184-0.171,0-0.741c0.123,0.062,0.247,0.124,0.368,0.186
					C17.284,17.21,17.42,17,17.21,17.21z M17.21,15.73c-0.157,0.209,0.026,0.028-0.184,0.185c-0.175-0.563-0.184-0.171,0-0.738
					c0.123,0.062,0.247,0.121,0.368,0.184C17.284,15.73,17.42,15.52,17.21,15.73z M17.21,14.25
					c-0.157,0.208,0.026,0.029-0.184,0.185c-0.175-0.563-0.184-0.171,0-0.739c0.123,0.062,0.247,0.122,0.368,0.186
					C17.284,14.25,17.42,14.039,17.21,14.25z M17.395,12.77h-0.554v-0.37h0.554V12.77z M17.581,20.913
					c0.11-0.371-0.025-0.159,0.185-0.371c0.158-0.208-0.024-0.028,0.186-0.184c0.062,0.184,0.124,0.368,0.186,0.555H17.581z
					 M17.581,19.432c0.11-0.369-0.025-0.159,0.185-0.369c0.158-0.21-0.024-0.03,0.186-0.185c0.062,0.185,0.124,0.369,0.186,0.554
					H17.581z M17.581,17.951c0.11-0.368-0.025-0.159,0.185-0.368c0.158-0.209-0.024-0.03,0.186-0.187
					c0.062,0.187,0.124,0.37,0.186,0.555H17.581z M17.951,16.473c-0.158,0.206,0.025,0.026-0.186,0.183
					c-0.107-0.281-0.147-0.301-0.185-0.74c0.185,0.063,0.37,0.124,0.556,0.185C18.024,16.469,18.161,16.26,17.951,16.473z
					 M17.951,14.991c-0.158,0.209,0.025,0.026-0.186,0.186c-0.172-0.564-0.183-0.174,0-0.742c0.124,0.062,0.247,0.123,0.371,0.185
					C18.024,14.989,18.161,14.78,17.951,14.991z M17.951,13.51c-0.158,0.209,0.025,0.029-0.186,0.186
					c-0.172-0.564-0.183-0.171,0-0.74c0.124,0.061,0.247,0.122,0.371,0.185C18.024,13.509,18.161,13.299,17.951,13.51z
					 M18.137,12.028h-0.556v-0.37h0.556V12.028z M32.016,21.653c-0.158,0.207,0.025,0.029-0.186,0.184
					c-0.061-0.184-0.123-0.37-0.186-0.554H32.2C32.09,21.652,32.227,21.441,32.016,21.653z M32.016,19.802v0.37h-0.371v-0.37H32.016
					z M31.645,18.691v-0.37h0.371v0.37H31.645z M31.645,13.881h0.371v0.369h-0.371V13.881z M31.645,15.36h0.371v0.37h-0.371V15.36z
					 M32.016,16.841C31.905,17.21,32.042,17,31.831,17.21c-0.156,0.21,0.025,0.029-0.186,0.187V17.21
					c-0.209-0.157-0.027,0.026-0.184-0.184C31.645,16.964,31.831,16.902,32.016,16.841z M31.092,11.474h0.186
					c0.061,0.185,0.121,0.371,0.184,0.555h-0.369V11.474z M30.167,10.918h0.555v0.187c-0.186,0.062-0.371,0.123-0.555,0.185V10.918z
					 M29.981,8.697c-0.113,0.37,0.025,0.161-0.186,0.372c-0.158,0.207,0.023,0.026-0.186,0.185
					c-0.062-0.185-0.123-0.371-0.186-0.557H29.981z M29.61,10.179c0.158-0.209-0.023-0.028,0.186-0.186
					c0.158,0.21-0.025,0.029,0.186,0.186v0.186c-0.186,0.06-0.371,0.122-0.557,0.186C29.538,10.18,29.399,10.389,29.61,10.179z
					 M27.206,9.254h0.555V8.697h0.74c0.146,0.534,0.295,0.546,0.738,0.741c-0.109,0.369,0.027,0.157-0.184,0.369
					c-0.209,0.208,0.002,0.079-0.369,0.186c-0.109-0.282-0.148-0.302-0.186-0.739h-0.74v0.739h-0.555V9.254z M26.465,8.513
					c0.367,0.111,0.156-0.025,0.367,0.185h0.186v0.186c-0.186,0.062-0.369,0.124-0.553,0.187V8.513z M25.909,9.438h0.186
					c0.117,0.343-0.107,0.263-0.186,0.369v0.186h-0.186C25.786,9.808,25.848,9.623,25.909,9.438z M25.17,7.218
					c0.367,0.11,0.156-0.026,0.367,0.184h-0.184c-0.158,0.21,0.025,0.029-0.184,0.187V7.218z M24.983,9.069
					c0.045-0.26,0.176,0.074,0.188-0.187c0.367,0.11,0.156-0.024,0.367,0.187c-0.207,0.157-0.027-0.026-0.184,0.185
					C25.354,9.254,24.633,9.228,24.983,9.069z M25.538,9.993v0.557h0.186v0.184h0.555v-0.555h0.188V9.993h0.367v0.186
					c0.461,0.392,0.088,0.441,0.928,0.555v-0.555h0.186V9.993H28.5v0.557c0.186,0.061,0.369,0.123,0.555,0.184
					c0.062,0.185,0.123,0.371,0.184,0.556h0.186v0.185h0.371c0.207,0.188,0.131,0.371,0.186,0.739h0.555
					c0.158,0.209-0.025,0.031,0.186,0.187c-0.141,0.504-0.043,0.421-0.555,0.556v0.74c0.502-0.142,0.422-0.044,0.555-0.556h0.74
					c-0.062,0.184-0.123,0.37-0.184,0.556h-0.557c0.078,0.703,0.227,0.703,0.74,0.924c-0.113,0.37,0.025,0.161-0.184,0.372v0.186
					h-0.557v0.554h0.184v0.185h0.557v0.74h-0.557c-0.156,0.209,0.025,0.03-0.184,0.186c0.145,0.533,0.295,0.546,0.74,0.742
					c-0.113,0.367,0.025,0.158-0.184,0.368v0.186c-0.613,0.188-0.477-0.582-0.742-0.74h-0.369c-0.158,0.209,0.023,0.028-0.186,0.187
					c0.111,0.367-0.025,0.158,0.186,0.368v0.186h0.555v0.741h-0.74v0.739h-0.557v-0.186c-0.207-0.21-0.078,0.002-0.186-0.369
					c0.283-0.11,0.303-0.148,0.742-0.185v-0.741h-0.557v0.185h-0.186v0.557h-0.553c-0.16,0.206,0.023,0.026-0.186,0.185
					c0.109,0.369-0.025,0.158,0.186,0.369v0.186h0.553v0.741h-0.553v-0.187H28.5v-0.555h-0.555v-0.186
					c-0.207-0.21-0.08,0.002-0.186-0.369c0.295-0.114,0.438-0.172,0.926-0.185c-0.109-0.283-0.148-0.302-0.186-0.741h-0.555v0.185
					H27.76v0.557h-0.742v0.554h0.188v0.186h0.555v0.741h-0.555v-0.187h-0.188v-0.555h-0.553v-0.186
					c-0.207-0.21-0.08,0.002-0.188-0.369c0.283-0.11,0.301-0.148,0.74-0.185v-0.741h-0.553v-0.186h-0.188v-0.555h-0.555V17.21
					c-0.207-0.209-0.078,0.002-0.186-0.369c0.283-0.107,0.303-0.147,0.74-0.186V16.1h0.188c0.385-0.469,0.434-0.075,0.553-0.923
					h-0.74v0.738h-0.555V15.73h-0.186v-0.554h-0.555v-0.186c-0.207-0.21-0.078,0.002-0.184-0.372
					c0.281-0.107,0.301-0.147,0.738-0.185v-0.739h-0.738v0.739h-0.557V14.25c-0.207-0.211-0.078,0.001-0.184-0.369
					c0.281-0.11,0.301-0.148,0.74-0.186v-0.74h-0.557v0.185h-0.184v0.556h-0.557V13.51h-0.184v-0.555h-0.555
					c-0.062-0.247-0.125-0.493-0.186-0.742h-0.557v-0.185c-0.207-0.209-0.078,0.002-0.184-0.37h0.184v-0.185h0.369v0.185
					c0.461,0.394,0.088,0.442,0.928,0.555v-0.739h0.555v-0.185h0.186v-0.556h-0.557V10.55h-0.184V9.993h-0.555V9.808
					c-0.209-0.209-0.08,0.003-0.186-0.369c0.123-0.062,0.246-0.125,0.369-0.185c0.26,0.028-0.021,0.026,0.184,0.185h0.188V8.697
					h0.184c0.211-0.207,0-0.078,0.371-0.185c0.158,0.209-0.025,0.028,0.186,0.185c-0.146,0.534-0.295,0.546-0.74,0.741
					c0.111,0.369-0.027,0.157,0.184,0.369v0.186h0.557v0.557h0.184c0.213,0.207-0.002,0.077,0.371,0.184
					c0.107-0.281,0.148-0.301,0.186-0.74H25.538z M26.278,20.542c0.283-0.108,0.301-0.148,0.74-0.184v0.555h-0.186
					c-0.209,0.207,0.006,0.078-0.367,0.185v-0.185C26.258,20.702,26.385,20.915,26.278,20.542z M25.538,19.802h0.186
					c0.209-0.207-0.002-0.078,0.371-0.185c0.107,0.281,0.148,0.301,0.184,0.741h-0.555v-0.187
					C25.516,19.963,25.645,20.175,25.538,19.802z M25.354,19.432c-0.211,0.207,0.002,0.08-0.371,0.186v-0.186h-0.184
					c0.061-0.185,0.123-0.369,0.184-0.554c0.188,0.06,0.371,0.122,0.555,0.185C25.426,19.432,25.565,19.221,25.354,19.432z
					 M25.538,20.542c-0.139,0.504-0.043,0.422-0.555,0.556v-0.739C25.17,20.419,25.354,20.481,25.538,20.542z M23.319,20.913
					c0.061-0.187,0.121-0.371,0.184-0.555c0.186,0.061,0.371,0.123,0.557,0.184c-0.113,0.369,0.025,0.159-0.186,0.371
					c-0.209,0.207,0.002,0.078-0.371,0.185v-0.185H23.319z M22.391,19.432c-0.209,0.207,0.002,0.08-0.369,0.186v-0.186h-0.184
					c0.061-0.185,0.123-0.369,0.184-0.554c0.186,0.06,0.369,0.122,0.557,0.185C22.467,19.432,22.604,19.221,22.391,19.432z
					 M22.579,20.542c-0.143,0.504-0.045,0.422-0.557,0.556v-0.739C22.208,20.419,22.391,20.481,22.579,20.542z M20.358,19.432
					c0.062-0.185,0.123-0.369,0.184-0.554h0.555v0.739h-0.555v-0.186H20.358z M20.172,18.691c-0.158,0.209,0.023,0.029-0.186,0.187
					c-0.172-0.564-0.186-0.174,0-0.741c0.123,0.062,0.246,0.123,0.371,0.185C20.245,18.691,20.383,18.481,20.172,18.691z
					 M21.282,19.617l0.557,0.185c-0.111,0.369,0.025,0.159-0.186,0.37v0.187c-0.344,0.116-0.264-0.11-0.371-0.187h-0.186
					C21.159,19.987,21.219,19.802,21.282,19.617z M21.653,18.691c-0.211,0.207,0,0.079-0.371,0.187
					c-0.107-0.283-0.146-0.302-0.186-0.741c-0.369-0.111-0.158,0.024-0.369-0.186h-0.186v-0.555
					c0.186,0.062,0.371,0.124,0.555,0.187v0.368c0.248,0.124,0.494,0.247,0.742,0.37C21.727,18.691,21.864,18.481,21.653,18.691z
					 M21.838,8.697h0.184c0.211-0.207-0.002-0.078,0.369-0.185c0.109,0.282,0.148,0.301,0.188,0.741h-0.557V9.069
					C21.815,8.858,21.944,9.069,21.838,8.697z M22.022,10.179c0.211-0.207-0.002-0.078,0.369-0.186
					c0.109,0.282,0.148,0.302,0.188,0.74h-0.557V10.55c-0.207-0.212-0.078,0-0.184-0.371H22.022z M22.764,10.733h0.555v0.556h-0.188
					v0.185c-0.342,0.118-0.262-0.108-0.367-0.185h-0.186C22.639,11.104,22.702,10.918,22.764,10.733z M21.653,9.808
					c-0.211,0.208,0,0.079-0.371,0.186V9.808h-0.186c0.062-0.185,0.123-0.369,0.186-0.554c0.186,0.06,0.371,0.122,0.557,0.185
					C21.727,9.808,21.864,9.596,21.653,9.808z M21.282,10.733c0.186,0.062,0.371,0.124,0.557,0.185
					c-0.111,0.37,0.025,0.16-0.186,0.371v0.185c-0.344,0.118-0.264-0.108-0.371-0.185h-0.186
					C21.159,11.104,21.219,10.918,21.282,10.733z M25.354,15.915V16.1h0.184v0.556h-0.555v-0.183h-0.184v-0.558h-0.557V15.73
					c-0.207-0.211-0.078,0.002-0.184-0.37c0.281-0.108,0.301-0.148,0.74-0.184v0.738H25.354z M25.538,18.321
					c0.283-0.107,0.303-0.146,0.74-0.185v0.555h-0.184c-0.211,0.207,0.002,0.079-0.371,0.187v-0.187
					C25.516,18.482,25.645,18.693,25.538,18.321z M24.983,18.137v-0.186c-0.207-0.21-0.078,0.001-0.184-0.368h0.184
					c0.211-0.209-0.002-0.08,0.371-0.187c0.109,0.282,0.148,0.301,0.184,0.74H24.983z M23.874,14.991
					c-0.209,0.207,0.002,0.077-0.371,0.186v-0.186h-0.184c0.061-0.187,0.121-0.372,0.184-0.557c0.186,0.062,0.371,0.123,0.557,0.185
					C23.946,14.989,24.084,14.78,23.874,14.991z M23.131,14.25v0.185c-0.342,0.117-0.262-0.108-0.367-0.185h-0.186
					c0.061-0.186,0.123-0.369,0.186-0.555c0.184,0.062,0.367,0.122,0.555,0.186C23.208,14.25,23.344,14.039,23.131,14.25z
					 M22.391,13.51c-0.209,0.207,0.002,0.08-0.369,0.186V13.51h-0.184c0.061-0.187,0.123-0.37,0.184-0.555
					c0.186,0.061,0.369,0.122,0.557,0.185C22.467,13.509,22.604,13.299,22.391,13.51z M21.282,12.955v-0.742
					c0.186,0.062,0.371,0.126,0.557,0.187C21.696,12.903,21.793,12.82,21.282,12.955z M20.913,10.55
					c-0.158,0.207,0.025,0.027-0.186,0.184c-0.107-0.281-0.148-0.301-0.186-0.74c0.186,0.062,0.371,0.124,0.555,0.186
					C20.987,10.548,21.122,10.338,20.913,10.55z M21.096,11.658c-0.109,0.37,0.025,0.159-0.184,0.37
					c-0.158,0.21,0.025,0.03-0.186,0.185c-0.107-0.283-0.148-0.299-0.186-0.739C20.727,11.535,20.913,11.597,21.096,11.658z
					 M21.096,13.14c-0.109,0.369,0.025,0.159-0.184,0.37c-0.158,0.209,0.025,0.029-0.186,0.186c-0.107-0.284-0.148-0.302-0.186-0.74
					C20.727,13.016,20.913,13.077,21.096,13.14z M21.096,14.619c-0.109,0.37,0.025,0.161-0.184,0.372
					c-0.158,0.209,0.025,0.026-0.186,0.186c-0.107-0.284-0.148-0.303-0.186-0.742C20.727,14.497,20.913,14.558,21.096,14.619z
					 M20.913,16.473c-0.158,0.206,0.025,0.026-0.186,0.183c-0.174-0.564-0.184-0.171,0-0.74c0.123,0.063,0.246,0.124,0.369,0.185
					C20.987,16.469,21.122,16.26,20.913,16.473z M21.282,16.841c0.211-0.207-0.002-0.079,0.371-0.186
					c0.158,0.209-0.025,0.03,0.186,0.186C21.727,17.21,21.864,17,21.653,17.21v0.187h-0.557v-0.556H21.282z M22.391,17.951
					c-0.156,0.208,0.025,0.029-0.184,0.186c-0.174-0.563-0.184-0.171,0-0.74c0.123,0.062,0.248,0.124,0.371,0.187
					C22.467,17.95,22.604,17.741,22.391,17.951z M22.391,16.473c-0.156,0.206,0.025,0.026-0.184,0.183
					c-0.109-0.281-0.148-0.301-0.186-0.74c0.186,0.063,0.369,0.124,0.557,0.185C22.467,16.469,22.604,16.26,22.391,16.473z
					 M22.391,14.991v0.186c-0.121-0.062-0.246-0.124-0.369-0.186c-0.111,0.295-0.17,0.438-0.184,0.924h-0.557V15.73h-0.186
					c0.062-0.186,0.123-0.37,0.186-0.554c0.369-0.113,0.16,0.024,0.371-0.186h0.186v-0.557h-0.557V14.25h-0.186
					c0.062-0.186,0.123-0.369,0.186-0.555c0.186,0.062,0.371,0.122,0.557,0.186v0.369c0.246,0.123,0.492,0.247,0.74,0.369
					C22.467,14.989,22.604,14.78,22.391,14.991z M22.764,15.177c0.184,0.062,0.367,0.121,0.555,0.184
					c-0.111,0.37,0.025,0.159-0.188,0.37v0.185c-0.342,0.118-0.262-0.107-0.367-0.185h-0.186
					C22.639,15.545,22.702,15.36,22.764,15.177z M22.764,17.396v-0.741c0.184,0.062,0.367,0.124,0.555,0.186
					C23.176,17.344,23.274,17.262,22.764,17.396z M23.319,18.321c-0.111,0.37,0.025,0.16-0.188,0.37
					c-0.156,0.209,0.027,0.029-0.184,0.187c-0.109-0.283-0.148-0.302-0.184-0.741C22.948,18.198,23.131,18.26,23.319,18.321z
					 M22.764,19.617c0.184,0.062,0.367,0.123,0.555,0.185c-0.143,0.504-0.045,0.421-0.555,0.557V19.617z M23.874,19.432v0.186
					c-0.344,0.118-0.264-0.107-0.371-0.186h-0.184c0.061-0.185,0.121-0.369,0.184-0.554c0.186,0.06,0.371,0.122,0.557,0.185
					C23.946,19.432,24.084,19.221,23.874,19.432z M23.874,17.951v0.186c-0.344,0.116-0.264-0.108-0.371-0.186h-0.184
					c0.061-0.185,0.121-0.368,0.184-0.555c0.186,0.062,0.371,0.124,0.557,0.187C23.946,17.95,24.084,17.741,23.874,17.951z
					 M23.874,16.473c-0.209,0.206,0.002,0.077-0.371,0.183v-0.183h-0.184c0.061-0.187,0.121-0.373,0.184-0.558
					c0.186,0.063,0.371,0.124,0.557,0.185C23.946,16.469,24.084,16.26,23.874,16.473z M24.799,16.655v0.555h-0.186
					c-0.211,0.208,0.002,0.08-0.371,0.187V17.21c-0.207-0.209-0.078,0.002-0.184-0.369C24.34,16.733,24.36,16.693,24.799,16.655z
					 M24.243,19.617c0.184,0.062,0.371,0.123,0.557,0.185c-0.143,0.504-0.043,0.421-0.557,0.557V19.617z M24.243,18.878v-0.741
					c0.369,0.11,0.16-0.026,0.371,0.185h0.186v0.557H24.243z M24.799,9.438c-0.111,0.369,0.025,0.157-0.186,0.369v0.186
					c-0.344,0.117-0.264-0.107-0.371-0.186c-0.207-0.158-0.029,0.026-0.184-0.185C24.34,9.515,24.36,9.475,24.799,9.438z
					 M24.243,8.328V7.772h0.557v0.556H24.243z M24.243,4.996h0.557v0.371h-0.557V4.996z M23.688,5.922
					c0.158-0.208-0.023-0.028,0.186-0.186v0.37c-0.369-0.11-0.16,0.025-0.371-0.185H23.688z M23.874,7.218h0.186
					c0.061-0.31,0.123-0.617,0.184-0.927c0.184,0.062,0.371,0.124,0.557,0.187v0.555h-0.557v0.186h-0.184v0.555h-0.557V7.588h-0.184
					c0.061-0.187,0.121-0.37,0.184-0.556C23.874,7.144,23.663,7.006,23.874,7.218z M22.764,6.291h0.555v0.556
					c-0.188,0.062-0.371,0.124-0.555,0.186V6.291z M23.319,7.959c-0.111,0.369,0.025,0.158-0.188,0.369v0.185
					C22.79,8.63,22.87,8.405,22.764,8.328h-0.186c0.061-0.186,0.123-0.369,0.186-0.556C22.948,7.835,23.131,7.896,23.319,7.959z
					 M22.022,7.032c0.186,0.062,0.369,0.123,0.557,0.186c-0.111,0.368,0.025,0.159-0.188,0.37v0.185
					c-0.342,0.117-0.26-0.106-0.369-0.185h-0.184C21.899,7.401,21.961,7.218,22.022,7.032z M21.282,7.772
					c0.186,0.062,0.371,0.123,0.557,0.187c-0.111,0.369,0.025,0.158-0.186,0.369v0.185c-0.344,0.117-0.264-0.107-0.371-0.185h-0.186
					C21.159,8.143,21.219,7.959,21.282,7.772z M21.096,8.697c-0.109,0.37,0.025,0.161-0.184,0.372v0.185
					c-0.342,0.116-0.264-0.11-0.371-0.185h-0.184c0.062-0.187,0.123-0.372,0.184-0.557C20.727,8.574,20.913,8.636,21.096,8.697z
					 M19.987,7.772c0.123,0.062,0.246,0.123,0.371,0.187c-0.113,0.369,0.025,0.158-0.186,0.369c-0.158,0.208,0.023,0.03-0.186,0.185
					C19.815,7.949,19.801,8.342,19.987,7.772z M20.358,9.438c-0.113,0.369,0.025,0.157-0.186,0.369
					c-0.158,0.21,0.023,0.029-0.186,0.186c-0.109-0.282-0.148-0.302-0.186-0.739C19.987,9.313,20.172,9.376,20.358,9.438z
					 M20.358,10.918c-0.113,0.37,0.025,0.16-0.186,0.371c-0.158,0.209,0.023,0.028-0.186,0.185c-0.172-0.562-0.186-0.171,0-0.74
					C20.11,10.796,20.233,10.857,20.358,10.918z M20.358,12.399c-0.113,0.37,0.025,0.159-0.186,0.37
					c-0.158,0.209,0.023,0.029-0.186,0.186c-0.109-0.283-0.148-0.301-0.186-0.742C19.987,12.275,20.172,12.339,20.358,12.399z
					 M20.358,13.881c-0.113,0.369,0.025,0.158-0.186,0.369c-0.158,0.208,0.023,0.029-0.186,0.185c-0.172-0.563-0.186-0.171,0-0.739
					C20.11,13.757,20.233,13.817,20.358,13.881z M19.987,15.36c0.158-0.209-0.023-0.028,0.186-0.184
					c0.061,0.184,0.123,0.368,0.186,0.554h-0.557C19.915,15.36,19.776,15.57,19.987,15.36z M19.987,16.841
					c0.158-0.208-0.023-0.029,0.186-0.186c0.061,0.186,0.123,0.371,0.186,0.555h-0.557C19.915,16.841,19.776,17.051,19.987,16.841z
					 M19.987,20.172h-0.186c-0.115-0.343,0.107-0.262,0.186-0.37c0.158-0.209-0.023-0.029,0.186-0.185
					c0.24,0.516,0.404,0.691,0.924,0.925c-0.109,0.369,0.025,0.159-0.184,0.371v0.185h-0.555v0.739h-0.557v-0.184h-0.186v-0.556
					h-0.555v-0.739h0.371v0.184c0.457,0.393,0.086,0.441,0.926,0.556v-0.739C19.987,20.245,20.198,20.384,19.987,20.172z
					 M18.32,17.396v-0.741c0.185,0.062,0.371,0.124,0.556,0.186C18.734,17.344,18.833,17.262,18.32,17.396z M18.876,18.321
					c-0.142,0.504-0.043,0.421-0.556,0.557v-0.557h0.185c0.159-0.207-0.023-0.028,0.187-0.185
					C18.85,18.345,18.666,18.167,18.876,18.321z M18.876,12.399c-0.111,0.37,0.027,0.159-0.185,0.37
					c-0.158,0.209,0.023,0.029-0.187,0.186c-0.107-0.283-0.147-0.301-0.185-0.742C18.505,12.275,18.691,12.339,18.876,12.399z
					 M18.505,10.733c0.124,0.062,0.248,0.124,0.371,0.185c-0.111,0.37,0.027,0.16-0.185,0.371c-0.158,0.209,0.023,0.028-0.187,0.185
					C18.333,10.911,18.323,11.303,18.505,10.733z M18.505,13.881c0.159-0.21-0.023-0.03,0.187-0.186
					c0.158,0.208-0.025,0.027,0.185,0.186c-0.142,0.503-0.043,0.421-0.556,0.554v-0.554H18.505z M18.876,15.36v0.37H18.32v-0.37
					H18.876z M18.876,17.767c0.283-0.109,0.3-0.148,0.74-0.184v0.368h-0.74V17.767z M19.616,11.658v0.37h-0.555v-0.37H19.616z
					 M19.247,9.993c0.123,0.062,0.246,0.124,0.369,0.186c-0.111,0.369,0.027,0.159-0.184,0.371
					c-0.158,0.207,0.025,0.027-0.186,0.184C19.073,10.169,19.061,10.562,19.247,9.993z M19.247,13.14
					c0.158-0.21-0.025-0.029,0.186-0.185c0.061,0.185,0.123,0.368,0.184,0.555h-0.555C19.172,13.14,19.036,13.351,19.247,13.14z
					 M19.247,14.619c0.158-0.208-0.025-0.027,0.186-0.185c0.061,0.185,0.123,0.37,0.184,0.557h-0.555
					C19.172,14.62,19.036,14.83,19.247,14.619z M19.247,16.1c0.158-0.207-0.025-0.027,0.186-0.185
					c0.061,0.185,0.123,0.371,0.184,0.558h-0.555C19.172,16.102,19.036,16.311,19.247,16.1z M19.616,19.062
					c-0.111,0.369,0.027,0.158-0.184,0.369c-0.158,0.209,0.025,0.029-0.186,0.186c-0.109-0.283-0.146-0.302-0.186-0.739
					C19.247,18.938,19.432,19,19.616,19.062z M19.247,7.588h0.369v0.371h-0.369V7.588z M18.691,6.662
					c0.123,0.062,0.247,0.122,0.37,0.185c-0.113,0.371,0.025,0.159-0.185,0.371c-0.158,0.208,0.025,0.029-0.185,0.184
					C18.519,6.839,18.507,7.231,18.691,6.662z M19.061,8.697h0.555c-0.139,0.504-0.043,0.422-0.555,0.557V8.697
					c-0.123,0.062-0.247,0.124-0.37,0.186c-0.261-0.027,0.022-0.024-0.187-0.186H18.32c0.062-0.185,0.124-0.369,0.185-0.555
					C19.008,8.283,18.926,8.186,19.061,8.697z M18.32,6.106c-0.111,0.37,0.026,0.16-0.184,0.371v0.185
					c-0.344,0.117-0.264-0.108-0.371-0.185h-0.185c0.062-0.187,0.123-0.371,0.185-0.556C17.951,5.983,18.137,6.046,18.32,6.106z
					 M17.395,5.736c-0.209,0.207,0.003,0.08-0.368,0.186V5.736h-0.186c0.062-0.184,0.123-0.369,0.186-0.556
					c0.184,0.062,0.368,0.123,0.555,0.187C17.47,5.736,17.605,5.526,17.395,5.736z M17.766,7.588
					c0.211-0.208-0.001-0.079,0.371-0.187c0.107,0.282,0.147,0.301,0.184,0.741h-0.555V7.959c-0.207-0.212-0.078,0.002-0.185-0.371
					H17.766z M18.137,9.438c0.001,0.195-0.162,0.303-0.371,0.185V9.438c-0.207-0.211-0.078,0.001-0.185-0.369h0.185
					c0.211-0.208-0.001-0.08,0.371-0.187c0.062,0.187,0.121,0.371,0.184,0.556h0.556v0.185c-0.185,0.062-0.371,0.124-0.556,0.185
					V9.438H18.137z M18.691,20.172c-0.158,0.208,0.023,0.028-0.187,0.187c-0.107-0.282-0.147-0.301-0.185-0.741
					c0.185,0.062,0.371,0.123,0.556,0.185C18.765,20.171,18.903,19.961,18.691,20.172z M18.691,22.948
					c-0.158,0.208,0.023,0.029-0.187,0.184c-0.061-0.184-0.123-0.368-0.185-0.555h0.556C18.765,22.948,18.903,22.736,18.691,22.948z
					 M19.432,23.873h-0.186v-0.185h-0.186c0.062-0.123,0.125-0.247,0.186-0.37C19.508,23.537,19.737,23.527,19.432,23.873z
					 M20.172,23.132c-0.158,0.209,0.023,0.031-0.186,0.187c-0.109-0.283-0.148-0.302-0.186-0.741h-0.74v-0.185
					c-0.207-0.21-0.078,0.002-0.185-0.369h0.185c0.211-0.207-0.002-0.08,0.371-0.187c0.24,0.518,0.402,0.692,0.926,0.927
					C20.245,23.132,20.383,22.922,20.172,23.132z M20.542,23.873v-0.555c0.504,0.143,0.422,0.044,0.555,0.555H20.542z
					 M20.542,22.577c-0.061-0.185-0.121-0.368-0.184-0.554c0.184-0.062,0.369-0.123,0.555-0.187
					c0.158,0.209-0.025,0.029,0.184,0.187C20.956,22.526,21.053,22.443,20.542,22.577z M21.096,21.653
					c0.062-0.187,0.123-0.37,0.186-0.556c0.186,0.062,0.371,0.123,0.557,0.186c-0.111,0.369,0.025,0.158-0.186,0.37v0.184
					c-0.344,0.118-0.264-0.106-0.371-0.184H21.096z M21.282,24.613c0.111-0.368-0.025-0.159,0.186-0.37
					c0.158-0.208-0.025-0.027,0.186-0.185c0.062,0.185,0.123,0.37,0.186,0.555H21.282z M21.282,23.318v-0.741
					c0.186,0.062,0.371,0.124,0.557,0.187C21.696,23.266,21.793,23.184,21.282,23.318z M22.579,25.169h-0.188v0.185h-0.184
					c-0.062-0.124-0.123-0.246-0.186-0.37h0.557V25.169z M22.391,23.873c-0.156,0.208,0.025,0.03-0.184,0.186
					c-0.109-0.282-0.148-0.301-0.186-0.74c0.186,0.062,0.369,0.123,0.557,0.186C22.467,23.872,22.604,23.663,22.391,23.873z
					 M22.391,22.393v0.185c-0.342,0.119-0.26-0.107-0.369-0.185h-0.184c0.061-0.184,0.123-0.369,0.184-0.556
					c0.186,0.063,0.369,0.125,0.557,0.187C22.467,22.392,22.604,22.183,22.391,22.393z M22.764,21.098
					c0.184,0.062,0.367,0.123,0.555,0.186c-0.111,0.369,0.025,0.158-0.188,0.37v0.184c-0.342,0.118-0.262-0.106-0.367-0.184h-0.186
					C22.639,21.467,22.702,21.283,22.764,21.098z M22.764,24.613v-0.555c0.502,0.142,0.42,0.044,0.555,0.555H22.764z M22.764,23.318
					v-0.741c0.184,0.062,0.367,0.124,0.555,0.187C23.176,23.266,23.274,23.184,22.764,23.318z M24.059,25.169
					c-0.186,0.061-0.371,0.124-0.557,0.185c0.113-0.368-0.025-0.158,0.186-0.37c0.158-0.209-0.023-0.028,0.186-0.184
					c0.158,0.209-0.025,0.026,0.186,0.184V25.169z M23.874,23.873c-0.158,0.208,0.025,0.03-0.186,0.186
					c-0.107-0.282-0.148-0.301-0.186-0.74c0.186,0.062,0.371,0.123,0.557,0.186C23.946,23.872,24.084,23.663,23.874,23.873z
					 M23.874,22.393v0.185c-0.344,0.119-0.264-0.107-0.371-0.185h-0.184c0.061-0.184,0.121-0.369,0.184-0.556
					c0.186,0.063,0.371,0.125,0.557,0.187C23.946,22.392,24.084,22.183,23.874,22.393z M24.243,21.098
					c0.184,0.062,0.371,0.123,0.557,0.186c-0.111,0.369,0.025,0.158-0.186,0.37v0.184c-0.344,0.118-0.264-0.106-0.371-0.184h-0.184
					C24.12,21.467,24.182,21.283,24.243,21.098z M24.614,24.613c-0.158,0.209,0.023,0.029-0.188,0.187
					c-0.105-0.283-0.146-0.302-0.184-0.741c0.184,0.061,0.371,0.123,0.557,0.185C24.688,24.613,24.825,24.402,24.614,24.613z
					 M24.243,23.318v-0.741c0.184,0.062,0.371,0.124,0.557,0.187C24.657,23.266,24.756,23.184,24.243,23.318z M24.983,25.354
					c0.111-0.368-0.023-0.158,0.188-0.37c0.156-0.209-0.027-0.028,0.184-0.184c0.061,0.184,0.123,0.369,0.184,0.554H24.983z
					 M25.354,23.873c-0.158,0.208,0.025,0.03-0.184,0.186c-0.109-0.282-0.148-0.301-0.188-0.74c0.188,0.062,0.371,0.123,0.555,0.186
					C25.426,23.872,25.565,23.663,25.354,23.873z M25.354,22.393c-0.211,0.209,0.002,0.079-0.371,0.185v-0.185h-0.184
					c0.061-0.184,0.123-0.369,0.184-0.556c0.188,0.063,0.371,0.125,0.555,0.187C25.426,22.392,25.565,22.183,25.354,22.393z
					 M25.538,21.283h0.186c0.209-0.208-0.002-0.079,0.371-0.186c0.107,0.282,0.148,0.301,0.184,0.739h-0.555v-0.184
					C25.516,21.441,25.645,21.655,25.538,21.283z M25.723,24.613v-0.555c0.504,0.142,0.422,0.044,0.555,0.555H25.723z
					 M25.723,23.318v-0.741c0.186,0.062,0.371,0.124,0.555,0.187C26.139,23.266,26.235,23.184,25.723,23.318z M26.465,25.354
					c0.109-0.368-0.025-0.158,0.184-0.37c0.158-0.209-0.025-0.028,0.184-0.184c0.062,0.184,0.125,0.369,0.186,0.554H26.465z
					 M26.833,23.873c-0.156,0.208,0.027,0.03-0.184,0.186c-0.107-0.282-0.146-0.301-0.184-0.74c0.184,0.062,0.367,0.123,0.553,0.186
					C26.909,23.872,27.043,23.663,26.833,23.873z M26.833,22.393c-0.209,0.209,0.006,0.079-0.367,0.185v-0.185h-0.188
					c0.062-0.184,0.125-0.369,0.188-0.556c0.184,0.063,0.367,0.125,0.553,0.187C26.909,22.392,27.043,22.183,26.833,22.393z
					 M27.575,24.613c-0.158,0.209,0.023,0.029-0.186,0.187c-0.107-0.283-0.148-0.302-0.184-0.741
					c0.184,0.061,0.369,0.123,0.555,0.185C27.649,24.613,27.786,24.402,27.575,24.613z M27.206,23.318v-0.741
					c0.184,0.062,0.369,0.124,0.555,0.187C27.62,23.266,27.715,23.184,27.206,23.318z M27.76,21.653h-0.186
					c-0.211,0.207,0.002,0.079-0.369,0.184v-0.184c-0.207-0.212-0.08,0.002-0.188-0.37c0.283-0.109,0.303-0.149,0.742-0.186V21.653z
					 M27.76,20.542h0.186c0.209-0.207-0.002-0.079,0.367-0.184c0.109,0.282,0.148,0.302,0.188,0.739h-0.555v-0.185
					C27.739,20.702,27.866,20.915,27.76,20.542z M28.313,25.354c-0.156,0.209,0.027,0.029-0.184,0.186
					c-0.109-0.283-0.146-0.301-0.184-0.739c0.184,0.062,0.367,0.123,0.555,0.184C28.389,25.354,28.524,25.144,28.313,25.354z
					 M28.313,23.873c-0.156,0.208,0.027,0.03-0.184,0.186c-0.109-0.282-0.146-0.301-0.184-0.74c0.184,0.062,0.367,0.123,0.555,0.186
					C28.389,23.872,28.524,23.663,28.313,23.873z M27.946,22.577v-0.74c0.184,0.063,0.367,0.125,0.555,0.187
					C28.358,22.526,28.456,22.443,27.946,22.577z M28.686,21.098c0.184,0.062,0.369,0.123,0.553,0.186
					c-0.109,0.369,0.027,0.158-0.184,0.37v0.184H28.87v-0.184H28.5C28.561,21.467,28.624,21.283,28.686,21.098z M29.239,22.764
					c-0.109,0.368,0.027,0.158-0.184,0.368c-0.158,0.209,0.025,0.031-0.186,0.187c-0.107-0.283-0.148-0.302-0.184-0.741
					C28.87,22.639,29.055,22.701,29.239,22.764z M28.686,24.8v-0.741c0.184,0.061,0.369,0.123,0.553,0.185
					C29.1,24.748,29.196,24.665,28.686,24.8z M29.795,23.873v0.186c-0.344,0.117-0.264-0.108-0.371-0.186h-0.186
					c0.062-0.185,0.125-0.369,0.186-0.555c0.186,0.062,0.371,0.123,0.557,0.186C29.868,23.872,30.006,23.663,29.795,23.873z
					 M29.424,22.577v-0.74c0.186,0.063,0.371,0.125,0.557,0.187C29.838,22.526,29.936,22.443,29.424,22.577z M29.795,20.913
					c-0.209,0.207,0.002,0.078-0.371,0.185v-0.185h-0.186c0.062-0.187,0.125-0.371,0.186-0.555c0.186,0.061,0.371,0.123,0.557,0.184
					C29.868,20.911,30.006,20.701,29.795,20.913z M30.167,23.318v-0.741c0.184,0.062,0.369,0.124,0.555,0.187
					C30.581,23.266,30.678,23.184,30.167,23.318z M30.536,21.653c-0.156,0.207,0.025,0.029-0.186,0.184
					c-0.172-0.562-0.184-0.169,0-0.739l0.371,0.186C30.608,21.652,30.745,21.441,30.536,21.653z M30.536,20.172
					c-0.209,0.207,0.002,0.079-0.369,0.187v-0.187h-0.186c0.061-0.185,0.123-0.37,0.186-0.555c0.184,0.062,0.369,0.123,0.555,0.185
					C30.608,20.171,30.745,19.961,30.536,20.172z M30.721,19.432c0.111-0.369-0.027-0.159,0.184-0.369
					c0.211-0.209-0.002-0.078,0.373-0.185c0.061,0.185,0.121,0.369,0.184,0.554H30.721z M30.905,20.542h0.557v0.371h-0.557V20.542z
					 M31.278,22.393c-0.158,0.21,0.023,0.029-0.186,0.185c-0.174-0.562-0.186-0.171,0-0.74c0.123,0.063,0.246,0.125,0.369,0.187
					C31.348,22.392,31.487,22.183,31.278,22.393z M32.016,23.132c-0.209,0.209,0.002,0.08-0.371,0.187v-0.187h-0.184
					c0.062-0.184,0.123-0.368,0.184-0.555c0.186,0.062,0.371,0.124,0.555,0.187C32.09,23.132,32.227,22.922,32.016,23.132z
					 M10.362,2.776v0.185h0.557V2.404h-0.186V2.22c-0.186,0.062-0.371,0.124-0.556,0.185C10.288,2.775,10.153,2.565,10.362,2.776z
					 M9.438,2.404H8.882v0.557h0.557V2.404z M12.399,2.404h-0.74v0.557h0.74V2.404z M13.694,2.776h0.185
					c0.117-0.104-0.513-0.351-0.555-0.372c-0.111,0.371,0.026,0.161-0.184,0.372v0.185h0.554V2.776z M7.957,2.591H7.4v0.186h0.557
					V2.591z M7.032,3.7C7.141,3.419,7.18,3.399,7.218,2.961H6.661c-0.062,0.185-0.123,0.37-0.184,0.554h0.184
					C6.871,3.723,6.659,3.595,7.032,3.7z M8.143,3.515V3.7h0.554V2.961H8.143C7.983,3.17,8.167,2.99,7.957,3.146
					C8.067,3.515,7.932,3.305,8.143,3.515z M9.623,3.515V3.7h0.555V2.961H9.623C9.465,3.17,9.648,2.99,9.438,3.146
					C9.549,3.515,9.413,3.305,9.623,3.515z M11.659,3.7V2.961h-0.74V3.7H11.659z M12.583,3.515V3.7h0.558V2.961h-0.741v0.554H12.583
					z M13.879,3.146c0.111,0.369-0.025,0.159,0.186,0.369V3.7h0.554V3.146h-0.183V2.961C14.249,3.023,14.064,3.085,13.879,3.146z
					 M24.799,3.515v0.558c0,0,0.711-0.012,0.371-0.187h-0.188V3.515H24.799z M5.922,4.257v0.185h0.556V3.7H5.922
					C5.763,3.91,5.946,3.73,5.736,3.886C5.848,4.256,5.711,4.047,5.922,4.257z M7.4,4.257c0.213,0.206-0.001,0.078,0.372,0.185
					C7.881,4.159,7.92,4.141,7.957,3.7H7.4C7.243,3.91,7.428,3.73,7.218,3.886C7.328,4.256,7.19,4.047,7.4,4.257z M8.882,4.257
					c0.21,0.206-0.001,0.078,0.371,0.185C9.361,4.159,9.4,4.141,9.438,3.7H8.882C8.725,3.91,8.907,3.73,8.696,3.886
					C8.809,4.256,8.672,4.047,8.882,4.257z M10.919,3.7h-0.557c-0.157,0.21,0.025,0.03-0.185,0.186
					c0.11,0.37-0.024,0.161,0.185,0.371v0.185h0.557v0.739h-0.557c-0.196-0.484,0.066-0.577-0.739-0.739
					c-0.075,0.76-0.241,0.579,0.555,0.926c-0.146,0.532-0.295,0.547-0.739,0.739c0.11,0.37-0.025,0.16,0.185,0.371v0.185h0.555
					v-0.74h0.741c0.062-0.247,0.122-0.492,0.185-0.741h0.556V4.441c-0.248-0.062-0.494-0.122-0.74-0.185V3.7z M12.399,4.441V3.7
					h-0.74v0.741H12.399z M13.324,4.257v0.185h0.555V3.7h-0.738v0.557H13.324z M14.618,3.886c0.113,0.37-0.024,0.161,0.187,0.371
					v0.185h0.555V3.7h-0.555C14.646,3.91,14.83,3.73,14.618,3.886z M4.627,4.257c0.157,0.208-0.025,0.028,0.184,0.185
					c0.063-0.185,0.125-0.369,0.185-0.556C4.627,3.998,4.838,3.86,4.627,4.072H4.44C4.599,4.281,4.415,4.099,4.627,4.257z
					 M5.736,4.441H5.181v0.185H4.995v0.555h0.741V4.441z M6.661,4.996c0.21,0.207-0.002,0.08,0.371,0.185V4.996
					c0.207-0.209,0.079,0.002,0.186-0.37C7.032,4.564,6.847,4.502,6.661,4.441C6.599,4.564,6.538,4.688,6.478,4.811
					C6.505,5.072,6.502,4.789,6.661,4.996z M9.438,5.181H8.882V4.996H8.696C8.76,4.811,8.82,4.626,8.882,4.441H7.957v0.739h0.556
					v0.187h0.184v0.555h0.927C9.562,5.675,9.5,5.43,9.438,5.181z M12.399,4.626c0.111,0.37-0.026,0.159,0.184,0.37v0.185h0.558
					V4.441h-0.558C12.427,4.648,12.608,4.471,12.399,4.626z M14.064,4.441c-0.158,0.207,0.025,0.029-0.186,0.185
					c0.111,0.37-0.025,0.159,0.186,0.37v0.185h0.554V4.441H14.064z M15.546,4.441c-0.158,0.207,0.024,0.029-0.187,0.185
					c0.111,0.37-0.024,0.159,0.187,0.37v0.185H16.1V4.441H15.546z M4.256,4.626H3.699v0.555C4.205,5.04,4.122,5.139,4.256,4.626z
					 M2.96,5.181v0.741h0.556V5.367C3.332,5.304,3.146,5.243,2.96,5.181z M4.995,5.181H4.256v0.741h0.739V5.181z M5.922,5.736v0.186
					h0.556V5.181H5.736v0.556H5.922z M7.218,5.736H7.4v0.186h0.557V5.181H7.218V5.736z M11.845,5.736v0.186h0.555V5.181h-0.74v0.556
					H11.845z M13.141,5.367c0.11,0.369-0.028,0.159,0.184,0.369c0.211,0.207-0.003,0.08,0.37,0.186
					c0.107-0.282,0.147-0.301,0.185-0.741h-0.555C13.166,5.392,13.35,5.209,13.141,5.367z M14.805,5.736v0.186h0.555V5.181h-0.741
					v0.556H14.805z M26.094,6.291V6.106h0.184c-0.119-0.437-0.051-0.348-0.369-0.554C25.668,6.046,25.364,6.069,26.094,6.291z
					 M27.76,5.736h-0.555v0.555C27.708,6.15,27.625,6.249,27.76,5.736z M2.591,6.106C2.433,5.897,2.616,6.078,2.405,5.922
					C2.247,6.13,2.43,5.951,2.221,6.106c0.14,0.505,0.043,0.421,0.554,0.556V6.106H2.591z M4.07,6.478h0.186V5.922h-0.74v0.74H4.07
					V6.478z M5.181,6.478v0.185h0.556v-0.74H4.995v0.556H5.181z M7.218,5.922H6.661C6.502,6.13,6.686,5.951,6.478,6.106
					c0.111,0.37-0.027,0.16,0.184,0.371v0.185h0.557V5.922z M8.143,5.922C7.983,6.13,8.167,5.951,7.957,6.106
					c0.11,0.37-0.025,0.16,0.186,0.371v0.185h0.554v-0.74H8.143z M10.919,6.291c0.029,0.26,0.025-0.021,0.185,0.187
					c0.21,0.207-0.002,0.079,0.369,0.185V6.478c0.207-0.209,0.08,0.002,0.187-0.371c-0.187-0.061-0.371-0.123-0.556-0.185
					C11.041,6.046,10.98,6.17,10.919,6.291z M12.583,6.478c0.212,0.207-0.001,0.079,0.371,0.185c0.108-0.281,0.148-0.3,0.187-0.74
					h-0.558c-0.156,0.208,0.025,0.029-0.184,0.185C12.511,6.477,12.373,6.267,12.583,6.478z M14.618,5.922h-0.554
					c-0.158,0.208,0.025,0.029-0.186,0.185c0.111,0.37-0.025,0.16,0.186,0.371v0.185h0.554V5.922z M15.546,5.922
					c-0.158,0.208,0.024,0.029-0.187,0.185c0.111,0.37-0.024,0.16,0.187,0.371v0.185H16.1v-0.74H15.546z M26.465,6.291
					C26.307,6.5,26.491,6.32,26.278,6.478c0.113,0.369-0.023,0.158,0.188,0.369v0.186h0.553V6.291H26.465z M27.946,6.847
					c0.209,0.207-0.002,0.08,0.367,0.186V6.847c0.209-0.21,0.08,0.003,0.188-0.369c-0.188-0.062-0.371-0.124-0.555-0.187
					c-0.062,0.124-0.125,0.249-0.186,0.371C27.79,6.923,27.788,6.639,27.946,6.847z M29.795,7.032V6.847
					c0.207-0.21,0.08,0.003,0.186-0.369c-0.186-0.062-0.371-0.124-0.557-0.187c-0.061,0.187-0.123,0.371-0.186,0.556h0.186
					C29.635,7.054,29.424,6.927,29.795,7.032z M1.664,7.401h0.187V7.218h0.185c-0.12-0.438-0.052-0.347-0.371-0.556
					c-0.062,0.185-0.123,0.37-0.185,0.556h0.185V7.401z M2.774,6.662v0.739h0.741V6.662H2.774z M6.478,7.401V6.662H5.736v0.739
					H6.478z M7.4,6.662C7.243,6.871,7.428,6.69,7.218,6.847C7.328,7.218,7.19,7.006,7.4,7.218v0.184h0.557V6.662H7.4z M9.438,6.662
					H8.696v0.739h0.742V6.662z M10.919,7.401V6.662h-0.557c-0.157,0.209,0.025,0.028-0.185,0.185
					c0.11,0.371-0.024,0.159,0.185,0.371v0.184H10.919z M11.845,7.218c0.209,0.207-0.004,0.078,0.368,0.184
					c0.109-0.282,0.149-0.301,0.187-0.739h-0.555c-0.159,0.209,0.023,0.028-0.186,0.185C11.77,7.218,11.634,7.006,11.845,7.218z
					 M13.879,7.401V6.662h-0.555c-0.158,0.209,0.025,0.028-0.184,0.185c0.11,0.371-0.028,0.159,0.184,0.371v0.184H13.879z
					 M15.359,6.662h-0.555c-0.158,0.209,0.025,0.028-0.187,0.185c0.113,0.371-0.024,0.159,0.187,0.371v0.184h0.555V6.662z
					 M16.1,6.662v0.739h0.741V6.662H16.1z M27.76,7.032h-0.742v0.74h0.742V7.032z M28.686,7.588
					c0.209,0.206-0.002,0.078,0.369,0.185V7.588c0.207-0.211,0.078,0.002,0.184-0.37c-0.184-0.062-0.369-0.124-0.553-0.186
					c-0.062,0.123-0.125,0.247-0.186,0.369C28.528,7.662,28.526,7.38,28.686,7.588z M30.167,7.588
					c0.211,0.206-0.002,0.078,0.369,0.185V7.588c0.207-0.211,0.078,0.002,0.186-0.37c-0.186-0.062-0.371-0.124-0.555-0.186
					c-0.062,0.186-0.125,0.369-0.186,0.556H30.167z M31.645,7.588v0.185H32.2V7.401c-0.246-0.061-0.492-0.122-0.738-0.184
					C31.573,7.586,31.434,7.377,31.645,7.588z M2.035,7.959h0.186v0.184h0.554V7.401H2.035V7.959z M7.218,8.143V7.401H6.661
					c-0.159,0.21,0.024,0.029-0.184,0.187C6.589,7.957,6.45,7.746,6.661,7.959v0.184H7.218z M8.696,8.143V7.401H7.957v0.558h0.186
					v0.184H8.696z M9.623,7.959c0.21,0.206-0.001,0.078,0.369,0.184c0.107-0.281,0.147-0.301,0.186-0.741H9.623
					c-0.158,0.21,0.025,0.029-0.185,0.187C9.549,7.957,9.413,7.746,9.623,7.959z M11.104,7.959c0.21,0.206-0.002,0.078,0.369,0.184
					c0.108-0.281,0.148-0.301,0.187-0.741h-0.556c-0.159,0.21,0.025,0.029-0.185,0.187C11.029,7.957,10.893,7.746,11.104,7.959z
					 M13.141,7.401h-0.558c-0.156,0.21,0.025,0.029-0.184,0.187c0.111,0.369-0.026,0.158,0.184,0.371v0.184h0.558V7.401z
					 M14.064,7.959c0.21,0.206-0.002,0.078,0.371,0.184c0.108-0.281,0.146-0.301,0.183-0.741h-0.554
					c-0.158,0.21,0.025,0.029-0.186,0.187C13.99,7.957,13.854,7.746,14.064,7.959z M15.359,7.588
					c0.111,0.369-0.024,0.158,0.187,0.371v0.184H16.1V7.401h-0.554C15.388,7.611,15.57,7.431,15.359,7.588z M1.11,7.588v0.371h0.184
					C1.183,7.588,1.32,7.799,1.11,7.588z M30.905,8.328c0.211,0.207-0.002,0.079,0.373,0.185V8.328
					c0.207-0.211,0.078,0.001,0.184-0.369c-0.184-0.063-0.369-0.124-0.557-0.187c-0.061,0.123-0.123,0.246-0.184,0.37
					C30.75,8.404,30.747,8.119,30.905,8.328z M32.387,8.328c0.209,0.207-0.002,0.079,0.369,0.185V8.328
					c0.207-0.211,0.078,0.001,0.184-0.369c-0.184-0.063-0.367-0.124-0.553-0.187c-0.062,0.123-0.125,0.246-0.188,0.37
					C32.229,8.404,32.227,8.119,32.387,8.328z M1.479,8.697v0.186h0.556v-0.74H1.479v0.186H1.294
					C1.406,8.696,1.269,8.487,1.479,8.697z M2.774,8.328C2.888,8.696,2.75,8.487,2.96,8.697c0.21,0.209-0.002,0.079,0.372,0.186
					C3.438,8.6,3.479,8.581,3.516,8.143H2.96C2.803,8.351,2.984,8.172,2.774,8.328z M7.218,9.623V9.069H7.4V8.883h0.557v-0.74H7.4
					v0.186H7.218v0.555h-0.74v0.74H7.218z M9.438,8.143H8.882v0.186H8.696v0.555h0.742V8.143z M10.919,8.143h-0.741v0.74h0.741
					V8.143z M11.845,8.143c-0.159,0.208,0.023,0.029-0.186,0.186c0.11,0.368-0.025,0.159,0.186,0.369v0.186h0.555v-0.74H11.845z
					 M13.324,8.697c0.211,0.209-0.003,0.079,0.37,0.186c0.107-0.283,0.147-0.302,0.185-0.74h-0.555
					c-0.158,0.208,0.025,0.029-0.184,0.186C13.251,8.696,13.112,8.487,13.324,8.697z M14.618,8.697h0.187
					c0.209,0.209-0.002,0.079,0.37,0.186c0.108-0.283,0.148-0.302,0.185-0.74h-0.741V8.697z M31.461,9.069h0.184
					c0.211,0.207-0.002,0.076,0.371,0.185V9.069c0.207-0.211,0.078,0,0.184-0.372c-0.184-0.062-0.369-0.123-0.555-0.185
					C31.584,8.697,31.524,8.883,31.461,9.069z M33.127,9.069c0.209,0.207-0.002,0.076,0.369,0.185
					c0.109-0.283,0.148-0.301,0.186-0.741h-0.555c-0.062,0.185-0.125,0.37-0.188,0.557H33.127z M1.294,9.069
					C1.11,9.007,0.925,8.945,0.74,8.883v0.556C0.925,9.5,1.11,9.562,1.294,9.623V9.069z M2.035,9.069
					c0.11,0.367-0.025,0.158,0.186,0.369c0.209,0.207-0.002,0.079,0.37,0.185c0.108-0.282,0.146-0.301,0.184-0.74H2.221
					C2.062,9.092,2.245,8.912,2.035,9.069z M4.07,9.069c-0.21-0.208,0.002-0.08-0.371-0.187C3.542,9.092,3.725,8.912,3.516,9.069
					c0.111,0.367-0.026,0.158,0.184,0.369v0.185h0.557V9.069H4.07z M8.143,8.883C7.983,9.092,8.167,8.912,7.957,9.069
					c0.11,0.367-0.025,0.158,0.186,0.369v0.185h0.554v-0.74H8.143z M10.178,9.623v-0.74H9.438v0.74H10.178z M11.659,9.623v-0.74
					h-0.74v0.74H11.659z M12.583,9.623V9.438c0.186,0.062,0.371,0.124,0.558,0.185V9.069h-0.187V8.883h-0.555
					C12.401,8.953,12.359,9.895,12.583,9.623z M14.064,8.883c-0.158,0.209,0.025,0.029-0.186,0.187
					c0.111,0.367-0.025,0.158,0.186,0.369v0.185h0.554v-0.74H14.064z M15.914,9.623c0.109-0.282,0.149-0.301,0.186-0.74h-0.554
					c-0.062,0.187-0.125,0.371-0.187,0.556h0.187C15.755,9.646,15.544,9.518,15.914,9.623z M32.756,9.993V9.808
					c0.207-0.209,0.078,0.003,0.184-0.369c-0.184-0.062-0.367-0.125-0.553-0.185L32.2,9.808h0.188
					C32.596,10.016,32.385,9.887,32.756,9.993z M33.868,9.808v0.186h0.555V9.254h-0.555c-0.158,0.207,0.023,0.028-0.186,0.185
					C33.792,9.808,33.657,9.596,33.868,9.808z M0.369,10.179h0.185C0.435,9.74,0.503,9.832,0.184,9.623v0.741h0.186V10.179z
					 M1.294,9.993c0.029,0.261,0.026-0.022,0.186,0.186c0.21,0.208-0.002,0.078,0.371,0.186v-0.186
					c0.207-0.21,0.077,0.001,0.185-0.371C1.851,9.747,1.664,9.685,1.479,9.623C1.418,9.747,1.356,9.87,1.294,9.993z M2.774,9.623
					v0.556H2.96c0.21,0.208-0.002,0.078,0.372,0.186c0.106-0.284,0.146-0.302,0.184-0.741H2.774z M9.438,9.623H8.696v0.741h0.742
					V9.623z M12.399,10.364v0.74h0.741V10.55h-0.187c-0.388-0.471-0.436-0.077-0.555-0.927h-0.74v0.741H12.399z M14.064,10.364
					v-0.186h-0.186V9.623h-0.555c-0.158,0.209,0.025,0.03-0.184,0.185c0.11,0.37-0.028,0.16,0.184,0.371v0.186h0.555v0.554h0.186
					v0.187h0.554v-0.74H14.064z M14.805,10.179c0.209,0.208-0.002,0.078,0.37,0.186v-0.186c0.208-0.21,0.079,0.001,0.185-0.371
					c-0.283-0.108-0.302-0.146-0.741-0.185v0.556H14.805z M16.841,9.623h-0.555c-0.158,0.209,0.023,0.03-0.187,0.185
					c0.112,0.37-0.025,0.16,0.187,0.371v0.186h0.555V9.623z M32.016,10.179c-0.209-0.207,0.002-0.078-0.371-0.186
					c-0.158,0.21,0.027,0.029-0.184,0.186c0.111,0.369-0.027,0.159,0.184,0.371v0.184H32.2v-0.555H32.016z M33.127,10.733
					c0.369-0.11,0.158,0.026,0.369-0.184c0.207-0.212,0.078,0,0.186-0.371c-0.186-0.062-0.371-0.123-0.555-0.186V10.733z
					 M34.608,10.55v0.184h0.555c-0.061-0.247-0.123-0.493-0.184-0.74c-0.188,0.062-0.371,0.124-0.557,0.186
					C34.534,10.548,34.397,10.338,34.608,10.55z M0.74,10.918c0.209,0.207-0.002,0.08,0.37,0.187
					c0.107-0.283,0.147-0.301,0.184-0.74H0.74c-0.063,0.186-0.124,0.369-0.187,0.554H0.74z M2.221,10.918
					c0.209,0.207-0.002,0.08,0.37,0.187c0.108-0.283,0.146-0.301,0.184-0.74H2.221c-0.159,0.207,0.024,0.027-0.186,0.186
					C2.146,10.918,2.01,10.707,2.221,10.918z M3.699,10.364c-0.157,0.207,0.025,0.027-0.184,0.186
					c0.111,0.368-0.026,0.157,0.184,0.368v0.187h0.557v-0.74H3.699z M16.1,10.55h0.187v-0.186h-0.74v0.186h-0.187v0.555h0.74V10.55z
					 M24.799,11.289h0.184v0.185h0.555v-0.74h-0.738V11.289z M26.465,11.289v0.185h0.553v-0.74h-0.553
					c-0.158,0.207,0.025,0.03-0.188,0.185C26.391,11.288,26.254,11.078,26.465,11.289z M27.946,11.289v0.185H28.5v-0.74h-0.74v0.556
					H27.946z M32.756,11.289c0.207-0.21,0.078,0.002,0.184-0.371c-0.281-0.106-0.299-0.146-0.74-0.185v0.74h0.557V11.289z
					 M33.682,11.104c0.029,0.259,0.027-0.023,0.186,0.185c0.209,0.208-0.002,0.079,0.369,0.185v-0.185
					c0.207-0.21,0.08,0.002,0.186-0.371c-0.186-0.061-0.371-0.122-0.555-0.185C33.805,10.857,33.743,10.98,33.682,11.104z
					 M35.346,11.289v0.185h0.371c-0.162-0.346-0.238-0.539-0.555-0.74v0.556H35.346z M0.184,11.845h0.186
					c0.061-0.187,0.123-0.371,0.185-0.556C0.369,11.228,0.184,11.166,0,11.104v0.554h0.184V11.845z M1.479,11.104v0.185H1.294
					c0.112,0.369-0.025,0.159,0.186,0.369v0.187h0.556v-0.74H1.479z M3.516,11.845v-0.74H2.96c-0.157,0.209,0.024,0.028-0.186,0.185
					c0.113,0.369-0.024,0.159,0.186,0.369v0.187H3.516z M4.995,11.104H4.256v0.74h0.925C5.072,11.562,5.033,11.544,4.995,11.104z
					 M15.359,11.104h-0.741v0.74h0.741V11.104z M24.243,11.474c-0.158,0.209,0.025,0.029-0.184,0.185
					c0.111,0.37-0.027,0.159,0.184,0.37v0.185h0.557v-0.739H24.243z M25.723,11.474c-0.158,0.209,0.027,0.029-0.186,0.185
					c0.113,0.37-0.025,0.159,0.186,0.37v0.185h0.555v-0.739H25.723z M27.575,12.028h0.186v-0.555h-0.555v0.185h-0.188v0.555h0.557
					V12.028z M28.686,12.028c0.209,0.207-0.002,0.08,0.369,0.185v-0.185c0.207-0.209,0.078,0.002,0.184-0.37
					c-0.184-0.062-0.369-0.123-0.553-0.185c-0.062,0.123-0.125,0.246-0.186,0.371C28.528,12.104,28.526,11.821,28.686,12.028z
					 M33.127,12.213c0.369-0.108,0.158,0.027,0.369-0.185c0.207-0.209,0.078,0.002,0.186-0.37c-0.186-0.062-0.371-0.123-0.555-0.185
					V12.213z M34.608,12.028c0.209,0.207-0.002,0.08,0.371,0.185c0.107-0.283,0.146-0.299,0.184-0.739h-0.555
					c-0.16,0.209,0.023,0.029-0.186,0.185C34.534,12.028,34.397,11.817,34.608,12.028z M1.294,12.584v-0.739H0.74v0.184H0.554
					c0.111,0.37-0.025,0.16,0.187,0.371v0.185H1.294z M2.035,11.845v0.555h0.186v0.185h0.554v-0.739H2.035z M4.256,11.845H3.699
					v0.184H3.516v0.556h0.74V11.845z M24.059,12.213h-0.74v0.742h0.74V12.213z M24.799,12.77h0.184
					c0.211,0.206-0.002,0.079,0.371,0.186c0.109-0.283,0.148-0.301,0.184-0.742h-0.738V12.77z M27.018,12.213h-0.74v0.742h0.74
					V12.213z M27.946,12.77c0.209,0.206-0.002,0.079,0.367,0.186c0.109-0.283,0.148-0.301,0.188-0.742h-0.555
					c-0.158,0.209,0.023,0.031-0.186,0.187C27.87,12.77,27.733,12.559,27.946,12.77z M29.424,12.77c0.211,0.206,0,0.079,0.371,0.186
					V12.77c0.207-0.209,0.08,0.002,0.186-0.37c-0.186-0.061-0.371-0.124-0.557-0.187c-0.061,0.126-0.123,0.249-0.186,0.371
					C29.268,12.845,29.266,12.562,29.424,12.77z M32.387,12.399H32.2v0.556h0.74v-0.742h-0.553V12.399z M34.237,12.955V12.77
					c0.207-0.209,0.08,0.002,0.186-0.37c-0.186-0.061-0.371-0.124-0.555-0.187c-0.062,0.187-0.125,0.371-0.186,0.557h0.186
					C34.077,12.976,33.866,12.849,34.237,12.955z M35.163,12.77h0.184v0.186h0.557v-0.742h-0.74V12.77z M0,12.584v0.739h0.554
					v-0.739H0z M26.094,13.51h0.184v-0.555h-0.74v0.74h0.557V13.51z M27.575,13.695V13.51h0.186
					c-0.119-0.438-0.053-0.348-0.371-0.555C27.149,13.449,26.846,13.472,27.575,13.695z M29.055,13.695V13.51
					c0.207-0.21,0.078,0.002,0.184-0.37c-0.184-0.062-0.369-0.124-0.553-0.185c-0.062,0.185-0.125,0.368-0.186,0.555h0.186
					C28.895,13.717,28.684,13.59,29.055,13.695z M34.422,13.881c-0.246-0.124-0.494-0.247-0.74-0.371v-0.37h-0.186
					c-0.209-0.208,0.002-0.08-0.369-0.185c-0.158,0.207,0.023,0.029-0.188,0.185c0.113,0.369-0.023,0.159,0.188,0.37v0.186h0.555
					v0.739h0.74V13.881z M34.979,13.695c0.107-0.284,0.146-0.302,0.184-0.74h-0.555c-0.062,0.185-0.125,0.368-0.186,0.555h0.186
					C34.817,13.717,34.606,13.59,34.979,13.695z M35.346,13.695c-0.158,0.208,0.025,0.027-0.184,0.186
					c0.111,0.369-0.027,0.158,0.184,0.369v0.185h0.557v-0.554h0.371v-0.926h-0.188c-0.107,0.283-0.146,0.301-0.184,0.74H35.346z
					 M0.554,13.323v0.558H0.74v0.184h0.554v-0.741H0.554z M26.465,13.695c-0.062,0.122-0.125,0.247-0.188,0.369v0.186h0.188
					c0.209,0.207-0.002,0.08,0.367,0.185V14.25c0.209-0.211,0.08,0.001,0.186-0.369C26.833,13.817,26.649,13.757,26.465,13.695z
					 M27.76,13.881c0.109,0.369-0.027,0.158,0.186,0.369c0.209,0.207-0.002,0.08,0.367,0.185c0.109-0.282,0.148-0.301,0.188-0.739
					h-0.555C27.788,13.903,27.969,13.723,27.76,13.881z M29.424,14.435c0.371-0.111,0.162,0.026,0.371-0.185
					c0.207-0.211,0.08,0.001,0.186-0.369c-0.186-0.063-0.371-0.124-0.557-0.186V14.435z M0,14.064c0.11,0.37-0.026,0.159,0.184,0.37
					c0.113,0.37-0.025,0.159,0.186,0.37c0.107-0.283,0.148-0.302,0.185-0.74H0z M36.643,15.36c-0.062-0.369-0.123-0.741-0.186-1.11
					c-0.184,0.061-0.371,0.123-0.555,0.185C35.969,15.108,36.047,15.224,36.643,15.36z M25.538,14.435v0.742h0.74v-0.742H25.538z
					 M27.206,15.177h0.555v-0.742h-0.555v0.185h-0.188C27.081,14.805,27.143,14.991,27.206,15.177z M28.686,14.991
					c0.209,0.207-0.002,0.077,0.369,0.186v-0.186c0.207-0.21,0.078,0.002,0.184-0.372c-0.184-0.062-0.369-0.122-0.553-0.185
					c-0.062,0.185-0.125,0.37-0.186,0.557H28.686z M30.536,14.991c0.207-0.21,0.078,0.002,0.186-0.372
					c-0.186-0.062-0.371-0.122-0.555-0.185v0.742C30.536,15.063,30.325,15.201,30.536,14.991z M34.608,14.991
					c0.209,0.207-0.002,0.077,0.371,0.186v-0.186c0.207-0.21,0.078,0.002,0.184-0.372c-0.283-0.107-0.301-0.147-0.74-0.185v0.557
					H34.608z M0.74,14.805c-0.16,0.209,0.024,0.029-0.187,0.187c0.111,0.367-0.025,0.158,0.187,0.369v0.185h0.554v-0.74H0.74z
					 M27.946,15.73c0.209,0.207-0.002,0.078,0.367,0.185V15.73c0.209-0.211,0.08,0.002,0.188-0.37
					c-0.283-0.108-0.301-0.148-0.74-0.184v0.554H27.946z M29.424,15.177v0.184h-0.186c0.062,0.185,0.125,0.37,0.186,0.555
					c0.371-0.11,0.162,0.025,0.371-0.185c0.207-0.211,0.08,0.002,0.186-0.37h-0.186C29.586,15.154,29.797,15.282,29.424,15.177z
					 M33.868,15.177c-0.158,0.208,0.023,0.027-0.186,0.184c0.109,0.37-0.025,0.159,0.186,0.37c0.209,0.207-0.002,0.078,0.369,0.185
					c0.109-0.282,0.146-0.301,0.186-0.738H33.868z M35.903,15.915v-0.738h-0.557c-0.158,0.208,0.025,0.027-0.184,0.184
					c0.111,0.37-0.027,0.159,0.184,0.37v0.185H35.903z M36.458,15.915c-0.184,0.063-0.371,0.124-0.555,0.185
					c0.111,0.369-0.025,0.16,0.184,0.373v0.183h0.557V15.73C36.434,15.889,36.614,15.706,36.458,15.915z M27.575,16.1
					c-0.211-0.207,0.002-0.077-0.369-0.185c-0.109,0.282-0.148,0.301-0.188,0.74h0.557v-0.183c0.209-0.213,0.078,0,0.186-0.373
					H27.575z M28.5,16.286v0.187c0.186,0.06,0.369,0.121,0.555,0.183c0.062-0.183,0.123-0.369,0.184-0.556
					c-0.184-0.061-0.369-0.121-0.553-0.185C28.573,16.285,28.711,16.075,28.5,16.286z M30.536,16.473
					c0.207-0.213,0.078,0,0.186-0.373c-0.186-0.061-0.371-0.121-0.555-0.185v0.74C30.536,16.545,30.325,16.683,30.536,16.473z
					 M34.979,16.655c0.107-0.281,0.146-0.301,0.184-0.74h-0.555c-0.062,0.185-0.125,0.371-0.186,0.558h0.186
					C34.817,16.679,34.606,16.55,34.979,16.655z M0.925,16.473H0.74v0.183c0.187,0.143,0.182,0.229,0.37,0.371
					c0.107-0.282,0.147-0.301,0.184-0.74C0.925,16.396,1.137,16.26,0.925,16.473z M27.018,16.841h-0.186v-0.186h-0.555v0.741h0.74
					V16.841z M27.946,16.655c-0.062,0.186-0.125,0.371-0.186,0.555c0.281,0.109,0.301,0.148,0.74,0.187v-0.556
					C28.313,16.779,28.129,16.717,27.946,16.655z M29.424,16.655c-0.107,0.283-0.146,0.302-0.186,0.741h0.557V17.21
					c0.207-0.209,0.08,0.002,0.186-0.369h-0.186C29.586,16.634,29.797,16.762,29.424,16.655z M33.868,16.655
					c-0.062,0.186-0.125,0.371-0.186,0.555h0.186c0.209,0.208-0.002,0.08,0.369,0.187V17.21c0.207-0.209,0.08,0.002,0.186-0.369
					C34.237,16.779,34.051,16.717,33.868,16.655z M35.717,17.21h0.186v-0.555h-0.557v0.186h-0.184v0.556h0.555V17.21z
					 M36.458,17.396c-0.184,0.062-0.371,0.124-0.555,0.187c0.141,0.502,0.043,0.42,0.555,0.554c0.113-0.37-0.025-0.158,0.186-0.37
					V17.21C36.434,17.369,36.614,17.188,36.458,17.396z M27.575,17.951c0.209-0.21,0.078,0.001,0.186-0.368h-0.186
					c-0.211-0.209,0.002-0.08-0.369-0.187c-0.109,0.282-0.148,0.301-0.188,0.74h0.557V17.951z M28.5,17.951h0.186
					c0.209,0.207-0.002,0.079,0.369,0.186v-0.186c0.207-0.21,0.078,0.001,0.184-0.368c-0.281-0.109-0.301-0.15-0.738-0.187V17.951z
					 M35.346,18.137v-0.186h-0.184v-0.555h-0.555c-0.16,0.209,0.023,0.028-0.186,0.187c0.111,0.367-0.025,0.158,0.186,0.368v0.186
					h0.555v0.555h0.184v0.187h0.557v-0.741H35.346z M33.868,18.137c-0.062,0.185-0.125,0.369-0.186,0.555
					c0.283,0.108,0.301,0.148,0.74,0.187v-0.741H33.868z M34.979,19.617v-0.186h0.184v-0.554h-0.74v0.739H34.979z M35.903,19.617
					h-0.557c-0.158,0.209,0.025,0.028-0.184,0.185c0.111,0.369-0.027,0.159,0.184,0.37v0.187h0.557
					c0.121-0.577,0.318-0.827,0.371-1.48h-0.371V19.617z M33.682,19.802c0.109,0.369-0.025,0.159,0.186,0.37v0.187h0.555v-0.741
					h-0.555C33.709,19.826,33.891,19.646,33.682,19.802z M34.422,20.542c0.111,0.369-0.025,0.159,0.186,0.371v0.185h0.555v-0.739
					h-0.555C34.448,20.565,34.631,20.386,34.422,20.542z M33.682,21.098v0.556h0.186v0.184h0.555v-0.739H33.682z M34.422,22.393
					h0.186c0.209,0.209-0.002,0.079,0.371,0.185c0.107-0.282,0.146-0.301,0.184-0.74h-0.74V22.393z M33.868,23.132
					c0.209,0.209-0.002,0.08,0.369,0.187c0.109-0.283,0.146-0.302,0.186-0.741h-0.555c-0.158,0.209,0.023,0.03-0.186,0.187
					C33.792,23.132,33.657,22.922,33.868,23.132z M33.127,23.873v0.186h0.555v-0.74H32.94v0.555H33.127z M34.422,23.504
					c0.143,0.503,0.043,0.421,0.557,0.555c0.061-0.186,0.123-0.37,0.184-0.555c-0.184-0.062-0.371-0.123-0.555-0.186
					C34.448,23.527,34.631,23.348,34.422,23.504z M33.682,24.059V24.8h0.74v-0.741H33.682z M34.422,25.354h0.186
					c0.061-0.185,0.123-0.37,0.184-0.554h-0.369V25.354z M34.237,25.539h-0.555v0.556C34.186,25.953,34.104,26.05,34.237,25.539z
					 M33.497,26.835v-0.186c0.209-0.157,0.029,0.025,0.186-0.186c-0.283-0.108-0.301-0.146-0.742-0.185v0.556H33.497z M31.645,27.76
					v-0.186h-0.184v-0.556h-0.74v0.741h0.74v0.74h0.555v-0.185c0.471-0.387,0.078-0.435,0.924-0.556v-0.741H32.2v0.741H31.645z
					 M30.721,27.76h-0.555v-0.555c-0.449,0.113-0.408,0.194-0.742,0.369v0.186c0.186,0.062,0.371,0.124,0.557,0.186V28.5h0.74V27.76
					z M30.721,29.24h-0.555v-0.185h-0.186V28.5c-0.441-0.097-0.58-0.218-0.926-0.37c-0.158,0.209,0.025,0.028-0.186,0.186
					c0.201,0.381,0.311,0.326,0.369,0.925c-0.244-0.061-0.492-0.123-0.738-0.185c-0.062,0.124-0.125,0.246-0.188,0.37
					c0,0,0.334,0.097,0.188,0.371h-0.188v0.184c-0.291-0.138-0.441-0.168-0.924-0.184c0.176,0.332,0.264,0.286,0.371,0.739
					c-0.369,0.111-0.16-0.025-0.371,0.186h-0.184v-0.555c-0.752,0.208-0.479,0.504-1.482,0.555
					c-0.109,0.368,0.027,0.158-0.186,0.369v0.187h-1.295c0.213,0.207-0.002,0.078,0.371,0.185v0.556h-0.371v-0.372
					c-0.246-0.061-0.492-0.123-0.74-0.184c-0.107,0.282-0.148,0.302-0.184,0.74c0.555,0.184,1.109,0.37,1.664,0.555v-0.371h0.555
					v0.371c0.785-0.057,0.633-0.093,1.111-0.371v-0.184h0.184c0,0,0.271,0.326,0.373,0.37c0.061-0.125,0.123-0.248,0.184-0.37
					h-0.184c-0.053-0.485,0.016-0.36,0.184-0.557c0.16-0.207-0.025-0.027,0.186-0.184c0.113,0.235,0.18,0.395,0.371,0.556v0.185
					c0.184-0.062,0.367-0.123,0.555-0.185v-0.556h0.555c0.123-0.247,0.246-0.493,0.369-0.74h0.371v-0.186h0.186V29.98h0.74v-0.555
					h0.184c0.389-0.472,0.436-0.077,0.557-0.926h-0.74V29.24z M26.278,31.832c-0.184,0.062-0.369,0.123-0.555,0.186v-0.556
					c0.369,0.11,0.16-0.027,0.371,0.184h0.184V31.832z M26.833,31.277c-0.156,0.207,0.027,0.027-0.184,0.185
					c-0.174-0.565-0.184-0.172,0-0.74l0.369,0.185C26.909,31.275,27.043,31.066,26.833,31.277z M28.129,31.462h-0.184
					c-0.062-0.185-0.125-0.371-0.186-0.556c0.186-0.062,0.369-0.123,0.553-0.185c0.062,0.185,0.125,0.369,0.188,0.556
					C28.131,31.389,28.34,31.25,28.129,31.462z M28.686,30.722V29.98c0.184,0.061,0.369,0.123,0.553,0.187
					C29.1,30.67,29.196,30.587,28.686,30.722z M29.795,29.797c-0.209,0.206,0.002,0.077-0.371,0.184v-0.184h-0.186
					c0.062-0.187,0.125-0.371,0.186-0.557c0.186,0.062,0.371,0.123,0.557,0.186C29.868,29.795,30.006,29.585,29.795,29.797z"/>
			</g>
		</g>
	</g>
</g>
</svg>
