<?xml version="1.0" encoding="utf-8"?>
<!-- Generator: Adobe Illustrator 16.0.0, SVG Export Plug-In . SVG Version: 6.00 Build 0)  -->
<!DOCTYPE svg PUBLIC "-//W3C//DTD SVG 1.1//EN" "http://www.w3.org/Graphics/SVG/1.1/DTD/svg11.dtd">
<svg version="1.1" id="レイヤー_1" xmlns="http://www.w3.org/2000/svg" xmlns:xlink="http://www.w3.org/1999/xlink" x="0px"
	 y="0px" width="150.832px" height="150.836px" viewBox="0 0 150.832 150.836" enable-background="new 0 0 150.832 150.836"
	 xml:space="preserve">
<g>
	<g>
		<g>
			<path fill="#947F28" d="M46.566,48.62c1.596,1.224,2.811,3.38,1.386,5.239c-1.386,1.807-4.075,1.496-5.774,0.194
				c-1.369-1.05-1.968-2.374-1.889-2.479c0.039-0.053,0.104-0.06,0.156-0.02c0.069,0.054,0.332,1.09,1.858,2.26
				c1.595,1.225,4.065,1.672,5.448-0.135c1.211-1.578-0.01-3.324-1.326-4.332c-2.156-1.654-5.793-1.853-7.567,0.461
				c-1.466,1.912,0.282,4.644,1.859,5.854c4.349,3.335,8.117,1.074,12.255-1.128c-0.33-0.223-0.685-0.414-1.035-0.682
				c-1.947-1.494-3.321-4.273-1.828-6.221c1.439-1.875,4.105-1.725,6.156-0.15c1.65,1.264,2.512,3.263,2.562,5.195
				c1.116-0.147,2.981-0.109,3.892,0.59c0.596,0.457,0.635,0.988,0.232,1.516c-1.48,1.928-6.143,1.723-8.624,0.455
				c-3.242,1.832-6.288,3.479-10.188,2.464c-1.208-0.312-2.515-1.008-3.495-1.761c-2.088-1.602-3.748-4.518-1.893-6.938
				C40.648,46.53,44.305,46.886,46.566,48.62z M52.639,53.666c0.314,0.242,0.631,0.484,0.881,0.594
				c1.573-0.742,3.293-1.316,5.086-1.585c-0.036-1.95-1.027-3.852-2.432-4.929c-1.875-1.439-4.143-1.676-5.422-0.01
				C49.421,49.473,50.955,52.375,52.639,53.666z M62.577,53.491c-0.862-0.659-2.781-0.517-3.765-0.212
				c-0.004,0.33-0.149,1.5-0.203,1.568c-0.04,0.054-0.088,0.047-0.125,0.019c-0.053-0.042,0.119-0.772,0.116-1.528
				c-1.392,0.324-2.655,1.027-3.851,1.643c2.28,1.273,6.578,1.48,7.991-0.361C63.023,54.252,62.996,53.814,62.577,53.491z"/>
			<path fill="#947F28" d="M112.809,49.004c1.857,2.42,0.195,5.336-1.893,6.938c-0.98,0.753-2.285,1.448-3.494,1.761
				c-3.9,1.016-6.945-0.632-10.188-2.464c-2.482,1.268-7.145,1.473-8.623-0.455c-0.404-0.527-0.365-1.059,0.232-1.516
				c0.908-0.699,2.775-0.737,3.891-0.59c0.049-1.933,0.912-3.932,2.561-5.195c2.052-1.574,4.717-1.725,6.157,0.15
				c1.493,1.947,0.12,4.727-1.828,6.221c-0.351,0.268-0.706,0.459-1.036,0.682c4.139,2.202,7.906,4.463,12.256,1.128
				c1.577-1.211,3.324-3.942,1.859-5.854c-1.775-2.313-5.411-2.115-7.568-0.461c-1.316,1.008-2.537,2.754-1.326,4.332
				c1.383,1.807,3.854,1.359,5.449,0.135c1.527-1.17,1.789-2.206,1.857-2.26c0.055-0.04,0.117-0.033,0.156,0.02
				c0.08,0.105-0.519,1.43-1.887,2.479c-1.701,1.302-4.389,1.612-5.775-0.194c-1.426-1.859-0.209-4.016,1.385-5.239
				C107.256,46.886,110.912,46.53,112.809,49.004z M100.809,47.736c-1.278-1.666-3.547-1.43-5.422,0.01
				c-1.404,1.077-2.395,2.979-2.432,4.929c1.793,0.269,3.514,0.843,5.088,1.585c0.248-0.109,0.565-0.352,0.881-0.594
				C100.607,52.375,102.141,49.473,100.809,47.736z M88.82,54.619c1.413,1.842,5.711,1.635,7.992,0.361
				c-1.196-0.615-2.459-1.318-3.852-1.643c-0.004,0.756,0.168,1.486,0.115,1.528c-0.035,0.028-0.084,0.035-0.125-0.019
				c-0.053-0.068-0.197-1.238-0.203-1.568c-0.982-0.305-2.902-0.447-3.764,0.212C88.565,53.814,88.539,54.252,88.82,54.619z"/>
			<g>
				<path fill="#947F28" d="M76.799,57.519c-1.845-4.397-4.325-6.152-7.062-5.923c-1.716,0.142-2.568,0.542-2.884,2.299
					c0.234,0.016,0.429,0.001,0.66,0.038c3.274,0.51,5.411,2.671,5.058,4.938c-0.164,1.049-1.054,1.514-2.062,1.356
					c-2.393-0.374-4.104-3.735-3.934-6.075c-1.171-0.076-1.906,0.09-2.011,0.073c-0.083-0.013-0.121-0.062-0.11-0.124
					c0.019-0.128,1.525-0.257,2.139-0.205c0.37-2.371,2.014-3.385,4.237-3.038c1.052,0.164,3.594,0.989,5.167,3.689L76.799,57.519z
					 M72.221,58.903c0.275-1.763-2.43-4.271-4.949-4.663l-0.462-0.072c-0.244,2.111,1.451,5.451,3.76,5.812
					C71.43,60.114,72.083,59.785,72.221,58.903z"/>
				<path fill="#947F28" d="M74.104,54.548c1.573-2.7,4.116-3.525,5.167-3.689c2.225-0.347,3.867,0.667,4.237,3.038
					c0.614-0.052,2.12,0.077,2.139,0.205c0.011,0.062-0.026,0.111-0.11,0.124c-0.104,0.017-0.84-0.149-2.01-0.073
					c0.171,2.34-1.542,5.701-3.935,6.075c-1.009,0.157-1.898-0.308-2.062-1.356c-0.354-2.268,1.783-4.429,5.057-4.938
					c0.232-0.037,0.427-0.022,0.661-0.038c-0.316-1.757-1.169-2.157-2.885-2.299c-2.737-0.229-5.218,1.525-7.062,5.923
					L74.104,54.548z M79.531,59.979c2.309-0.36,4.004-3.7,3.76-5.812L82.83,54.24c-2.52,0.393-5.225,2.9-4.95,4.663
					C78.018,59.785,78.671,60.114,79.531,59.979z"/>
			</g>
		</g>
		<g>
			<path fill="#947F28" d="M24.012,81.834h-2.32V69.512h-3.801v-1.98h9.902v1.98h-3.781V81.834z"/>
			<path fill="#947F28" d="M37.892,78.154h-5.661l-1.66,3.68H28.13l6.922-14.863l6.921,14.863h-2.46L37.892,78.154z M37.072,76.213
				l-1.46-3.26c-0.16-0.381-0.34-0.9-0.54-1.621c-0.18,0.721-0.36,1.24-0.521,1.621l-1.46,3.26H37.072z"/>
			<path fill="#947F28" d="M43.81,66.971l9.082,8.742c0.58,0.561,1.081,1.141,1.561,1.74v-9.922h2.14v14.863l-9.262-8.902
				c-0.52-0.5-0.98-1.039-1.38-1.6v9.941H43.81V66.971z"/>
			<path fill="#947F28" d="M73.953,74.513c0.02,0.581,0.04,1.021,0.04,1.341c0,4.061-2.44,6.361-6.602,6.361
				c-2.34,0-4.161-0.681-5.541-2.08c-1.36-1.381-2.101-3.301-2.101-5.422c0-2.16,0.74-4.001,2.181-5.4
				c1.4-1.361,3.321-2.102,5.461-2.102c2.261,0,4.021,0.82,5.401,2.501l-1.7,1.28c-0.96-1.12-2.161-1.66-3.661-1.66
				c-3.061,0-5.261,2.141-5.261,5.361c0,3.26,2.18,5.441,5.281,5.441c2.681,0,4.281-1.341,4.281-3.461c0-0.061,0-0.141,0-0.201
				h-3.441v-1.96H73.953z"/>
			<path fill="#947F28" d="M76.93,67.531h7.982v1.98h-5.661v3.581h5.661v2.04h-5.661v4.621h5.661v2.08H76.93V67.531z"/>
			<path fill="#947F28" d="M90.251,81.834H88.07V67.531h3.24c1.541,0,2.682,0.12,3.562,0.801c0.86,0.68,1.38,1.8,1.38,3.141
				c0,2.301-1.12,3.601-3.28,3.86l4.921,6.501h-2.621l-4.76-6.4h-0.261V81.834z M90.811,73.633c2.041,0,3.061-0.24,3.061-1.961
				c0-1.76-0.979-2.141-3.061-2.141h-0.42v4.102H90.811z"/>
			<path fill="#947F28" d="M99.811,67.531h2.32v14.303h-2.32V67.531z"/>
			<path fill="#947F28" d="M105.971,66.971l9.082,8.742c0.58,0.561,1.08,1.141,1.561,1.74v-9.922h2.14v14.863l-9.262-8.902
				c-0.521-0.5-0.98-1.039-1.38-1.6v9.941h-2.141V66.971z"/>
			<path fill="#947F28" d="M122.53,67.531h7.981v1.98h-5.66v3.581h5.66v2.04h-5.66v4.621h5.66v2.08h-7.981V67.531z"/>
		</g>
		<g>
			<path fill="#947F28" d="M40.278,96.551h1.271v0.911c0.3-0.708,0.971-1.103,1.883-1.103c1.463,0,2.482,1.175,2.482,2.961
				c0,1.896-0.983,3.012-2.53,3.012c-0.78,0-1.379-0.312-1.835-0.948v3.335h-1.271V96.551z M43.073,101.204
				c0.959,0,1.511-0.659,1.511-1.847c0-1.176-0.588-1.871-1.547-1.871c-0.947,0-1.523,0.659-1.523,1.822
				C41.514,100.496,42.173,101.204,43.073,101.204z"/>
			<path fill="#947F28" d="M49.913,96.359c0.36,0,0.708,0.084,1.043,0.251L50.5,97.689c-0.24-0.168-0.492-0.228-0.78-0.228
				c-0.899,0-1.187,0.708-1.187,2.207v2.435h-1.271v-5.564h1.271v0.898C48.81,96.707,49.241,96.359,49.913,96.359z"/>
			<path fill="#947F28" d="M52.374,93.36c0.443,0,0.792,0.336,0.792,0.792c0,0.455-0.348,0.803-0.792,0.803
				c-0.444,0-0.804-0.371-0.804-0.803S51.93,93.36,52.374,93.36z M51.738,96.551h1.271v5.553h-1.271V96.551z"/>
			<path fill="#947F28" d="M53.863,96.551h1.391l1.211,2.795c0.072,0.155,0.18,0.491,0.312,1.007
				c0.072-0.336,0.18-0.672,0.324-1.007l1.211-2.795h1.379l-2.914,5.889L53.863,96.551z"/>
			<path fill="#947F28" d="M64.444,102.104v-0.72c-0.456,0.636-1.056,0.948-1.835,0.948c-1.547,0-2.531-1.116-2.531-3.012
				c0-1.786,1.031-2.961,2.495-2.961c0.912,0,1.571,0.395,1.871,1.103v-0.911h1.271v5.553H64.444z M62.957,97.486
				c-0.959,0-1.547,0.695-1.547,1.871c0,1.188,0.564,1.847,1.523,1.847c0.875,0,1.547-0.72,1.547-1.896
				C64.479,98.146,63.904,97.486,62.957,97.486z"/>
			<path fill="#947F28" d="M67.77,97.666h-0.971v-1.115h0.971v-2.1h1.271v2.1h0.971v1.115h-0.971v4.438H67.77V97.666z"/>
			<path fill="#947F28" d="M72.017,99.514c0.06,1.043,0.647,1.654,1.571,1.654c0.816,0,1.332-0.324,1.739-1.092l1.067,0.6
				c-0.623,1.115-1.535,1.656-2.782,1.656c-1.775,0-2.915-1.176-2.915-2.986c0-1.728,1.188-2.986,2.915-2.986
				c1.787,0,2.843,1.066,2.843,2.914c0,0.072,0,0.156,0,0.24H72.017z M73.636,97.438c-0.828,0-1.332,0.396-1.535,1.225h3.034
				C75.04,97.857,74.512,97.438,73.636,97.438z"/>
			<path fill="#947F28" d="M81.821,100.521c0.155,0.552,0.575,0.852,1.247,0.852c0.576,0,0.912-0.288,0.912-0.731
				c0-0.576-0.553-0.624-1.32-0.947c-1.055-0.444-1.595-0.876-1.595-1.68c0-0.959,0.804-1.667,2.123-1.667
				c0.876,0,1.499,0.336,1.774,0.911l-0.898,0.624c-0.133-0.348-0.48-0.575-0.924-0.575c-0.492,0-0.804,0.252-0.804,0.635
				c0,0.54,0.6,0.624,1.464,0.972c0.971,0.384,1.427,0.84,1.427,1.644c0,1.079-0.815,1.775-2.267,1.775
				c-1.08,0-1.787-0.396-2.195-1.236L81.821,100.521z"/>
			<path fill="#947F28" d="M90.471,102.104v-0.72c-0.455,0.636-1.055,0.948-1.834,0.948c-1.548,0-2.531-1.116-2.531-3.012
				c0-1.786,1.031-2.961,2.494-2.961c0.912,0,1.572,0.395,1.871,1.103v-0.911h1.271v5.553H90.471z M88.984,97.486
				c-0.96,0-1.548,0.695-1.548,1.871c0,1.188,0.563,1.847,1.523,1.847c0.876,0,1.547-0.72,1.547-1.896
				C90.507,98.146,89.932,97.486,88.984,97.486z"/>
			<path fill="#947F28" d="M93.557,93.024h1.271v9.079h-1.271V93.024z"/>
			<path fill="#947F28" d="M97.133,97.223c0.576-0.564,1.344-0.863,2.146-0.863c0.828,0,1.584,0.299,2.172,0.875
				c0.575,0.563,0.898,1.295,0.898,2.099c0,0.827-0.312,1.56-0.887,2.11c-0.6,0.576-1.355,0.889-2.184,0.889
				c-0.803,0-1.57-0.312-2.146-0.876c-0.588-0.575-0.899-1.308-0.899-2.123C96.233,98.529,96.545,97.785,97.133,97.223z
				 M99.291,97.498c-0.947,0-1.715,0.804-1.715,1.848c0,1.043,0.768,1.846,1.715,1.846c0.936,0,1.716-0.803,1.716-1.846
				C101.007,98.302,100.239,97.498,99.291,97.498z"/>
			<path fill="#947F28" d="M103.697,96.551h1.199v0.911c0.516-0.779,1.176-1.103,2.146-1.103c0.828,0,1.416,0.264,1.74,0.779
				c0.275,0.42,0.275,0.923,0.275,1.595v3.37h-1.283v-2.854c0-1.235-0.156-1.812-1.212-1.812c-0.6,0-1.079,0.229-1.343,0.624
				c-0.229,0.336-0.252,0.815-0.252,1.511v2.531h-1.271V96.551z"/>
		</g>
		<g>
			<path fill="#947F28" d="M53.292,121.465c0.136,0.512,0.52,0.783,1.104,0.783c0.56,0,0.903-0.336,0.903-0.848
				c0-0.559-0.424-0.695-1.015-0.982c-1.016-0.496-1.575-0.88-1.575-1.744c0-0.919,0.68-1.566,1.719-1.566
				c0.847,0,1.431,0.344,1.647,0.943l-0.728,0.376c-0.224-0.353-0.488-0.521-0.848-0.521c-0.504,0-0.815,0.289-0.815,0.721
				c0,0.551,0.448,0.719,1.087,1.016c1.007,0.463,1.479,0.871,1.479,1.694c0,1.063-0.711,1.767-1.895,1.767
				c-0.976,0-1.615-0.463-1.807-1.295L53.292,121.465z"/>
			<path fill="#947F28" d="M57.285,117.235h0.928v5.717h-0.928V117.235z"/>
			<path fill="#947F28" d="M59.549,117.012l3.63,3.494c0.232,0.224,0.432,0.455,0.624,0.695v-3.966h0.855v5.94l-3.702-3.558
				c-0.208-0.2-0.392-0.416-0.552-0.64v3.974h-0.855V117.012z"/>
			<path fill="#947F28" d="M68.803,117.955c-1.255,0-2.111,0.887-2.111,2.158c0,1.256,0.872,2.127,2.015,2.127
				c0.68,0,1.287-0.24,1.847-0.719v1.047c-0.504,0.359-1.087,0.535-1.775,0.535c-0.879,0-1.631-0.295-2.19-0.848
				c-0.56-0.551-0.864-1.318-0.864-2.15c0-0.84,0.304-1.591,0.872-2.15c0.568-0.561,1.312-0.855,2.167-0.855
				c0.688,0,1.287,0.199,1.847,0.592l-0.048,0.936C70.034,118.179,69.451,117.955,68.803,117.955z"/>
			<path fill="#947F28" d="M71.717,117.235h3.19v0.792h-2.263v1.431h2.263v0.815h-2.263v1.848h2.263v0.831h-3.19V117.235z"/>
			<path fill="#947F28" d="M81.73,122.952H77.9l2.135-2.559c0.504-0.608,0.768-1.087,0.768-1.503c0-0.561-0.352-0.912-0.943-0.912
				c-0.52,0-0.887,0.352-0.928,0.888h-0.895c0-1.023,0.735-1.687,1.902-1.687c1.104,0,1.783,0.607,1.783,1.582
				c0,0.896-0.568,1.607-1.439,2.607l-0.727,0.84h2.174V122.952z"/>
			<path fill="#947F28" d="M84.979,123.104c-1.279,0-2.055-1.062-2.055-2.966c0-1.888,0.784-2.958,2.063-2.958
				c1.295,0,2.047,1.055,2.047,3.021C87.035,122.041,86.242,123.104,84.979,123.104z M86.107,120.13
				c0-1.415-0.393-2.159-1.111-2.159c-0.752,0-1.145,0.736-1.145,2.175c0,1.407,0.408,2.159,1.111,2.159
				C85.723,122.305,86.107,121.576,86.107,120.13z"/>
			<path fill="#947F28" d="M89.508,118.027h-1.184l0.359-0.736h1.672v5.661h-0.848V118.027z"/>
			<path fill="#947F28" d="M93.484,121.425c0,0.017,0,0.032,0,0.048c0,0.52,0.384,0.863,1,0.863c0.695,0,1.087-0.359,1.087-1.007
				c0-0.688-0.392-1.032-1.159-1.032c-0.057,0-0.112,0.009-0.176,0.009v-0.751c0.056,0,0.111,0.008,0.168,0.008
				c0.672,0,1.023-0.28,1.023-0.84c0-0.488-0.336-0.8-0.855-0.8c-0.561,0-0.889,0.28-0.904,0.768h-0.84
				c0.057-0.968,0.672-1.511,1.768-1.511c1.055,0,1.703,0.592,1.703,1.52c0,0.695-0.359,1.175-0.983,1.271
				c0.72,0.128,1.111,0.64,1.111,1.479c0,0.991-0.735,1.654-1.976,1.654c-1.095,0-1.822-0.646-1.854-1.679H93.484z"/>
		</g>
		<path fill="#947F28" stroke="#000000" stroke-width="4" stroke-linecap="round" stroke-miterlimit="10" d="M125.666,44.213"/>
		<path fill="#947F28" stroke="#000000" stroke-width="4" stroke-miterlimit="10" d="M125.666,106.623"/>
		<path fill="#947F28" stroke="#000000" stroke-width="4" stroke-linecap="round" stroke-miterlimit="10" d="M25.166,106.623"/>
		<g>
			<path fill="#947F28" d="M25.166,108.624c-0.23,0-0.463-0.04-0.692-0.124C10.064,103.188,0,89.584,0,75.418
				s10.064-27.77,24.474-33.082c1.036-0.38,2.187,0.148,2.568,1.186c0.382,1.036-0.148,2.186-1.185,2.568
				C12.988,50.833,4,62.894,4,75.418s8.988,24.585,21.858,29.328c1.036,0.383,1.567,1.532,1.185,2.568
				C26.745,108.123,25.979,108.624,25.166,108.624z"/>
			<path fill="#947F28" d="M125.666,108.624c-0.813,0-1.579-0.501-1.877-1.31c-0.382-1.036,0.148-2.186,1.186-2.568
				c12.869-4.743,21.857-16.804,21.857-29.328s-8.988-24.585-21.857-29.328c-1.037-0.383-1.567-1.532-1.186-2.568
				c0.382-1.037,1.537-1.566,2.568-1.186c14.41,5.312,24.475,18.916,24.475,33.082s-10.064,27.77-24.475,33.082
				C126.13,108.584,125.896,108.624,125.666,108.624z"/>
			<path fill="#947F28" d="M75.416,150.836c-14.165,0-27.77-10.065-33.083-24.477c-0.382-1.036,0.148-2.186,1.185-2.568
				c1.033-0.382,2.186,0.147,2.568,1.186c4.746,12.87,16.806,21.859,29.33,21.859s24.584-8.989,29.329-21.859
				c0.384-1.038,1.538-1.564,2.568-1.186c1.037,0.383,1.567,1.532,1.186,2.568C103.186,140.771,89.581,150.836,75.416,150.836z"/>
			<path fill="#947F28" d="M106.622,27.169c-0.813,0-1.578-0.501-1.877-1.31C100,12.989,87.939,4,75.416,4
				s-24.584,8.989-29.33,21.859c-0.382,1.037-1.533,1.567-2.568,1.186c-1.036-0.383-1.567-1.532-1.185-2.568
				C47.646,10.065,61.251,0,75.416,0s27.77,10.065,33.083,24.477c0.382,1.036-0.148,2.186-1.186,2.568
				C107.086,27.129,106.852,27.169,106.622,27.169z"/>
			<path fill="#947F28" d="M25.166,46.213c-1.104,0-2-0.896-2-2V23.168H44.21c1.104,0,2,0.896,2,2s-0.896,2-2,2H27.166v17.045
				C27.166,45.317,26.271,46.213,25.166,46.213z"/>
			<path fill="#947F28" d="M125.666,46.213c-1.104,0-2-0.896-2-2V27.168h-17.044c-1.104,0-2-0.896-2-2s0.896-2,2-2h21.044v21.045
				C127.666,45.317,126.771,46.213,125.666,46.213z"/>
			<path fill="#947F28" d="M127.666,127.668h-21.044c-1.104,0-2-0.896-2-2s0.896-2,2-2h17.044v-17.045c0-1.104,0.896-2,2-2
				s2,0.896,2,2V127.668z"/>
			<path fill="#947F28" d="M44.21,127.668H23.166v-21.045c0-1.104,0.896-2,2-2s2,0.896,2,2v17.045H44.21c1.104,0,2,0.896,2,2
				S45.314,127.668,44.21,127.668z"/>
			<path fill="#947F28" stroke="#AB951D" stroke-width="4" stroke-miterlimit="10" d="M25.166,44.213"/>
		</g>
		<path fill="#947F28" stroke="#000000" stroke-width="4" stroke-linecap="round" stroke-miterlimit="10" d="M44.21,25.168"/>
		<path fill="#947F28" stroke="#000000" stroke-width="4" stroke-miterlimit="10" d="M106.622,25.168"/>
		<path fill="#947F28" stroke="#000000" stroke-width="4" stroke-miterlimit="10" d="M106.622,125.668"/>
		<path fill="#947F28" stroke="#AB951D" stroke-width="4" stroke-miterlimit="10" d="M44.21,125.668"/>
		<g>
			<path fill="#947F28" d="M65.093,129.2c1.066,1.191,1.586,3.076,0.293,4.23c-1.205,1.076-3.17,0.713-4.496-0.771
				c-0.69-0.773-1.021-1.959-0.957-2.016c0.075-0.067,0.111-0.054,0.145-0.016c0.08,0.089,0.184,1.022,0.965,1.896
				c1.303,1.457,3.092,1.75,4.183,0.776c1.103-0.985,0.593-2.423-0.257-3.373c-1.426-1.597-4.125-2.423-5.861-0.871
				c-1.508,1.349-0.489,3.56,0.609,4.79c2.332,2.61,5.351,2.264,8.482,1.584c-0.639-0.842-0.832-1.9,0.043-2.682
				c2.725-2.436,7.812,1.727,9.08,3.146c0.022,0.025,0.008,0.086-0.03,0.12c-0.051,0.045-0.498-0.558-2.122-0.794
				c-1.863-0.273-3.98,0.546-5.967,0.977c1.025,0.815,2.574,0.686,2.643,0.762c0.033,0.039,0.032,0.062-0.031,0.119
				c-0.164,0.146-1.9-0.035-2.867-0.812c-2.687,0.668-4.541,0.685-6.828-0.396c-1.185-0.561-1.999-1.269-2.668-2.016
				c-1.347-1.509-1.969-3.939-0.271-5.457C60.865,126.892,63.757,127.704,65.093,129.2z M76.448,135.354
				c-0.033-0.038-0.043-0.075-0.077-0.112c-0.544-0.608-5.103-4.333-7.738-1.977c-0.608,0.543-0.913,1.248-0.215,2.105
				c2.737-0.712,6.288-0.922,8.006,0.006L76.448,135.354z"/>
			<path fill="#947F28" d="M91.597,128.398c1.697,1.518,1.075,3.948-0.271,5.457c-0.669,0.747-1.483,1.455-2.668,2.016
				c-2.287,1.08-4.142,1.063-6.828,0.396c-0.967,0.777-2.703,0.959-2.867,0.812c-0.063-0.057-0.064-0.08-0.031-0.119
				c0.068-0.076,1.617,0.054,2.643-0.762c-1.986-0.431-4.104-1.25-5.967-0.977c-1.624,0.236-2.071,0.839-2.122,0.794
				c-0.038-0.034-0.053-0.095-0.03-0.12c1.268-1.42,6.355-5.582,9.08-3.146c0.875,0.781,0.682,1.84,0.043,2.682
				c3.132,0.68,6.15,1.026,8.482-1.584c1.099-1.23,2.117-3.441,0.609-4.79c-1.736-1.552-4.436-0.726-5.861,0.871
				c-0.85,0.95-1.359,2.388-0.257,3.373c1.091,0.974,2.88,0.681,4.183-0.776c0.781-0.874,0.885-1.808,0.965-1.896
				c0.033-0.038,0.069-0.052,0.145,0.016c0.064,0.057-0.267,1.242-0.957,2.016c-1.326,1.484-3.291,1.848-4.496,0.771
				c-1.293-1.154-0.773-3.039,0.293-4.23C87.019,127.704,89.91,126.892,91.597,128.398z M74.352,135.376
				c1.718-0.928,5.269-0.718,8.006-0.006c0.698-0.857,0.394-1.562-0.215-2.105c-2.636-2.356-7.194,1.368-7.738,1.977
				c-0.034,0.037-0.044,0.074-0.077,0.112L74.352,135.376z"/>
			<circle fill="#947F28" cx="77.402" cy="130.282" r="0.75"/>
			<circle fill="#947F28" cx="73.319" cy="130.282" r="0.75"/>
		</g>
		<rect x="17.947" y="88.168" fill="#947F28" width="113.387" height="1"/>
	</g>
	<g>
		<g>
			<g>
				<g>
					<path fill-rule="evenodd" clip-rule="evenodd" fill="#947F28" d="M90.842,41.497h-0.188v-0.555h-0.553v-0.74h0.553
						c-0.016-0.783-0.09-0.962-0.74-1.109v-0.186h0.928v0.554c0.369-0.11,0.158,0.027,0.369-0.185h0.186v-0.556h-0.555v-0.739
						c0.369-0.112,0.158,0.025,0.369-0.185c0.441-0.736-1.082-0.694,0.186-1.481c-0.066-0.626,0-0.596-0.555-0.74v-0.37
						c0.184-0.062,0.369-0.123,0.555-0.185c-0.018-0.707,0.037-0.772-0.555-0.927c0.121-0.477,0.189-0.531,0.555-0.737v-0.373
						c-0.186-0.061-0.371-0.121-0.555-0.185v-0.738c0.369-0.113,0.158,0.024,0.369-0.186h0.186v-0.557
						c-0.625,0.068-0.688,0.136-0.926,0.557h-0.369v-0.187c0.186-0.061,0.369-0.123,0.553-0.186v-0.924
						c-0.738-0.203-0.723-0.76-1.295-1.111v-0.371c0.371-0.108,0.16,0.027,0.371-0.185h0.184v-0.555h-0.555v-0.185h-0.184v-0.556
						c-0.184-0.061-0.369-0.123-0.557-0.184c-0.061-0.126-0.123-0.248-0.184-0.371c0.51-0.236,0.664-0.21,0.74-0.925h-0.74v0.554
						H88.25c-0.156,0.21,0.025,0.029-0.186,0.186c-0.107-0.282-0.148-0.302-0.184-0.739c0.369-0.112,0.158,0.026,0.369-0.185
						c0.207-0.211,0.078,0,0.186-0.372c-0.295-0.113-0.439-0.17-0.926-0.185c0.062-0.124,0.123-0.247,0.186-0.37
						c-0.029-0.26-0.025,0.022-0.186-0.184c-0.209-0.208,0.002-0.08-0.371-0.187c-0.061,0.187-0.123,0.37-0.186,0.556h-0.738v-0.556
						h-0.74v0.556h-0.186c-0.211,0.207,0.002,0.079-0.369,0.185c-0.109-0.282-0.148-0.301-0.188-0.74h-0.74
						c-0.061,0.246-0.121,0.493-0.184,0.74c-0.209-0.159-0.029,0.025-0.186-0.185h-0.371v-0.186c0.242-0.153,0.223-0.128,0.371-0.37
						h0.369v-0.74h-0.555V23.73h-0.186v-0.556c-0.367-0.108-0.158,0.027-0.367-0.185h-0.188c-0.137-0.386,0.207-0.445,0.371-0.554
						c-0.061-0.567-0.125-0.593-0.371-0.927h-0.184c-0.334-0.569,0.324-0.498-0.557-0.74c0.141-0.502,0.045-0.421,0.557-0.555v-0.74
						c-0.371-0.11-0.162,0.024-0.373-0.187h-0.184v-0.554h0.557v-0.741h-0.557v-0.924c-0.184,0.062-0.369,0.123-0.555,0.185v-0.185
						c-0.186-0.062-0.369-0.124-0.557-0.186v0.186c-0.207,0.156-0.027-0.025-0.184,0.185h0.371v0.739h-0.188v0.372
						c0.188-0.124,0.371-0.247,0.557-0.372c0.158,0.209-0.023,0.03,0.186,0.187c-0.141,0.503-0.045,0.42-0.555,0.555
						c0.061,0.246,0.121,0.493,0.184,0.74c0.371,0.111,0.16-0.025,0.371,0.186c0.295,0.416-0.453,0.536-0.186,1.296
						c0.123,0.062,0.246,0.123,0.371,0.185c0.127,0.52-0.316,0.414-0.371,0.554v0.742c-0.752,0.173-1.094,0.588-1.85,0.738v0.556
						h-0.186v0.186c-0.291,0.259-0.152-0.342-0.186-0.37h-0.186c-0.143,0.188-0.229,0.182-0.369,0.37h-0.371v0.186h0.555
						c-0.141,0.503-0.043,0.42-0.555,0.555v-0.555c-0.184,0.123-0.369,0.247-0.555,0.37c-0.371-0.617-0.74-1.234-1.111-1.852h-0.371
						c-0.133-0.533-0.197-0.612-0.739-0.74v-0.37c-0.09-0.156-2.045-1.23-2.406-1.295v0.369h0.555v0.186h0.186v0.556h0.556
						c0.157,0.207-0.024,0.029,0.186,0.185c-0.111,0.37,0.024,0.159-0.186,0.37v0.185h-0.556v0.556H74v0.186h0.555v0.74h0.554v0.185
						h0.187v0.555h-0.74v0.741h0.74v0.74h-0.555v-0.186h-0.186v-0.555H74c-0.158,0.208,0.023,0.029-0.187,0.186
						c0.112,0.368-0.025,0.159,0.187,0.369v0.186h0.555v0.74h0.74v0.741c0.185-0.062,0.371-0.124,0.556-0.186v0.186
						c-0.55,0.17-0.509,0.038-1.296,0v0.74h-0.741v0.74h-0.74v0.739h-0.555v-0.185h-0.187v-0.555h-0.554
						c-0.158,0.207,0.025,0.028-0.186,0.184c0.111,0.37-0.025,0.16,0.186,0.371v0.185h0.554v0.739h-0.739v0.741h-0.555v-0.184
						c-0.207-0.211-0.079,0.002-0.184-0.371c0.281-0.108,0.301-0.148,0.738-0.187v-0.739h-0.555v0.186h-0.184v0.554h-0.558v-0.184
						c-0.207-0.212-0.078,0.002-0.184-0.37c0.247-0.123,0.493-0.247,0.741-0.37v-0.371c0.303-0.311,0.426-0.082,0.738,0v-0.924
						h-0.738v0.74h-0.558v-0.187h-0.184v-0.554h-0.555v-0.187h-0.186v-0.554h-0.556v-0.186h-0.185v-0.556h-0.741v0.741h0.556v0.186
						c0.471,0.387,0.076,0.433,0.926,0.555v0.554h-0.187v0.187c-0.342,0.117-0.261-0.109-0.369-0.187h-0.185
						c0.062-0.185,0.122-0.369,0.185-0.554h-0.741v-0.187h-0.185v-0.554h-0.739v0.74h-0.557v-0.187h-0.186v-0.554h-0.554v-0.186
						h-0.186v-0.556h-0.739v0.741h-0.557v-0.186h-0.184v-0.556h-0.556v-0.185c-0.208-0.211-0.079,0.001-0.186-0.369
						c0.283-0.109,0.301-0.148,0.741-0.187v-0.74h-0.556v0.186h-0.186v0.555h-0.741v-0.74h-0.555v-0.184
						c-0.207-0.212-0.079,0.002-0.185-0.371c0.283-0.108,0.301-0.148,0.739-0.187v0.741h0.741v-0.741h-0.556v-0.184h-0.186v-0.556
						H61.97v0.739h-0.74v0.741h0.74v0.74h0.555v0.187h0.185v0.554h0.741v0.741h-0.556v-0.186h-0.186v-0.556H61.97v0.556h0.185v0.186
						h0.555v0.74h0.741c-0.079,0.703-0.228,0.703-0.741,0.924c0.112,0.37-0.026,0.16,0.186,0.371v0.185h0.556v0.739h-0.556v-0.184
						h-0.186v-0.556H61.97v0.739h-0.557v0.187H61.23v0.555h-0.556v-0.184c-0.207-0.211-0.078,0.002-0.186-0.371
						c0.283-0.108,0.302-0.148,0.741-0.187v-0.739h-0.741v0.739h-0.554v-0.184H59.75v-0.556h-0.556v0.186h-0.186
						c0.112,0.37-0.025,0.158,0.186,0.37v0.184h0.556v0.558h0.186v0.184h0.554v0.74h-0.554v-0.186H59.75v-0.555h-0.741v0.74h0.741
						v0.74h0.739v0.741h-0.554v-0.187H59.75v-0.555h-0.741v0.741h0.741v0.74h0.739v0.74h-0.554v-0.184H59.75V33.91h-0.741v0.557
						h0.186v0.184h0.556c0.062,0.246,0.123,0.493,0.186,0.739h0.554v0.557h0.186v0.185h0.556v0.37
						c0.086,0.149,1.385,0.693,1.665,0.741v-0.371c0.37,0.11,0.16-0.026,0.37,0.185h0.186c-0.062,0.187-0.124,0.37-0.186,0.555
						h0.927c0.095,0.04,0.253,0.635,0.923,0.371c0,0,0.299-0.331,0.372-0.371c0.062,0.187,0.123,0.371,0.185,0.557h0.925V37.61
						c0.503,0.143,0.421,0.046,0.557,0.557h0.924v-0.37h0.557v0.37c0.308-0.062,0.616-0.123,0.926-0.186v-0.185
						c0.677-0.062,1.356-0.124,2.034-0.187c0.062-0.185,0.124-0.368,0.186-0.555h0.371c0.325,0.233,1.195-0.195,1.479-0.555
						c0.356,0.296,0.646,0.942,0.741,1.48c0.208,0.158,0.029-0.023,0.186,0.186c-0.186,0.06-0.371,0.123-0.555,0.184
						c-0.112,0.37,0.024,0.159-0.187,0.37v0.187h0.556c0.111,0.368-0.024,0.159,0.186,0.369v0.185h0.554v-0.554h0.187v-0.187h0.556
						c0.061-0.247,0.121-0.494,0.184-0.739c0.369,0.111,0.16-0.026,0.371,0.186h0.184v0.554h-0.555v0.187
						c-0.471,0.387-0.076,0.434-0.926,0.554c-0.11,0.371,0.025,0.159-0.185,0.371v0.184H74.37v-0.555H74
						c0,0-0.027-0.719-0.187-0.368c-0.257,0.044,0.078,0.174-0.186,0.184c-0.157-0.208,0.026-0.028-0.184-0.184
						c0.062,0.307,0.122,0.615,0.184,0.923c0,0.004-0.308,0.086-0.184,0.372h0.184v0.185c0.125-0.062,0.248-0.123,0.372-0.185
						v-0.186c0.251-0.071-0.074,0.147,0.184,0.186c0.483,0.069,0.734-0.141,0.925-0.372c1.295,0.097,1.309,1.018,2.407,1.297v0.185
						h0.186v-0.37h0.186v0.557h0.186v0.184c0.309,0.062,0.615,0.124,0.924,0.186v0.185h0.557v0.186h0.553v0.185h0.74v0.187
						c0.594,0.178,1.178-0.241,1.482-0.187v0.187h1.109v-0.187c0.494,0.063,0.988,0.124,1.482,0.187
						c0.061-0.123,0.123-0.247,0.184-0.371c0.186,0.124,0.371,0.248,0.557,0.371v-0.187c0.492-0.061,0.986-0.123,1.479-0.185v-0.739
						c0.439,0.118,0.348,0.051,0.557,0.369h0.555v-0.186h0.186v-0.184h-0.555v-0.187c-0.207-0.209-0.08,0.003-0.186-0.37
						c0.281-0.108,0.301-0.146,0.74-0.185v0.555h0.184v0.187c0.188-0.063,0.373-0.124,0.557-0.187
						c-0.062,0.123-0.123,0.248-0.184,0.37l0.184,0.186c-0.24,0.152-0.221,0.127-0.369,0.37h-0.371
						c-0.068,0.624-0.135,0.688-0.555,0.925v0.741c0.184-0.062,0.369-0.123,0.555-0.187c0.061-0.245,0.123-0.493,0.184-0.739h0.557
						v0.556h0.184v0.184h0.555v-0.555h0.188v-0.185h0.553v-0.74h-0.74v0.74h-0.555v-0.185c-0.205-0.209-0.078,0.002-0.184-0.371
						c0.281-0.107,0.301-0.147,0.738-0.185v-0.739c-0.533-0.135-0.611-0.199-0.738-0.741h-0.557v-0.186
						c-0.207-0.21-0.078,0.001-0.184-0.369h0.184c0.211-0.207-0.002-0.079,0.373-0.186c0.1,0.241,0.07-0.051,0.184,0.186v0.555
						h0.184v0.185h0.555v0.557h0.74v0.739h0.742v-0.739h-0.555V41.497z M90.471,32.983v0.373h-0.184V33.17
						c-0.209-0.158-0.029,0.024-0.186-0.187H90.471z M90.471,34.467v0.368h-0.184V34.65c-0.209-0.159-0.029,0.024-0.186-0.184
						H90.471z M90.102,35.946h0.369v0.369h-0.369V35.946z M90.287,37.242h0.184c0.158,0.323-0.105,0.462-0.184,0.555v0.185h-0.186
						C90.145,37.545,90.18,37.524,90.287,37.242z M74,28.912v-0.184h0.184v0.555h-0.37C73.926,28.913,73.789,29.124,74,28.912z
						 M73.26,29.653c0.209-0.207-0.002-0.078,0.368-0.186c0.062,0.186,0.125,0.371,0.186,0.556h0.37v0.37h-0.37v-0.37h-0.186
						c0.001,0.197-0.16,0.305-0.368,0.184v-0.184c-0.208-0.212-0.08,0.002-0.187-0.37H73.26z M72.519,30.207
						c0.368,0.113,0.159-0.024,0.37,0.187h0.185v0.555h-0.555v-0.184h-0.187C72.395,30.579,72.458,30.394,72.519,30.207z
						 M71.779,31.134c0.21-0.207-0.002-0.079,0.371-0.186c0.108,0.283,0.146,0.302,0.183,0.74h-0.554v-0.186
						c-0.207-0.21-0.08,0.003-0.186-0.369H71.779z M71.039,31.688c0.184,0.062,0.37,0.124,0.555,0.187
						c-0.11,0.367,0.026,0.158-0.185,0.369c-0.211,0.207,0.002,0.079-0.37,0.185v-0.185h-0.184
						C70.916,32.061,70.978,31.875,71.039,31.688z M70.297,30.948c0.371,0.111,0.16-0.025,0.371,0.186h0.187v0.555h-0.558v-0.186
						h-0.184C70.174,31.318,70.236,31.134,70.297,30.948z M70.114,32.983c0.061-0.185,0.122-0.369,0.184-0.555
						c0.186,0.062,0.371,0.123,0.558,0.186c-0.114,0.369,0.024,0.159-0.187,0.369c-0.209,0.209,0.001,0.08-0.371,0.187v-0.187
						H70.114z M69.374,31.875h0.186c0.209-0.207-0.004-0.08,0.368-0.187c0.109,0.282,0.149,0.301,0.187,0.74h-0.555v-0.185
						C69.35,32.033,69.48,32.245,69.374,31.875z M68.633,32.983c0.062-0.185,0.122-0.369,0.185-0.555
						c0.185,0.062,0.369,0.123,0.556,0.186c-0.111,0.369,0.024,0.159-0.187,0.369c-0.209,0.209,0.002,0.08-0.369,0.187v-0.187
						H68.633z M67.892,33.725c0.062-0.186,0.124-0.368,0.185-0.555c0.186,0.062,0.371,0.123,0.557,0.187
						c-0.111,0.368,0.025,0.158-0.186,0.368c-0.21,0.207,0.001,0.079-0.371,0.186v-0.186H67.892z M67.707,32.983
						c-0.21,0.209,0.001,0.08-0.369,0.187v-0.187h-0.185c0.062-0.185,0.123-0.369,0.185-0.555c0.185,0.062,0.369,0.123,0.555,0.186
						C67.782,32.983,67.917,32.773,67.707,32.983z M67.892,34.094c-0.142,0.504-0.044,0.423-0.555,0.557v-0.74
						C67.522,33.972,67.707,34.033,67.892,34.094z M66.411,33.725c0.063-0.186,0.124-0.368,0.186-0.555
						c0.369,0.11,0.16-0.026,0.371,0.187h0.186v0.554h-0.557v-0.186H66.411z M64.932,35.205c0.062-0.185,0.121-0.37,0.183-0.555
						c0.186,0.061,0.372,0.123,0.557,0.185c-0.111,0.37,0.026,0.159-0.185,0.37c-0.21,0.207,0.002,0.079-0.372,0.185v-0.185H64.932z
						 M64.192,34.467c0.061-0.187,0.121-0.373,0.184-0.557c0.186,0.062,0.371,0.123,0.557,0.184
						c-0.113,0.371,0.025,0.162-0.186,0.373c-0.21,0.207,0.002,0.076-0.371,0.184v-0.184H64.192z M63.451,35.205
						c0.062-0.185,0.123-0.37,0.186-0.555c0.185,0.061,0.369,0.123,0.556,0.185c-0.111,0.37,0.024,0.159-0.187,0.37
						c-0.209,0.207,0.002,0.079-0.369,0.185v-0.185H63.451z M61.97,34.835h0.185c0.211-0.207-0.001-0.077,0.37-0.185
						c0.109,0.282,0.148,0.302,0.185,0.739h-0.555v-0.185C61.948,34.995,62.076,35.207,61.97,34.835z M61.23,34.094
						c0.282-0.107,0.301-0.146,0.74-0.184v0.74h-0.557v-0.184C61.208,34.256,61.335,34.467,61.23,34.094z M61.23,32.614
						c0.282-0.108,0.301-0.147,0.74-0.186v0.741h-0.557v-0.187C61.208,32.775,61.335,32.987,61.23,32.614z M62.155,33.91v-0.186
						c-0.207-0.21-0.079,0.002-0.185-0.368h0.185c0.211-0.208-0.001-0.08,0.37-0.187c0.109,0.281,0.148,0.301,0.185,0.74H62.155z
						 M62.709,32.983c0.062-0.185,0.124-0.369,0.186-0.555c0.186,0.062,0.37,0.123,0.556,0.186c-0.11,0.369,0.025,0.159-0.186,0.369
						c-0.209,0.209,0.002,0.08-0.37,0.187v-0.187H62.709z M62.155,32.429v-0.185c-0.207-0.211-0.079,0.001-0.185-0.369h0.185
						c0.211-0.207-0.001-0.08,0.37-0.187c0.109,0.282,0.148,0.301,0.185,0.74H62.155z M62.895,33.91
						c0.186,0.062,0.37,0.123,0.556,0.184c-0.11,0.371,0.025,0.162-0.186,0.373v0.184c-0.343,0.117-0.264-0.109-0.37-0.184h-0.186
						C62.771,34.28,62.833,34.094,62.895,33.91z M63.636,33.91v-0.186c-0.208-0.21-0.079,0.002-0.186-0.368h0.186
						c0.21-0.208-0.002-0.08,0.369-0.187c0.109,0.281,0.148,0.301,0.187,0.74H63.636z M67.892,30.394h0.185
						c0.211-0.207-0.001-0.08,0.371-0.187c0.107,0.283,0.147,0.301,0.186,0.741h-0.557v-0.184
						C67.87,30.554,67.999,30.767,67.892,30.394z M67.892,30.207h-0.555v-0.184c-0.207-0.212-0.079,0.002-0.185-0.37
						c0.282-0.108,0.301-0.149,0.739-0.186V30.207z M67.337,30.948c0.185,0.062,0.369,0.124,0.555,0.186
						c-0.11,0.369,0.025,0.159-0.186,0.369v0.186c-0.344,0.117-0.262-0.106-0.369-0.186h-0.185
						C67.214,31.318,67.276,31.134,67.337,30.948z M66.967,30.765c-0.21,0.207,0,0.077-0.371,0.184v-0.184h-0.186
						c0.063-0.186,0.124-0.371,0.186-0.558c0.186,0.063,0.371,0.126,0.557,0.187C67.041,30.762,67.178,30.553,66.967,30.765z
						 M66.227,30.023c-0.212,0.207,0.002,0.079-0.37,0.184v-0.184h-0.186c0.062-0.185,0.123-0.37,0.186-0.556
						c0.186,0.062,0.37,0.124,0.554,0.186C66.3,30.023,66.438,29.812,66.227,30.023z M66.411,31.134
						c-0.11,0.369,0.027,0.159-0.184,0.369v0.186c-0.343,0.117-0.264-0.106-0.37-0.186h-0.186c0.062-0.185,0.123-0.369,0.186-0.555
						C66.042,31.01,66.227,31.072,66.411,31.134z M65.115,29.468v-0.185c-0.206-0.21-0.077,0.002-0.183-0.371h0.183
						c0.213-0.207-0.001-0.079,0.372-0.184c0.108,0.282,0.147,0.302,0.185,0.739H65.115z M65.115,30.207
						c0.371,0.113,0.161-0.024,0.372,0.187h0.185v0.555h-0.557v-0.184h-0.183C64.994,30.579,65.053,30.394,65.115,30.207z
						 M64.932,32.244c0.062-0.184,0.121-0.369,0.183-0.556c0.186,0.062,0.372,0.124,0.557,0.187
						c-0.111,0.367,0.026,0.158-0.185,0.369c-0.21,0.207,0.002,0.079-0.372,0.185v-0.185H64.932z M64.932,30.207h-0.557v-0.184
						c-0.207-0.212-0.078,0.002-0.184-0.37c0.282-0.108,0.3-0.149,0.74-0.186V30.207z M64.932,30.948v0.555h-0.186
						c-0.21,0.209,0.002,0.079-0.371,0.186v-0.186c-0.207-0.21-0.078,0.003-0.184-0.369C64.474,31.025,64.492,30.986,64.932,30.948z
						 M64.375,32.429c0.186,0.062,0.371,0.123,0.557,0.186c-0.113,0.369,0.025,0.159-0.186,0.369
						c-0.21,0.209,0.002,0.08-0.371,0.187v-0.187h-0.184C64.252,32.799,64.313,32.614,64.375,32.429z M63.636,32.429v-0.185
						c-0.208-0.211-0.079,0.001-0.186-0.369h0.186c0.21-0.207-0.002-0.08,0.369-0.187c0.109,0.282,0.148,0.301,0.187,0.74H63.636z
						 M65.487,33.725c-0.21,0.207,0.002,0.079-0.372,0.186v-0.186h-0.183c0.062-0.186,0.121-0.368,0.183-0.555
						c0.186,0.062,0.372,0.123,0.557,0.187C65.56,33.725,65.698,33.515,65.487,33.725z M65.857,33.91
						c0.186,0.062,0.37,0.123,0.554,0.184c-0.11,0.371,0.027,0.162-0.184,0.373v0.184c-0.343,0.117-0.264-0.109-0.37-0.184h-0.186
						C65.734,34.28,65.794,34.094,65.857,33.91z M66.227,32.983c-0.212,0.209,0.002,0.08-0.37,0.187v-0.187h-0.186
						c0.062-0.185,0.123-0.369,0.186-0.555c0.186,0.062,0.37,0.123,0.554,0.186C66.3,32.983,66.438,32.773,66.227,32.983z
						 M66.967,32.244c-0.21,0.207,0,0.079-0.371,0.185v-0.185h-0.186c0.063-0.184,0.124-0.369,0.186-0.556
						c0.186,0.062,0.371,0.124,0.557,0.187C67.041,32.242,67.178,32.033,66.967,32.244z M68.448,32.244
						c-0.21,0.207,0.001,0.079-0.371,0.185v-0.185h-0.185c0.062-0.184,0.124-0.369,0.185-0.556c0.186,0.062,0.371,0.124,0.557,0.187
						C68.522,32.242,68.659,32.033,68.448,32.244z M69.187,31.503c-0.209,0.209,0.002,0.079-0.369,0.186v-0.186h-0.185
						c0.062-0.185,0.122-0.369,0.185-0.555c0.185,0.062,0.369,0.124,0.556,0.186C69.262,31.503,69.398,31.293,69.187,31.503z
						 M69.374,30.394h0.186c0.209-0.207-0.004-0.08,0.368-0.187c0.109,0.283,0.149,0.301,0.187,0.741h-0.555v-0.184
						C69.35,30.554,69.48,30.767,69.374,30.394z M70.114,28.729v0.739h-0.555v-0.185c-0.209-0.21-0.079,0.002-0.186-0.371
						C69.655,28.804,69.674,28.765,70.114,28.729z M68.818,29.468c0.369,0.112,0.159-0.025,0.369,0.186h0.187v0.554h-0.556v-0.184
						h-0.185C68.695,29.839,68.755,29.653,68.818,29.468z M68.077,28.912c0.211-0.207-0.001-0.079,0.371-0.184
						c0.107,0.282,0.147,0.302,0.186,0.739h-0.557v-0.185c-0.207-0.21-0.078,0.002-0.185-0.371H68.077z M67.892,27.988v0.554h-0.186
						c-0.21,0.207,0.001,0.079-0.369,0.187v-0.187c-0.207-0.209-0.079,0.003-0.185-0.369C67.435,28.065,67.454,28.023,67.892,27.988
						z M66.596,28.912c0.21-0.207-0.001-0.079,0.371-0.184c0.108,0.282,0.147,0.302,0.186,0.739h-0.557v-0.185
						c-0.207-0.21-0.079,0.002-0.186-0.371H66.596z M66.411,27.988v0.74h-0.554v-0.187c-0.207-0.209-0.078,0.003-0.186-0.369
						C65.955,28.065,65.971,28.023,66.411,27.988z M65.671,27.248v0.74h-0.557v-0.187c-0.206-0.209-0.077,0.003-0.183-0.368
						C65.213,27.323,65.233,27.285,65.671,27.248z M64.375,28.173c0.21-0.208-0.002-0.079,0.371-0.185
						c0.108,0.281,0.147,0.301,0.186,0.74h-0.557v-0.187c-0.207-0.209-0.078,0.003-0.184-0.369H64.375z M63.636,27.434
						c0.21-0.21-0.002-0.079,0.369-0.186c0.109,0.282,0.148,0.301,0.187,0.74h-0.556v-0.187c-0.208-0.209-0.079,0.003-0.186-0.368
						H63.636z M64.192,28.729v0.739h-0.556v-0.185c-0.208-0.21-0.079,0.002-0.186-0.371C63.734,28.804,63.751,28.765,64.192,28.729z
						 M63.636,30.207c0.185,0.063,0.369,0.126,0.556,0.187c-0.111,0.368,0.024,0.159-0.187,0.371
						c-0.209,0.207,0.002,0.077-0.369,0.184v-0.184h-0.186C63.512,30.579,63.574,30.394,63.636,30.207z M62.895,31.134
						c0.21-0.207-0.001-0.079,0.37-0.186c0.108,0.283,0.148,0.302,0.186,0.74h-0.556v-0.186c-0.207-0.21-0.08,0.003-0.186-0.369
						H62.895z M62.709,30.207v0.741h-0.555v-0.184c-0.207-0.211-0.079,0.002-0.185-0.371C62.253,30.285,62.271,30.245,62.709,30.207
						z M61.97,30.948v0.74h-0.557v-0.186c-0.206-0.21-0.078,0.003-0.184-0.369C61.512,31.025,61.531,30.986,61.97,30.948z
						 M61.23,31.688v0.74h-0.556v-0.185c-0.207-0.211-0.078,0.001-0.186-0.369C60.772,31.767,60.791,31.727,61.23,31.688z
						 M60.674,33.356c0.21-0.208-0.002-0.08,0.372-0.187c0.106,0.281,0.146,0.301,0.184,0.74h-0.556v-0.186
						c-0.207-0.21-0.078,0.002-0.186-0.368H60.674z M60.674,35.39v-0.185c-0.207-0.21-0.078,0.002-0.186-0.37
						c0.283-0.109,0.302-0.147,0.741-0.185v0.739H60.674z M61.785,35.946c-0.21,0.207,0.002,0.078-0.371,0.185v-0.185H61.23
						c0.062-0.185,0.124-0.371,0.184-0.557c0.187,0.062,0.371,0.124,0.557,0.186C61.859,35.945,61.996,35.735,61.785,35.946z
						 M62.525,36.686v0.186c-0.184-0.062-0.37-0.122-0.555-0.186c0.11-0.37-0.025-0.159,0.185-0.37
						c0.211-0.207-0.001-0.08,0.37-0.185c0.158,0.207-0.024,0.03,0.185,0.185C62.6,36.686,62.737,36.476,62.525,36.686z
						 M63.265,35.946c-0.209,0.207,0.002,0.078-0.37,0.185v-0.185h-0.186c0.062-0.185,0.124-0.371,0.186-0.557
						c0.186,0.062,0.37,0.124,0.556,0.186C63.34,35.945,63.476,35.735,63.265,35.946z M64.005,36.686v0.186
						c-0.343,0.117-0.263-0.108-0.369-0.186h-0.186c0.062-0.185,0.123-0.37,0.186-0.555c0.185,0.061,0.369,0.124,0.556,0.185
						C64.081,36.686,64.216,36.476,64.005,36.686z M64.192,35.946c0.061-0.185,0.121-0.371,0.184-0.557
						c0.186,0.062,0.371,0.124,0.557,0.186c-0.113,0.37,0.025,0.16-0.186,0.371c-0.21,0.207,0.002,0.078-0.371,0.185v-0.185H64.192z
						 M64.375,37.61v-0.739c0.186,0.062,0.371,0.122,0.557,0.185C64.791,37.561,64.886,37.479,64.375,37.61z M65.487,36.686
						c-0.21,0.208,0.002,0.078-0.372,0.186v-0.186h-0.183c0.062-0.185,0.121-0.37,0.183-0.555c0.186,0.061,0.372,0.124,0.557,0.185
						C65.56,36.686,65.698,36.476,65.487,36.686z M66.227,37.426c-0.159,0.209,0.025,0.03-0.185,0.185
						c-0.11-0.283-0.147-0.3-0.186-0.739c0.186,0.062,0.37,0.122,0.554,0.185C66.3,37.426,66.438,37.215,66.227,37.426z
						 M65.857,36.131c-0.062-0.185-0.123-0.369-0.186-0.556c0.186-0.062,0.371-0.123,0.556-0.186
						c0.157,0.21-0.025,0.029,0.184,0.186C66.272,36.079,66.367,35.998,65.857,36.131z M66.411,35.205
						c0.063-0.185,0.124-0.37,0.186-0.555c0.186,0.061,0.371,0.123,0.557,0.185c-0.112,0.37,0.025,0.159-0.186,0.37
						c-0.21,0.207,0,0.079-0.371,0.185v-0.185H66.411z M66.596,36.871v-0.74c0.186,0.061,0.371,0.124,0.557,0.185
						C67.01,36.819,67.108,36.736,66.596,36.871z M67.707,37.426c-0.157,0.209,0.026,0.03-0.185,0.185
						c-0.109-0.283-0.147-0.3-0.185-0.739c0.185,0.062,0.369,0.122,0.555,0.185C67.782,37.426,67.917,37.215,67.707,37.426z
						 M67.707,35.946v0.185c-0.344,0.117-0.262-0.108-0.369-0.185h-0.185c0.062-0.185,0.123-0.371,0.185-0.557
						c0.185,0.062,0.369,0.124,0.555,0.186C67.782,35.945,67.917,35.735,67.707,35.946z M67.892,35.205
						c0.062-0.185,0.124-0.37,0.185-0.555c0.186,0.061,0.371,0.123,0.557,0.185c-0.111,0.37,0.025,0.159-0.186,0.37v0.185
						c-0.343,0.118-0.264-0.107-0.371-0.185H67.892z M68.448,36.686c-0.158,0.21,0.024,0.029-0.186,0.186
						c-0.108-0.283-0.147-0.301-0.186-0.74c0.186,0.061,0.371,0.124,0.557,0.185C68.522,36.686,68.659,36.476,68.448,36.686z
						 M69.187,37.426c-0.156,0.209,0.025,0.03-0.185,0.185c-0.108-0.283-0.148-0.3-0.185-0.739c0.185,0.062,0.369,0.122,0.556,0.185
						C69.262,37.426,69.398,37.215,69.187,37.426z M69.187,35.946v0.185c-0.342,0.117-0.261-0.108-0.369-0.185h-0.185
						c0.062-0.185,0.122-0.371,0.185-0.557c0.185,0.062,0.369,0.124,0.556,0.186C69.262,35.945,69.398,35.735,69.187,35.946z
						 M68.818,34.65v-0.74c0.185,0.062,0.369,0.123,0.556,0.184C69.231,34.598,69.33,34.517,68.818,34.65z M69.374,33.725
						c0.061-0.186,0.123-0.368,0.186-0.555c0.368,0.11,0.157-0.026,0.368,0.187h0.187v0.554h-0.555v-0.186H69.374z M69.927,36.686
						c-0.157,0.21,0.025,0.029-0.184,0.186c-0.11-0.283-0.148-0.301-0.185-0.74c0.185,0.061,0.368,0.124,0.555,0.185
						C70.001,36.686,70.139,36.476,69.927,36.686z M69.927,35.205c-0.157,0.209,0.025,0.028-0.184,0.185
						c-0.11-0.282-0.148-0.302-0.185-0.739c0.185,0.061,0.368,0.123,0.555,0.185C70.001,35.205,70.139,34.994,69.927,35.205z
						 M70.855,37.242c-0.187,0.061-0.372,0.123-0.558,0.184v-0.555c0.371,0.11,0.16-0.026,0.371,0.185h0.187V37.242z M70.668,35.946
						c-0.158,0.207,0.024,0.028-0.186,0.185c-0.107-0.281-0.147-0.301-0.186-0.741c0.186,0.062,0.371,0.124,0.558,0.186
						C70.741,35.945,70.879,35.735,70.668,35.946z M70.668,34.467c-0.209,0.207,0.001,0.076-0.371,0.184v-0.184h-0.184
						c0.061-0.187,0.122-0.373,0.184-0.557c0.186,0.062,0.371,0.123,0.558,0.184C70.741,34.465,70.879,34.256,70.668,34.467z
						 M71.039,36.686v-0.555c0.504,0.141,0.422,0.044,0.555,0.555H71.039z M71.039,35.39V34.65c0.184,0.061,0.37,0.123,0.555,0.185
						C71.453,35.338,71.551,35.257,71.039,35.39z M71.409,33.725c-0.211,0.207,0.002,0.079-0.37,0.186v-0.186h-0.184
						c0.061-0.186,0.123-0.368,0.184-0.555c0.184,0.062,0.37,0.123,0.555,0.187C71.483,33.725,71.62,33.515,71.409,33.725z
						 M72.15,35.946c-0.159,0.207,0.024,0.028-0.187,0.185c-0.172-0.564-0.184-0.171,0-0.741c0.123,0.062,0.247,0.124,0.369,0.186
						C72.222,35.945,72.361,35.735,72.15,35.946z M71.779,34.65v-0.74c0.185,0.062,0.371,0.123,0.554,0.184
						C72.193,34.598,72.29,34.517,71.779,34.65z M72.15,32.983c-0.212,0.209,0.002,0.08-0.371,0.187v-0.187h-0.186
						c0.062-0.185,0.124-0.369,0.186-0.555c0.185,0.062,0.371,0.123,0.554,0.186C72.222,32.983,72.361,32.773,72.15,32.983z
						 M72.889,36.686h-0.186v-0.185c-0.209-0.158-0.028,0.025-0.185-0.186h0.37V36.686z M72.519,35.205
						c0.112-0.37-0.025-0.16,0.185-0.37c0.159-0.209-0.025-0.028,0.186-0.185c0.062,0.185,0.124,0.37,0.185,0.555H72.519z
						 M72.889,33.725c-0.159,0.208,0.024,0.03-0.186,0.186c-0.106-0.282-0.147-0.301-0.185-0.74c0.185,0.062,0.37,0.123,0.555,0.187
						C72.963,33.725,73.1,33.515,72.889,33.725z M72.889,32.244c-0.211,0.207,0.001,0.079-0.37,0.185v-0.185h-0.187
						c0.062-0.184,0.125-0.369,0.187-0.556c0.185,0.062,0.37,0.124,0.555,0.187C72.963,32.242,73.1,32.033,72.889,32.244z
						 M73.26,30.948h0.368v0.555h-0.184c-0.159,0.21,0.024,0.03-0.185,0.186v-0.186h-0.187
						C73.135,31.318,73.198,31.134,73.26,30.948z M73.445,33.91v0.37c0.209,0.157,0.028-0.024,0.184,0.187H73.26V33.91H73.445z
						 M73.26,33.17v-0.741h0.185v0.741H73.26z M73.814,35.762c-0.186,0.06-0.369,0.122-0.554,0.185v-0.371h0.554V35.762z
						 M74.184,36.315H74v-0.369h0.184V36.315z M74.37,34.835h-0.556v-0.368h0.556V34.835z M74.37,33.356h-0.556v-0.373h0.556V33.356
						z M74.37,31.875h-0.556v-0.372h0.556V31.875z M74.924,38.721h-0.184v-0.184h-0.186c0.062-0.125,0.123-0.247,0.186-0.37
						C75.003,38.387,75.232,38.374,74.924,38.721z M75.109,37.056h-0.554v-0.37h0.554V37.056z M74.555,35.575
						c0.11-0.37-0.027-0.159,0.186-0.37c0.157-0.207-0.025-0.028,0.184-0.185c0.063,0.185,0.124,0.369,0.185,0.555H74.555z
						 M74.924,34.094c-0.157,0.21,0.026,0.029-0.184,0.187c-0.175-0.562-0.184-0.171,0-0.741c0.123,0.062,0.247,0.124,0.368,0.186
						C74.999,34.094,75.134,33.884,74.924,34.094z M74.924,32.614c-0.157,0.209,0.026,0.028-0.184,0.185
						c-0.175-0.563-0.184-0.171,0-0.738c0.123,0.062,0.247,0.121,0.368,0.184C74.999,32.614,75.134,32.403,74.924,32.614z
						 M74.924,31.134c-0.157,0.208,0.026,0.029-0.184,0.185c-0.175-0.563-0.184-0.171,0-0.739c0.123,0.062,0.247,0.122,0.368,0.186
						C74.999,31.134,75.134,30.923,74.924,31.134z M75.109,29.653h-0.554v-0.37h0.554V29.653z M75.295,37.797
						c0.11-0.371-0.025-0.159,0.185-0.371c0.159-0.208-0.024-0.028,0.186-0.184c0.061,0.184,0.123,0.368,0.186,0.555H75.295z
						 M75.295,36.315c0.11-0.369-0.025-0.159,0.185-0.369c0.159-0.21-0.024-0.03,0.186-0.185c0.061,0.185,0.123,0.369,0.186,0.554
						H75.295z M75.295,34.835c0.11-0.368-0.025-0.159,0.185-0.368c0.159-0.209-0.024-0.03,0.186-0.187
						c0.061,0.187,0.123,0.37,0.186,0.555H75.295z M75.666,33.356c-0.159,0.206,0.025,0.026-0.186,0.183
						c-0.107-0.281-0.147-0.301-0.185-0.74c0.185,0.063,0.371,0.124,0.556,0.185C75.738,33.353,75.875,33.144,75.666,33.356z
						 M75.666,31.875c-0.159,0.209,0.025,0.026-0.186,0.186c-0.172-0.564-0.183-0.174,0-0.742c0.124,0.062,0.247,0.123,0.372,0.185
						C75.738,31.873,75.875,31.664,75.666,31.875z M75.666,30.394c-0.159,0.209,0.025,0.029-0.186,0.186
						c-0.172-0.564-0.183-0.171,0-0.74c0.124,0.061,0.247,0.122,0.372,0.185C75.738,30.393,75.875,30.183,75.666,30.394z
						 M75.852,28.912h-0.556v-0.37h0.556V28.912z M89.73,38.537c-0.158,0.207,0.025,0.029-0.186,0.184
						c-0.061-0.184-0.123-0.37-0.186-0.554h0.555C89.805,38.536,89.941,38.325,89.73,38.537z M89.73,36.686v0.37h-0.371v-0.37H89.73
						z M89.359,35.575v-0.37h0.371v0.37H89.359z M89.359,30.765h0.371v0.369h-0.371V30.765z M89.359,32.244h0.371v0.37h-0.371
						V32.244z M89.73,33.725c-0.111,0.369,0.025,0.159-0.186,0.369c-0.156,0.21,0.025,0.029-0.186,0.187v-0.187
						c-0.209-0.157-0.027,0.026-0.184-0.184C89.359,33.848,89.545,33.786,89.73,33.725z M88.807,28.357h0.186
						c0.061,0.185,0.121,0.371,0.184,0.555h-0.369V28.357z M87.881,27.802h0.555v0.187c-0.186,0.062-0.371,0.123-0.555,0.185V27.802
						z M87.695,25.581c-0.113,0.37,0.025,0.161-0.186,0.372c-0.158,0.207,0.023,0.026-0.186,0.185
						c-0.062-0.185-0.123-0.371-0.186-0.557H87.695z M87.324,27.062c0.158-0.209-0.023-0.028,0.186-0.186
						c0.158,0.21-0.025,0.029,0.186,0.186v0.186c-0.186,0.06-0.371,0.122-0.557,0.186C87.252,27.063,87.113,27.272,87.324,27.062z
						 M84.92,26.138h0.555v-0.557h0.74c0.146,0.534,0.295,0.546,0.738,0.741c-0.109,0.369,0.027,0.157-0.184,0.369
						c-0.209,0.208,0.002,0.079-0.369,0.186c-0.109-0.282-0.148-0.302-0.186-0.739h-0.74v0.739H84.92V26.138z M84.18,25.396
						c0.367,0.111,0.156-0.025,0.367,0.185h0.186v0.186c-0.186,0.062-0.369,0.124-0.553,0.187V25.396z M83.623,26.322h0.186
						c0.117,0.343-0.107,0.263-0.186,0.369v0.186h-0.186C83.5,26.691,83.562,26.507,83.623,26.322z M82.885,24.102
						c0.367,0.11,0.156-0.026,0.367,0.184h-0.184c-0.158,0.21,0.025,0.029-0.184,0.187V24.102z M82.697,25.953
						c0.045-0.26,0.176,0.074,0.188-0.187c0.367,0.11,0.156-0.024,0.367,0.187c-0.207,0.157-0.027-0.026-0.184,0.185
						C83.068,26.138,82.348,26.111,82.697,25.953z M83.252,26.877v0.557h0.186v0.184h0.555v-0.555h0.188v-0.186h0.367v0.186
						c0.461,0.392,0.088,0.441,0.928,0.555v-0.555h0.186v-0.186h0.555v0.557c0.186,0.061,0.369,0.123,0.555,0.184
						c0.062,0.185,0.123,0.371,0.184,0.556h0.186v0.185h0.371c0.207,0.188,0.131,0.371,0.186,0.739h0.555
						c0.158,0.209-0.025,0.031,0.186,0.187c-0.141,0.504-0.043,0.421-0.555,0.556v0.74c0.502-0.142,0.422-0.044,0.555-0.556h0.74
						c-0.062,0.184-0.123,0.37-0.184,0.556h-0.557c0.078,0.703,0.227,0.703,0.74,0.924c-0.113,0.37,0.025,0.161-0.184,0.372v0.186
						h-0.557v0.554h0.184v0.185h0.557v0.74h-0.557c-0.156,0.209,0.025,0.03-0.184,0.186c0.145,0.533,0.295,0.546,0.74,0.742
						c-0.113,0.367,0.025,0.158-0.184,0.368v0.186c-0.613,0.188-0.477-0.582-0.742-0.74h-0.369
						c-0.158,0.209,0.023,0.028-0.186,0.187c0.111,0.367-0.025,0.158,0.186,0.368v0.186h0.555v0.741h-0.74v0.739h-0.557v-0.186
						c-0.207-0.21-0.078,0.002-0.186-0.369c0.283-0.11,0.303-0.148,0.742-0.185v-0.741h-0.557v0.185h-0.186v0.557H86.4
						c-0.16,0.206,0.023,0.026-0.186,0.185c0.109,0.369-0.025,0.158,0.186,0.369v0.186h0.553v0.741H86.4v-0.187h-0.186v-0.555H85.66
						v-0.186c-0.207-0.21-0.08,0.002-0.186-0.369c0.295-0.114,0.438-0.172,0.926-0.185c-0.109-0.283-0.148-0.302-0.186-0.741H85.66
						v0.185h-0.186v0.557h-0.742v0.554h0.188v0.186h0.555v0.741H84.92v-0.187h-0.188v-0.555H84.18v-0.186
						c-0.207-0.21-0.08,0.002-0.188-0.369c0.283-0.11,0.301-0.148,0.74-0.185v-0.741H84.18v-0.186h-0.188V34.28h-0.555v-0.187
						c-0.207-0.209-0.078,0.002-0.186-0.369c0.283-0.107,0.303-0.147,0.74-0.186v-0.556h0.188c0.385-0.469,0.434-0.075,0.553-0.923
						h-0.74v0.738h-0.555v-0.185h-0.186v-0.554h-0.555v-0.186c-0.207-0.21-0.078,0.002-0.184-0.372
						c0.281-0.107,0.301-0.147,0.738-0.185v-0.739h-0.738v0.739h-0.557v-0.185c-0.207-0.211-0.078,0.001-0.184-0.369
						c0.281-0.11,0.301-0.148,0.74-0.186v-0.74h-0.557v0.185h-0.184v0.556h-0.557v-0.186h-0.184v-0.555h-0.555
						c-0.062-0.247-0.125-0.493-0.186-0.742h-0.557v-0.185c-0.207-0.209-0.078,0.002-0.184-0.37h0.184v-0.185h0.369v0.185
						c0.461,0.394,0.088,0.442,0.928,0.555v-0.739h0.555v-0.185h0.186v-0.556h-0.557v-0.184h-0.184v-0.557h-0.555v-0.186
						c-0.209-0.209-0.08,0.003-0.186-0.369c0.123-0.062,0.246-0.125,0.369-0.185c0.26,0.028-0.021,0.026,0.184,0.185h0.188v-0.741
						h0.184c0.211-0.207,0-0.078,0.371-0.185c0.158,0.209-0.025,0.028,0.186,0.185c-0.146,0.534-0.295,0.546-0.74,0.741
						c0.111,0.369-0.027,0.157,0.184,0.369v0.186h0.557v0.557h0.184c0.213,0.207-0.002,0.077,0.371,0.184
						c0.107-0.281,0.148-0.301,0.186-0.74H83.252z M83.992,37.426c0.283-0.108,0.301-0.148,0.74-0.184v0.555h-0.186
						c-0.209,0.207,0.006,0.078-0.367,0.185v-0.185C83.973,37.586,84.1,37.799,83.992,37.426z M83.252,36.686h0.186
						c0.209-0.207-0.002-0.078,0.371-0.185c0.107,0.281,0.148,0.301,0.184,0.741h-0.555v-0.187
						C83.23,36.847,83.359,37.059,83.252,36.686z M83.068,36.315c-0.211,0.207,0.002,0.08-0.371,0.186v-0.186h-0.184
						c0.061-0.185,0.123-0.369,0.184-0.554c0.188,0.06,0.371,0.122,0.555,0.185C83.141,36.315,83.279,36.104,83.068,36.315z
						 M83.252,37.426c-0.139,0.504-0.043,0.422-0.555,0.556v-0.739C82.885,37.303,83.068,37.365,83.252,37.426z M81.033,37.797
						c0.061-0.187,0.121-0.371,0.184-0.555c0.186,0.061,0.371,0.123,0.557,0.184c-0.113,0.369,0.025,0.159-0.186,0.371
						c-0.209,0.207,0.002,0.078-0.371,0.185v-0.185H81.033z M80.105,36.315c-0.209,0.207,0.002,0.08-0.369,0.186v-0.186h-0.184
						c0.061-0.185,0.123-0.369,0.184-0.554c0.186,0.06,0.369,0.122,0.557,0.185C80.182,36.315,80.318,36.104,80.105,36.315z
						 M80.293,37.426c-0.143,0.504-0.045,0.422-0.557,0.556v-0.739C79.922,37.303,80.105,37.365,80.293,37.426z M78.072,36.315
						c0.062-0.185,0.123-0.369,0.184-0.554h0.555v0.739h-0.555v-0.186H78.072z M77.887,35.575c-0.158,0.209,0.023,0.029-0.186,0.187
						c-0.172-0.564-0.186-0.174,0-0.741c0.123,0.062,0.246,0.123,0.371,0.185C77.959,35.575,78.098,35.365,77.887,35.575z
						 M78.996,36.501l0.557,0.185c-0.111,0.369,0.025,0.159-0.186,0.37v0.187c-0.344,0.116-0.264-0.11-0.371-0.187h-0.186
						C78.873,36.871,78.934,36.686,78.996,36.501z M79.367,35.575c-0.211,0.207,0,0.079-0.371,0.187
						c-0.107-0.283-0.146-0.302-0.186-0.741c-0.369-0.111-0.158,0.024-0.369-0.186h-0.186V34.28
						c0.186,0.062,0.371,0.124,0.555,0.187v0.368c0.248,0.124,0.494,0.247,0.742,0.37C79.441,35.575,79.578,35.365,79.367,35.575z
						 M79.553,25.581h0.184c0.211-0.207-0.002-0.078,0.369-0.185c0.109,0.282,0.148,0.301,0.188,0.741h-0.557v-0.185
						C79.529,25.742,79.658,25.953,79.553,25.581z M79.736,27.062c0.211-0.207-0.002-0.078,0.369-0.186
						c0.109,0.282,0.148,0.302,0.188,0.74h-0.557v-0.184c-0.207-0.212-0.078,0-0.184-0.371H79.736z M80.479,27.617h0.555v0.556
						h-0.188v0.185c-0.342,0.118-0.262-0.108-0.367-0.185h-0.186C80.354,27.988,80.416,27.802,80.479,27.617z M79.367,26.691
						c-0.211,0.208,0,0.079-0.371,0.186v-0.186h-0.186c0.062-0.185,0.123-0.369,0.186-0.554c0.186,0.06,0.371,0.122,0.557,0.185
						C79.441,26.691,79.578,26.479,79.367,26.691z M78.996,27.617c0.186,0.062,0.371,0.124,0.557,0.185
						c-0.111,0.37,0.025,0.16-0.186,0.371v0.185c-0.344,0.118-0.264-0.108-0.371-0.185h-0.186
						C78.873,27.988,78.934,27.802,78.996,27.617z M83.068,32.799v0.185h0.184v0.556h-0.555v-0.183h-0.184v-0.558h-0.557v-0.185
						c-0.207-0.211-0.078,0.002-0.184-0.37c0.281-0.108,0.301-0.148,0.74-0.184v0.738H83.068z M83.252,35.205
						c0.283-0.107,0.303-0.146,0.74-0.185v0.555h-0.184c-0.211,0.207,0.002,0.079-0.371,0.187v-0.187
						C83.23,35.366,83.359,35.577,83.252,35.205z M82.697,35.021v-0.186c-0.207-0.21-0.078,0.001-0.184-0.368h0.184
						c0.211-0.209-0.002-0.08,0.371-0.187c0.109,0.282,0.148,0.301,0.184,0.74H82.697z M81.588,31.875
						c-0.209,0.207,0.002,0.077-0.371,0.186v-0.186h-0.184c0.061-0.187,0.121-0.372,0.184-0.557
						c0.186,0.062,0.371,0.123,0.557,0.185C81.66,31.873,81.799,31.664,81.588,31.875z M80.846,31.134v0.185
						c-0.342,0.117-0.262-0.108-0.367-0.185h-0.186c0.061-0.186,0.123-0.369,0.186-0.555c0.184,0.062,0.367,0.122,0.555,0.186
						C80.922,31.134,81.059,30.923,80.846,31.134z M80.105,30.394c-0.209,0.207,0.002,0.08-0.369,0.186v-0.186h-0.184
						c0.061-0.187,0.123-0.37,0.184-0.555c0.186,0.061,0.369,0.122,0.557,0.185C80.182,30.393,80.318,30.183,80.105,30.394z
						 M78.996,29.839v-0.742c0.186,0.062,0.371,0.126,0.557,0.187C79.41,29.787,79.508,29.704,78.996,29.839z M78.627,27.434
						c-0.158,0.207,0.025,0.027-0.186,0.184c-0.107-0.281-0.148-0.301-0.186-0.74c0.186,0.062,0.371,0.124,0.555,0.186
						C78.701,27.432,78.836,27.222,78.627,27.434z M78.811,28.542c-0.109,0.37,0.025,0.159-0.184,0.37
						c-0.158,0.21,0.025,0.03-0.186,0.185c-0.107-0.283-0.148-0.299-0.186-0.739C78.441,28.419,78.627,28.48,78.811,28.542z
						 M78.811,30.023c-0.109,0.369,0.025,0.159-0.184,0.37c-0.158,0.209,0.025,0.029-0.186,0.186
						c-0.107-0.284-0.148-0.302-0.186-0.74C78.441,29.899,78.627,29.961,78.811,30.023z M78.811,31.503
						c-0.109,0.37,0.025,0.161-0.184,0.372c-0.158,0.209,0.025,0.026-0.186,0.186c-0.107-0.284-0.148-0.303-0.186-0.742
						C78.441,31.381,78.627,31.441,78.811,31.503z M78.627,33.356c-0.158,0.206,0.025,0.026-0.186,0.183
						c-0.174-0.564-0.184-0.171,0-0.74c0.123,0.063,0.246,0.124,0.369,0.185C78.701,33.353,78.836,33.144,78.627,33.356z
						 M78.996,33.725c0.211-0.207-0.002-0.079,0.371-0.186c0.158,0.209-0.025,0.03,0.186,0.186
						c-0.111,0.369,0.025,0.159-0.186,0.369v0.187h-0.557v-0.556H78.996z M80.105,34.835c-0.156,0.208,0.025,0.029-0.184,0.186
						c-0.174-0.563-0.184-0.171,0-0.74c0.123,0.062,0.248,0.124,0.371,0.187C80.182,34.834,80.318,34.625,80.105,34.835z
						 M80.105,33.356c-0.156,0.206,0.025,0.026-0.184,0.183c-0.109-0.281-0.148-0.301-0.186-0.74
						c0.186,0.063,0.369,0.124,0.557,0.185C80.182,33.353,80.318,33.144,80.105,33.356z M80.105,31.875v0.186
						c-0.121-0.062-0.246-0.124-0.369-0.186c-0.111,0.295-0.17,0.438-0.184,0.924h-0.557v-0.185h-0.186
						c0.062-0.186,0.123-0.37,0.186-0.554c0.369-0.113,0.16,0.024,0.371-0.186h0.186v-0.557h-0.557v-0.185h-0.186
						c0.062-0.186,0.123-0.369,0.186-0.555c0.186,0.062,0.371,0.122,0.557,0.186v0.369c0.246,0.123,0.492,0.247,0.74,0.369
						C80.182,31.873,80.318,31.664,80.105,31.875z M80.479,32.061c0.184,0.062,0.367,0.121,0.555,0.184
						c-0.111,0.37,0.025,0.159-0.188,0.37v0.185c-0.342,0.118-0.262-0.107-0.367-0.185h-0.186
						C80.354,32.429,80.416,32.244,80.479,32.061z M80.479,34.28v-0.741c0.184,0.062,0.367,0.124,0.555,0.186
						C80.891,34.228,80.988,34.146,80.479,34.28z M81.033,35.205c-0.111,0.37,0.025,0.16-0.188,0.37
						c-0.156,0.209,0.027,0.029-0.184,0.187c-0.109-0.283-0.148-0.302-0.184-0.741C80.662,35.082,80.846,35.144,81.033,35.205z
						 M80.479,36.501c0.184,0.062,0.367,0.123,0.555,0.185c-0.143,0.504-0.045,0.421-0.555,0.557V36.501z M81.588,36.315v0.186
						c-0.344,0.118-0.264-0.107-0.371-0.186h-0.184c0.061-0.185,0.121-0.369,0.184-0.554c0.186,0.06,0.371,0.122,0.557,0.185
						C81.66,36.315,81.799,36.104,81.588,36.315z M81.588,34.835v0.186c-0.344,0.116-0.264-0.108-0.371-0.186h-0.184
						c0.061-0.185,0.121-0.368,0.184-0.555c0.186,0.062,0.371,0.124,0.557,0.187C81.66,34.834,81.799,34.625,81.588,34.835z
						 M81.588,33.356c-0.209,0.206,0.002,0.077-0.371,0.183v-0.183h-0.184c0.061-0.187,0.121-0.373,0.184-0.558
						c0.186,0.063,0.371,0.124,0.557,0.185C81.66,33.353,81.799,33.144,81.588,33.356z M82.514,33.539v0.555h-0.186
						c-0.211,0.208,0.002,0.08-0.371,0.187v-0.187c-0.207-0.209-0.078,0.002-0.184-0.369C82.055,33.617,82.074,33.577,82.514,33.539
						z M81.957,36.501c0.184,0.062,0.371,0.123,0.557,0.185c-0.143,0.504-0.043,0.421-0.557,0.557V36.501z M81.957,35.762v-0.741
						c0.369,0.11,0.16-0.026,0.371,0.185h0.186v0.557H81.957z M82.514,26.322c-0.111,0.369,0.025,0.157-0.186,0.369v0.186
						c-0.344,0.117-0.264-0.107-0.371-0.186c-0.207-0.158-0.029,0.026-0.184-0.185C82.055,26.398,82.074,26.358,82.514,26.322z
						 M81.957,25.212v-0.556h0.557v0.556H81.957z M81.957,21.88h0.557v0.371h-0.557V21.88z M81.402,22.806
						c0.158-0.208-0.023-0.028,0.186-0.186v0.37c-0.369-0.11-0.16,0.025-0.371-0.185H81.402z M81.588,24.102h0.186
						c0.061-0.31,0.123-0.617,0.184-0.927c0.184,0.062,0.371,0.124,0.557,0.187v0.555h-0.557v0.186h-0.184v0.555h-0.557v-0.185
						h-0.184c0.061-0.187,0.121-0.37,0.184-0.556C81.588,24.027,81.377,23.89,81.588,24.102z M80.479,23.175h0.555v0.556
						c-0.188,0.062-0.371,0.124-0.555,0.186V23.175z M81.033,24.843c-0.111,0.369,0.025,0.158-0.188,0.369v0.185
						c-0.342,0.117-0.262-0.107-0.367-0.185h-0.186c0.061-0.186,0.123-0.369,0.186-0.556C80.662,24.719,80.846,24.779,81.033,24.843
						z M79.736,23.916c0.186,0.062,0.369,0.123,0.557,0.186c-0.111,0.368,0.025,0.159-0.188,0.37v0.185
						c-0.342,0.117-0.26-0.106-0.369-0.185h-0.184C79.613,24.285,79.676,24.102,79.736,23.916z M78.996,24.656
						c0.186,0.062,0.371,0.123,0.557,0.187c-0.111,0.369,0.025,0.158-0.186,0.369v0.185c-0.344,0.117-0.264-0.107-0.371-0.185
						h-0.186C78.873,25.026,78.934,24.843,78.996,24.656z M78.811,25.581c-0.109,0.37,0.025,0.161-0.184,0.372v0.185
						c-0.342,0.116-0.264-0.11-0.371-0.185h-0.184c0.062-0.187,0.123-0.372,0.184-0.557C78.441,25.458,78.627,25.52,78.811,25.581z
						 M77.701,24.656c0.123,0.062,0.246,0.123,0.371,0.187c-0.113,0.369,0.025,0.158-0.186,0.369
						c-0.158,0.208,0.023,0.03-0.186,0.185C77.529,24.833,77.516,25.226,77.701,24.656z M78.072,26.322
						c-0.113,0.369,0.025,0.157-0.186,0.369c-0.158,0.21,0.023,0.029-0.186,0.186c-0.109-0.282-0.148-0.302-0.186-0.739
						C77.701,26.197,77.887,26.26,78.072,26.322z M78.072,27.802c-0.113,0.37,0.025,0.16-0.186,0.371
						c-0.158,0.209,0.023,0.028-0.186,0.185c-0.172-0.562-0.186-0.171,0-0.74C77.824,27.68,77.947,27.741,78.072,27.802z
						 M78.072,29.283c-0.113,0.37,0.025,0.159-0.186,0.37c-0.158,0.209,0.023,0.029-0.186,0.186
						c-0.109-0.283-0.148-0.301-0.186-0.742C77.701,29.159,77.887,29.223,78.072,29.283z M78.072,30.765
						c-0.113,0.369,0.025,0.158-0.186,0.369c-0.158,0.208,0.023,0.029-0.186,0.185c-0.172-0.563-0.186-0.171,0-0.739
						C77.824,30.641,77.947,30.701,78.072,30.765z M77.701,32.244c0.158-0.209-0.023-0.028,0.186-0.184
						c0.061,0.184,0.123,0.368,0.186,0.554h-0.557C77.629,32.244,77.49,32.454,77.701,32.244z M77.701,33.725
						c0.158-0.208-0.023-0.029,0.186-0.186c0.061,0.186,0.123,0.371,0.186,0.555h-0.557C77.629,33.725,77.49,33.935,77.701,33.725z
						 M77.701,37.056h-0.186c-0.115-0.343,0.107-0.262,0.186-0.37c0.158-0.209-0.023-0.029,0.186-0.185
						c0.24,0.516,0.404,0.691,0.924,0.925c-0.109,0.369,0.025,0.159-0.184,0.371v0.185h-0.555v0.739h-0.557v-0.184H77.33v-0.556
						h-0.555v-0.739h0.371v0.184c0.457,0.393,0.086,0.441,0.926,0.556v-0.739C77.701,37.129,77.912,37.268,77.701,37.056z
						 M76.035,34.28v-0.741c0.184,0.062,0.371,0.124,0.555,0.186C76.449,34.228,76.547,34.146,76.035,34.28z M76.59,35.205
						c-0.141,0.504-0.043,0.421-0.555,0.557v-0.557h0.184c0.16-0.207-0.023-0.028,0.188-0.185
						C76.564,35.229,76.381,35.051,76.59,35.205z M76.59,29.283c-0.111,0.37,0.027,0.159-0.184,0.37
						c-0.158,0.209,0.023,0.029-0.188,0.186c-0.107-0.283-0.146-0.301-0.184-0.742C76.219,29.159,76.406,29.223,76.59,29.283z
						 M76.219,27.617c0.125,0.062,0.248,0.124,0.371,0.185c-0.111,0.37,0.027,0.16-0.184,0.371
						c-0.158,0.209,0.023,0.028-0.188,0.185C76.047,27.795,76.037,28.187,76.219,27.617z M76.219,30.765
						c0.16-0.21-0.023-0.03,0.188-0.186c0.158,0.208-0.025,0.027,0.184,0.186c-0.141,0.503-0.043,0.421-0.555,0.554v-0.554H76.219z
						 M76.59,32.244v0.37h-0.555v-0.37H76.59z M76.59,34.65c0.283-0.109,0.301-0.148,0.74-0.184v0.368h-0.74V34.65z M77.33,28.542
						v0.37h-0.555v-0.37H77.33z M76.961,26.877c0.123,0.062,0.246,0.124,0.369,0.186c-0.111,0.369,0.027,0.159-0.184,0.371
						c-0.158,0.207,0.025,0.027-0.186,0.184C76.787,27.053,76.775,27.446,76.961,26.877z M76.961,30.023
						c0.158-0.21-0.025-0.029,0.186-0.185c0.061,0.185,0.123,0.368,0.184,0.555h-0.555C76.887,30.023,76.75,30.234,76.961,30.023z
						 M76.961,31.503c0.158-0.208-0.025-0.027,0.186-0.185c0.061,0.185,0.123,0.37,0.184,0.557h-0.555
						C76.887,31.504,76.75,31.714,76.961,31.503z M76.961,32.983c0.158-0.207-0.025-0.027,0.186-0.185
						c0.061,0.185,0.123,0.371,0.184,0.558h-0.555C76.887,32.985,76.75,33.194,76.961,32.983z M77.33,35.946
						c-0.111,0.369,0.027,0.158-0.184,0.369c-0.158,0.209,0.025,0.029-0.186,0.186c-0.109-0.283-0.146-0.302-0.186-0.739
						C76.961,35.821,77.146,35.884,77.33,35.946z M76.961,24.472h0.369v0.371h-0.369V24.472z M76.406,23.546
						c0.123,0.062,0.246,0.122,0.369,0.185c-0.113,0.371,0.025,0.159-0.186,0.371c-0.158,0.208,0.025,0.029-0.184,0.184
						C76.232,23.723,76.221,24.115,76.406,23.546z M76.775,25.581h0.555c-0.139,0.504-0.043,0.422-0.555,0.557V25.581
						c-0.123,0.062-0.246,0.124-0.369,0.186c-0.262-0.027,0.021-0.024-0.188-0.186h-0.184c0.061-0.185,0.123-0.369,0.184-0.555
						C76.723,25.167,76.641,25.069,76.775,25.581z M76.035,22.99c-0.111,0.37,0.025,0.16-0.184,0.371v0.185
						c-0.344,0.117-0.264-0.108-0.372-0.185h-0.185c0.062-0.187,0.123-0.371,0.185-0.556C75.666,22.867,75.852,22.93,76.035,22.99z
						 M75.109,22.62c-0.209,0.207,0.003,0.08-0.368,0.186V22.62h-0.186c0.062-0.184,0.123-0.369,0.186-0.556
						c0.184,0.062,0.368,0.123,0.555,0.187C75.184,22.62,75.32,22.41,75.109,22.62z M75.48,24.472
						c0.211-0.208-0.001-0.079,0.372-0.187c0.107,0.282,0.146,0.301,0.184,0.741H75.48v-0.184c-0.207-0.212-0.078,0.002-0.185-0.371
						H75.48z M75.852,26.322c0,0.195-0.162,0.303-0.372,0.185v-0.185c-0.207-0.211-0.078,0.001-0.185-0.369h0.185
						c0.211-0.208-0.001-0.08,0.372-0.187c0.061,0.187,0.121,0.371,0.184,0.556h0.555v0.185c-0.184,0.062-0.371,0.124-0.555,0.185
						v-0.369H75.852z M76.406,37.056c-0.158,0.208,0.023,0.028-0.188,0.187c-0.107-0.282-0.146-0.301-0.184-0.741
						c0.184,0.062,0.371,0.123,0.555,0.185C76.479,37.055,76.617,36.845,76.406,37.056z M76.406,39.832
						c-0.158,0.208,0.023,0.029-0.188,0.184c-0.061-0.184-0.123-0.368-0.184-0.555h0.555C76.479,39.832,76.617,39.62,76.406,39.832z
						 M77.146,40.757h-0.186v-0.185h-0.186c0.062-0.123,0.125-0.247,0.186-0.37C77.223,40.421,77.451,40.411,77.146,40.757z
						 M77.887,40.016c-0.158,0.209,0.023,0.031-0.186,0.187c-0.109-0.283-0.148-0.302-0.186-0.741h-0.74v-0.185
						c-0.207-0.21-0.078,0.002-0.186-0.369h0.186c0.211-0.207-0.002-0.08,0.371-0.187c0.24,0.518,0.402,0.692,0.926,0.927
						C77.959,40.016,78.098,39.806,77.887,40.016z M78.256,40.757v-0.555c0.504,0.143,0.422,0.044,0.555,0.555H78.256z
						 M78.256,39.461c-0.061-0.185-0.121-0.368-0.184-0.554c0.184-0.062,0.369-0.123,0.555-0.187
						c0.158,0.209-0.025,0.029,0.184,0.187C78.67,39.41,78.768,39.327,78.256,39.461z M78.811,38.537
						c0.062-0.187,0.123-0.37,0.186-0.556c0.186,0.062,0.371,0.123,0.557,0.186c-0.111,0.369,0.025,0.158-0.186,0.37v0.184
						c-0.344,0.118-0.264-0.106-0.371-0.184H78.811z M78.996,41.497c0.111-0.368-0.025-0.159,0.186-0.37
						c0.158-0.208-0.025-0.027,0.186-0.185c0.062,0.185,0.123,0.37,0.186,0.555H78.996z M78.996,40.202v-0.741
						c0.186,0.062,0.371,0.124,0.557,0.187C79.41,40.149,79.508,40.067,78.996,40.202z M80.293,42.053h-0.188v0.185h-0.184
						c-0.062-0.124-0.123-0.246-0.186-0.37h0.557V42.053z M80.105,40.757c-0.156,0.208,0.025,0.03-0.184,0.186
						c-0.109-0.282-0.148-0.301-0.186-0.74c0.186,0.062,0.369,0.123,0.557,0.186C80.182,40.756,80.318,40.547,80.105,40.757z
						 M80.105,39.276v0.185c-0.342,0.119-0.26-0.107-0.369-0.185h-0.184c0.061-0.184,0.123-0.369,0.184-0.556
						c0.186,0.063,0.369,0.125,0.557,0.187C80.182,39.275,80.318,39.066,80.105,39.276z M80.479,37.981
						c0.184,0.062,0.367,0.123,0.555,0.186c-0.111,0.369,0.025,0.158-0.188,0.37v0.184c-0.342,0.118-0.262-0.106-0.367-0.184h-0.186
						C80.354,38.351,80.416,38.167,80.479,37.981z M80.479,41.497v-0.555c0.502,0.142,0.42,0.044,0.555,0.555H80.479z
						 M80.479,40.202v-0.741c0.184,0.062,0.367,0.124,0.555,0.187C80.891,40.149,80.988,40.067,80.479,40.202z M81.773,42.053
						c-0.186,0.061-0.371,0.124-0.557,0.185c0.113-0.368-0.025-0.158,0.186-0.37c0.158-0.209-0.023-0.028,0.186-0.184
						c0.158,0.209-0.025,0.026,0.186,0.184V42.053z M81.588,40.757c-0.158,0.208,0.025,0.03-0.186,0.186
						c-0.107-0.282-0.148-0.301-0.186-0.74c0.186,0.062,0.371,0.123,0.557,0.186C81.66,40.756,81.799,40.547,81.588,40.757z
						 M81.588,39.276v0.185c-0.344,0.119-0.264-0.107-0.371-0.185h-0.184c0.061-0.184,0.121-0.369,0.184-0.556
						c0.186,0.063,0.371,0.125,0.557,0.187C81.66,39.275,81.799,39.066,81.588,39.276z M81.957,37.981
						c0.184,0.062,0.371,0.123,0.557,0.186c-0.111,0.369,0.025,0.158-0.186,0.37v0.184c-0.344,0.118-0.264-0.106-0.371-0.184h-0.184
						C81.834,38.351,81.896,38.167,81.957,37.981z M82.328,41.497c-0.158,0.209,0.023,0.029-0.188,0.187
						c-0.105-0.283-0.146-0.302-0.184-0.741c0.184,0.061,0.371,0.123,0.557,0.185C82.402,41.497,82.539,41.286,82.328,41.497z
						 M81.957,40.202v-0.741c0.184,0.062,0.371,0.124,0.557,0.187C82.371,40.149,82.471,40.067,81.957,40.202z M82.697,42.237
						c0.111-0.368-0.023-0.158,0.188-0.37c0.156-0.209-0.027-0.028,0.184-0.184c0.061,0.184,0.123,0.369,0.184,0.554H82.697z
						 M83.068,40.757c-0.158,0.208,0.025,0.03-0.184,0.186c-0.109-0.282-0.148-0.301-0.188-0.74
						c0.188,0.062,0.371,0.123,0.555,0.186C83.141,40.756,83.279,40.547,83.068,40.757z M83.068,39.276
						c-0.211,0.209,0.002,0.079-0.371,0.185v-0.185h-0.184c0.061-0.184,0.123-0.369,0.184-0.556
						c0.188,0.063,0.371,0.125,0.555,0.187C83.141,39.275,83.279,39.066,83.068,39.276z M83.252,38.167h0.186
						c0.209-0.208-0.002-0.079,0.371-0.186c0.107,0.282,0.148,0.301,0.184,0.739h-0.555v-0.184
						C83.23,38.325,83.359,38.539,83.252,38.167z M83.438,41.497v-0.555c0.504,0.142,0.422,0.044,0.555,0.555H83.438z
						 M83.438,40.202v-0.741c0.186,0.062,0.371,0.124,0.555,0.187C83.854,40.149,83.949,40.067,83.438,40.202z M84.18,42.237
						c0.109-0.368-0.025-0.158,0.184-0.37c0.158-0.209-0.025-0.028,0.184-0.184c0.062,0.184,0.125,0.369,0.186,0.554H84.18z
						 M84.547,40.757c-0.156,0.208,0.027,0.03-0.184,0.186c-0.107-0.282-0.146-0.301-0.184-0.74
						c0.184,0.062,0.367,0.123,0.553,0.186C84.623,40.756,84.758,40.547,84.547,40.757z M84.547,39.276
						c-0.209,0.209,0.006,0.079-0.367,0.185v-0.185h-0.188c0.062-0.184,0.125-0.369,0.188-0.556
						c0.184,0.063,0.367,0.125,0.553,0.187C84.623,39.275,84.758,39.066,84.547,39.276z M85.289,41.497
						c-0.158,0.209,0.023,0.029-0.186,0.187c-0.107-0.283-0.148-0.302-0.184-0.741c0.184,0.061,0.369,0.123,0.555,0.185
						C85.363,41.497,85.5,41.286,85.289,41.497z M84.92,40.202v-0.741c0.184,0.062,0.369,0.124,0.555,0.187
						C85.334,40.149,85.43,40.067,84.92,40.202z M85.475,38.537h-0.186c-0.211,0.207,0.002,0.079-0.369,0.184v-0.184
						c-0.207-0.212-0.08,0.002-0.188-0.37c0.283-0.109,0.303-0.149,0.742-0.186V38.537z M85.475,37.426h0.186
						c0.209-0.207-0.002-0.079,0.367-0.184c0.109,0.282,0.148,0.302,0.188,0.739H85.66v-0.185
						C85.453,37.586,85.58,37.799,85.475,37.426z M86.027,42.237c-0.156,0.209,0.027,0.029-0.184,0.186
						c-0.109-0.283-0.146-0.301-0.184-0.739c0.184,0.062,0.367,0.123,0.555,0.184C86.104,42.237,86.238,42.027,86.027,42.237z
						 M86.027,40.757c-0.156,0.208,0.027,0.03-0.184,0.186c-0.109-0.282-0.146-0.301-0.184-0.74
						c0.184,0.062,0.367,0.123,0.555,0.186C86.104,40.756,86.238,40.547,86.027,40.757z M85.66,39.461v-0.74
						c0.184,0.063,0.367,0.125,0.555,0.187C86.072,39.41,86.17,39.327,85.66,39.461z M86.4,37.981
						c0.184,0.062,0.369,0.123,0.553,0.186c-0.109,0.369,0.027,0.158-0.184,0.37v0.184h-0.186v-0.184h-0.369
						C86.275,38.351,86.338,38.167,86.4,37.981z M86.953,39.647c-0.109,0.368,0.027,0.158-0.184,0.368
						c-0.158,0.209,0.025,0.031-0.186,0.187c-0.107-0.283-0.148-0.302-0.184-0.741C86.584,39.522,86.77,39.585,86.953,39.647z
						 M86.4,41.684v-0.741c0.184,0.061,0.369,0.123,0.553,0.185C86.814,41.632,86.91,41.549,86.4,41.684z M87.51,40.757v0.186
						c-0.344,0.117-0.264-0.108-0.371-0.186h-0.186c0.062-0.185,0.125-0.369,0.186-0.555c0.186,0.062,0.371,0.123,0.557,0.186
						C87.582,40.756,87.721,40.547,87.51,40.757z M87.139,39.461v-0.74c0.186,0.063,0.371,0.125,0.557,0.187
						C87.553,39.41,87.65,39.327,87.139,39.461z M87.51,37.797c-0.209,0.207,0.002,0.078-0.371,0.185v-0.185h-0.186
						c0.062-0.187,0.125-0.371,0.186-0.555c0.186,0.061,0.371,0.123,0.557,0.184C87.582,37.795,87.721,37.585,87.51,37.797z
						 M87.881,40.202v-0.741c0.184,0.062,0.369,0.124,0.555,0.187C88.295,40.149,88.393,40.067,87.881,40.202z M88.25,38.537
						c-0.156,0.207,0.025,0.029-0.186,0.184c-0.172-0.562-0.184-0.169,0-0.739l0.371,0.186
						C88.322,38.536,88.459,38.325,88.25,38.537z M88.25,37.056c-0.209,0.207,0.002,0.079-0.369,0.187v-0.187h-0.186
						c0.061-0.185,0.123-0.37,0.186-0.555c0.184,0.062,0.369,0.123,0.555,0.185C88.322,37.055,88.459,36.845,88.25,37.056z
						 M88.436,36.315c0.111-0.369-0.027-0.159,0.184-0.369c0.211-0.209-0.002-0.078,0.373-0.185
						c0.061,0.185,0.121,0.369,0.184,0.554H88.436z M88.619,37.426h0.557v0.371h-0.557V37.426z M88.992,39.276
						c-0.158,0.21,0.023,0.029-0.186,0.185c-0.174-0.562-0.186-0.171,0-0.74c0.123,0.063,0.246,0.125,0.369,0.187
						C89.062,39.275,89.201,39.066,88.992,39.276z M89.73,40.016c-0.209,0.209,0.002,0.08-0.371,0.187v-0.187h-0.184
						c0.062-0.184,0.123-0.368,0.184-0.555c0.186,0.062,0.371,0.124,0.555,0.187C89.805,40.016,89.941,39.806,89.73,40.016z
						 M68.077,19.66v0.185h0.557v-0.557h-0.186v-0.185c-0.186,0.062-0.371,0.124-0.556,0.185
						C68.002,19.659,67.868,19.449,68.077,19.66z M67.153,19.288h-0.557v0.557h0.557V19.288z M70.114,19.288h-0.74v0.557h0.74
						V19.288z M71.409,19.66h0.185c0.117-0.104-0.513-0.351-0.555-0.372c-0.111,0.371,0.026,0.161-0.184,0.372v0.185h0.554V19.66z
						 M65.671,19.475h-0.557v0.186h0.557V19.475z M64.747,20.584c0.108-0.281,0.147-0.301,0.186-0.739h-0.557
						c-0.062,0.185-0.123,0.37-0.184,0.554h0.184C64.585,20.606,64.374,20.479,64.747,20.584z M65.857,20.398v0.186h0.554v-0.739
						h-0.554c-0.159,0.209,0.024,0.029-0.186,0.185C65.782,20.398,65.646,20.188,65.857,20.398z M67.337,20.398v0.186h0.555v-0.739
						h-0.555c-0.158,0.209,0.025,0.029-0.185,0.185C67.263,20.398,67.127,20.188,67.337,20.398z M69.374,20.584v-0.739h-0.74v0.739
						H69.374z M70.297,20.398v0.186h0.558v-0.739h-0.741v0.554H70.297z M71.593,20.029c0.111,0.369-0.025,0.159,0.186,0.369v0.186
						h0.554v-0.555H72.15v-0.185C71.963,19.907,71.779,19.969,71.593,20.029z M82.514,20.398v0.558c0,0,0.711-0.012,0.371-0.187
						h-0.188v-0.371H82.514z M63.636,21.141v0.185h0.556v-0.741h-0.556c-0.159,0.21,0.024,0.03-0.186,0.186
						C63.562,21.14,63.425,20.931,63.636,21.141z M65.115,21.141c0.213,0.206-0.001,0.078,0.372,0.185
						c0.108-0.282,0.147-0.301,0.185-0.741h-0.557c-0.157,0.21,0.027,0.03-0.183,0.186C65.042,21.14,64.905,20.931,65.115,21.141z
						 M66.596,21.141c0.21,0.206-0.001,0.078,0.371,0.185c0.108-0.282,0.147-0.301,0.186-0.741h-0.557
						c-0.157,0.21,0.025,0.03-0.186,0.186C66.523,21.14,66.386,20.931,66.596,21.141z M68.633,20.584h-0.557
						c-0.157,0.21,0.025,0.03-0.185,0.186c0.11,0.37-0.024,0.161,0.185,0.371v0.185h0.557v0.739h-0.557
						c-0.196-0.484,0.066-0.577-0.739-0.739c-0.075,0.76-0.241,0.579,0.555,0.926c-0.146,0.532-0.295,0.547-0.739,0.739
						c0.11,0.37-0.025,0.16,0.185,0.371v0.185h0.555v-0.74h0.741c0.062-0.247,0.122-0.492,0.185-0.741h0.556v-0.739
						c-0.248-0.062-0.494-0.122-0.74-0.185V20.584z M70.114,21.325v-0.741h-0.74v0.741H70.114z M71.039,21.141v0.185h0.555v-0.741
						h-0.738v0.557H71.039z M72.333,20.77c0.113,0.37-0.024,0.161,0.187,0.371v0.185h0.555v-0.741h-0.555
						C72.361,20.794,72.544,20.614,72.333,20.77z M62.341,21.141c0.157,0.208-0.025,0.028,0.184,0.185
						c0.063-0.185,0.125-0.369,0.185-0.556c-0.368,0.112-0.157-0.025-0.368,0.187h-0.187C62.313,21.165,62.129,20.982,62.341,21.141
						z M63.451,21.325h-0.556v0.185h-0.186v0.555h0.741V21.325z M64.375,21.88c0.21,0.207-0.002,0.08,0.371,0.185V21.88
						c0.207-0.209,0.079,0.002,0.186-0.37c-0.186-0.062-0.371-0.124-0.557-0.185c-0.062,0.123-0.123,0.246-0.184,0.369
						C64.219,21.956,64.216,21.673,64.375,21.88z M67.153,22.064h-0.557V21.88h-0.186c0.063-0.186,0.124-0.37,0.186-0.555h-0.925
						v0.739h0.556v0.187h0.184v0.555h0.927C67.276,22.559,67.214,22.313,67.153,22.064z M70.114,21.51
						c0.111,0.37-0.026,0.159,0.184,0.37v0.185h0.558v-0.739h-0.558C70.141,21.532,70.323,21.354,70.114,21.51z M71.779,21.325
						c-0.158,0.207,0.025,0.029-0.186,0.185c0.111,0.37-0.025,0.159,0.186,0.37v0.185h0.554v-0.739H71.779z M73.26,21.325
						c-0.158,0.207,0.024,0.029-0.187,0.185c0.111,0.37-0.024,0.159,0.187,0.37v0.185h0.554v-0.739H73.26z M61.97,21.51h-0.557
						v0.555C61.919,21.924,61.836,22.022,61.97,21.51z M60.674,22.064v0.741h0.556v-0.555C61.046,22.188,60.86,22.127,60.674,22.064
						z M62.709,22.064H61.97v0.741h0.739V22.064z M63.636,22.62v0.186h0.556v-0.741h-0.741v0.556H63.636z M64.932,22.62h0.183v0.186
						h0.557v-0.741h-0.739V22.62z M69.559,22.62v0.186h0.555v-0.741h-0.74v0.556H69.559z M70.855,22.251
						c0.11,0.369-0.028,0.159,0.184,0.369c0.211,0.207-0.003,0.08,0.37,0.186c0.107-0.282,0.147-0.301,0.185-0.741h-0.555
						C70.88,22.275,71.064,22.093,70.855,22.251z M72.519,22.62v0.186h0.555v-0.741h-0.741v0.556H72.519z M83.809,23.175V22.99
						h0.184c-0.119-0.437-0.051-0.348-0.369-0.554C83.383,22.93,83.078,22.953,83.809,23.175z M85.475,22.62H84.92v0.555
						C85.422,23.034,85.34,23.133,85.475,22.62z M60.305,22.99c-0.158-0.209,0.025-0.028-0.186-0.185
						c-0.158,0.208,0.024,0.029-0.185,0.185c0.14,0.505,0.043,0.421,0.554,0.556V22.99H60.305z M61.785,23.361h0.186v-0.556h-0.74
						v0.74h0.555V23.361z M62.895,23.361v0.185h0.556v-0.74h-0.741v0.556H62.895z M64.932,22.806h-0.557
						c-0.159,0.208,0.024,0.029-0.184,0.185c0.111,0.37-0.027,0.16,0.184,0.371v0.185h0.557V22.806z M65.857,22.806
						c-0.159,0.208,0.024,0.029-0.186,0.185c0.11,0.37-0.025,0.16,0.186,0.371v0.185h0.554v-0.74H65.857z M68.633,23.175
						c0.029,0.26,0.025-0.021,0.185,0.187c0.21,0.207-0.002,0.079,0.369,0.185v-0.185c0.207-0.209,0.08,0.002,0.187-0.371
						c-0.187-0.061-0.371-0.123-0.556-0.185C68.755,22.93,68.695,23.054,68.633,23.175z M70.297,23.361
						c0.212,0.207-0.001,0.079,0.371,0.185c0.108-0.281,0.148-0.3,0.187-0.74h-0.558c-0.156,0.208,0.025,0.029-0.184,0.185
						C70.225,23.36,70.087,23.15,70.297,23.361z M72.333,22.806h-0.554c-0.158,0.208,0.025,0.029-0.186,0.185
						c0.111,0.37-0.025,0.16,0.186,0.371v0.185h0.554V22.806z M73.26,22.806c-0.158,0.208,0.024,0.029-0.187,0.185
						c0.111,0.37-0.024,0.16,0.187,0.371v0.185h0.554v-0.74H73.26z M84.18,23.175c-0.158,0.209,0.025,0.029-0.188,0.187
						c0.113,0.369-0.023,0.158,0.188,0.369v0.186h0.553v-0.741H84.18z M85.66,23.73c0.209,0.207-0.002,0.08,0.367,0.186V23.73
						c0.209-0.21,0.08,0.003,0.188-0.369c-0.188-0.062-0.371-0.124-0.555-0.187c-0.062,0.124-0.125,0.249-0.186,0.371
						C85.504,23.807,85.502,23.522,85.66,23.73z M87.51,23.916V23.73c0.207-0.21,0.08,0.003,0.186-0.369
						c-0.186-0.062-0.371-0.124-0.557-0.187c-0.061,0.187-0.123,0.371-0.186,0.556h0.186C87.35,23.938,87.139,23.811,87.51,23.916z
						 M59.378,24.285h0.187v-0.184h0.185c-0.12-0.438-0.052-0.347-0.371-0.556c-0.062,0.185-0.123,0.37-0.185,0.556h0.185V24.285z
						 M60.489,23.546v0.739h0.741v-0.739H60.489z M64.192,24.285v-0.739h-0.741v0.739H64.192z M65.115,23.546
						c-0.157,0.209,0.027,0.028-0.183,0.185c0.11,0.371-0.027,0.159,0.183,0.371v0.184h0.557v-0.739H65.115z M67.153,23.546h-0.742
						v0.739h0.742V23.546z M68.633,24.285v-0.739h-0.557c-0.157,0.209,0.025,0.028-0.185,0.185c0.11,0.371-0.024,0.159,0.185,0.371
						v0.184H68.633z M69.559,24.102c0.209,0.207-0.004,0.078,0.368,0.184c0.109-0.282,0.149-0.301,0.187-0.739h-0.555
						c-0.159,0.209,0.023,0.028-0.186,0.185C69.484,24.102,69.348,23.89,69.559,24.102z M71.593,24.285v-0.739h-0.555
						c-0.158,0.209,0.025,0.028-0.184,0.185c0.11,0.371-0.028,0.159,0.184,0.371v0.184H71.593z M73.074,23.546h-0.555
						c-0.158,0.209,0.025,0.028-0.187,0.185c0.113,0.371-0.024,0.159,0.187,0.371v0.184h0.555V23.546z M73.814,23.546v0.739h0.741
						v-0.739H73.814z M85.475,23.916h-0.742v0.74h0.742V23.916z M86.4,24.472c0.209,0.206-0.002,0.078,0.369,0.185v-0.185
						c0.207-0.211,0.078,0.002,0.184-0.37c-0.184-0.062-0.369-0.124-0.553-0.186c-0.062,0.123-0.125,0.247-0.186,0.369
						C86.242,24.546,86.24,24.264,86.4,24.472z M87.881,24.472c0.211,0.206-0.002,0.078,0.369,0.185v-0.185
						c0.207-0.211,0.078,0.002,0.186-0.37c-0.186-0.062-0.371-0.124-0.555-0.186c-0.062,0.186-0.125,0.369-0.186,0.556H87.881z
						 M89.359,24.472v0.185h0.555v-0.371c-0.246-0.061-0.492-0.122-0.738-0.184C89.287,24.47,89.148,24.261,89.359,24.472z
						 M59.75,24.843h0.186v0.184h0.554v-0.741H59.75V24.843z M64.932,25.026v-0.741h-0.557c-0.159,0.21,0.024,0.029-0.184,0.187
						c0.111,0.369-0.027,0.158,0.184,0.371v0.184H64.932z M66.411,25.026v-0.741h-0.739v0.558h0.186v0.184H66.411z M67.337,24.843
						c0.21,0.206-0.001,0.078,0.369,0.184c0.107-0.281,0.147-0.301,0.186-0.741h-0.555c-0.158,0.21,0.025,0.029-0.185,0.187
						C67.263,24.841,67.127,24.63,67.337,24.843z M68.818,24.843c0.21,0.206-0.002,0.078,0.369,0.184
						c0.108-0.281,0.148-0.301,0.187-0.741h-0.556c-0.159,0.21,0.025,0.029-0.185,0.187C68.744,24.841,68.607,24.63,68.818,24.843z
						 M70.855,24.285h-0.558c-0.156,0.21,0.025,0.029-0.184,0.187c0.111,0.369-0.026,0.158,0.184,0.371v0.184h0.558V24.285z
						 M71.779,24.843c0.21,0.206-0.002,0.078,0.371,0.184c0.108-0.281,0.146-0.301,0.183-0.741h-0.554
						c-0.158,0.21,0.025,0.029-0.186,0.187C71.705,24.841,71.568,24.63,71.779,24.843z M73.074,24.472
						c0.111,0.369-0.024,0.158,0.187,0.371v0.184h0.554v-0.741H73.26C73.102,24.495,73.285,24.314,73.074,24.472z M58.825,24.472
						v0.371h0.184C58.897,24.472,59.035,24.683,58.825,24.472z M88.619,25.212c0.211,0.207-0.002,0.079,0.373,0.185v-0.185
						c0.207-0.211,0.078,0.001,0.184-0.369c-0.184-0.063-0.369-0.124-0.557-0.187c-0.061,0.123-0.123,0.246-0.184,0.37
						C88.465,25.288,88.461,25.003,88.619,25.212z M90.102,25.212c0.209,0.207-0.002,0.079,0.369,0.185v-0.185
						c0.207-0.211,0.078,0.001,0.184-0.369c-0.184-0.063-0.367-0.124-0.553-0.187c-0.062,0.123-0.125,0.246-0.188,0.37
						C89.943,25.288,89.941,25.003,90.102,25.212z M59.194,25.581v0.186h0.556v-0.74h-0.556v0.186h-0.186
						C59.121,25.58,58.983,25.371,59.194,25.581z M60.489,25.212c0.113,0.368-0.024,0.159,0.186,0.369
						c0.21,0.209-0.002,0.079,0.372,0.186c0.106-0.283,0.146-0.302,0.184-0.74h-0.556C60.517,25.234,60.699,25.056,60.489,25.212z
						 M64.932,26.507v-0.554h0.183v-0.187h0.557v-0.74h-0.557v0.186h-0.183v0.555h-0.74v0.74H64.932z M67.153,25.026h-0.557v0.186
						h-0.186v0.555h0.742V25.026z M68.633,25.026h-0.741v0.74h0.741V25.026z M69.559,25.026c-0.159,0.208,0.023,0.029-0.186,0.186
						c0.11,0.368-0.025,0.159,0.186,0.369v0.186h0.555v-0.74H69.559z M71.039,25.581c0.211,0.209-0.003,0.079,0.37,0.186
						c0.107-0.283,0.147-0.302,0.185-0.74h-0.555c-0.158,0.208,0.025,0.029-0.184,0.186C70.965,25.58,70.827,25.371,71.039,25.581z
						 M72.333,25.581h0.187c0.209,0.209-0.002,0.079,0.37,0.186c0.108-0.283,0.148-0.302,0.185-0.74h-0.741V25.581z M89.176,25.953
						h0.184c0.211,0.207-0.002,0.076,0.371,0.185v-0.185c0.207-0.211,0.078,0,0.184-0.372c-0.184-0.062-0.369-0.123-0.555-0.185
						C89.299,25.581,89.238,25.767,89.176,25.953z M90.842,25.953c0.209,0.207-0.002,0.076,0.369,0.185
						c0.109-0.283,0.148-0.301,0.186-0.741h-0.555c-0.062,0.185-0.125,0.37-0.188,0.557H90.842z M59.008,25.953
						c-0.184-0.062-0.369-0.124-0.554-0.187v0.556c0.185,0.062,0.37,0.124,0.554,0.185V25.953z M59.75,25.953
						c0.11,0.367-0.025,0.158,0.186,0.369c0.209,0.207-0.002,0.079,0.37,0.185c0.108-0.282,0.146-0.301,0.184-0.74h-0.554
						C59.776,25.976,59.959,25.796,59.75,25.953z M61.785,25.953c-0.21-0.208,0.002-0.08-0.371-0.187
						c-0.157,0.209,0.025,0.029-0.184,0.187c0.111,0.367-0.026,0.158,0.184,0.369v0.185h0.557v-0.554H61.785z M65.857,25.767
						c-0.159,0.209,0.024,0.029-0.186,0.187c0.11,0.367-0.025,0.158,0.186,0.369v0.185h0.554v-0.74H65.857z M67.892,26.507v-0.74
						h-0.739v0.74H67.892z M69.374,26.507v-0.74h-0.74v0.74H69.374z M70.297,26.507v-0.185c0.186,0.062,0.371,0.124,0.558,0.185
						v-0.554h-0.187v-0.187h-0.555C70.116,25.837,70.074,26.778,70.297,26.507z M71.779,25.767
						c-0.158,0.209,0.025,0.029-0.186,0.187c0.111,0.367-0.025,0.158,0.186,0.369v0.185h0.554v-0.74H71.779z M73.628,26.507
						c0.109-0.282,0.149-0.301,0.186-0.74H73.26c-0.062,0.187-0.125,0.371-0.187,0.556h0.187
						C73.469,26.529,73.258,26.401,73.628,26.507z M90.471,26.877v-0.186c0.207-0.209,0.078,0.003,0.184-0.369
						c-0.184-0.062-0.367-0.125-0.553-0.185l-0.188,0.554h0.188C90.311,26.899,90.1,26.771,90.471,26.877z M91.582,26.691v0.186
						h0.555v-0.739h-0.555c-0.158,0.207,0.023,0.028-0.186,0.185C91.506,26.691,91.371,26.479,91.582,26.691z M58.083,27.062h0.185
						c-0.119-0.438-0.051-0.347-0.37-0.556v0.741h0.186V27.062z M59.008,26.877c0.029,0.261,0.026-0.022,0.186,0.186
						c0.21,0.208-0.002,0.078,0.371,0.186v-0.186c0.207-0.21,0.077,0.001,0.185-0.371c-0.185-0.061-0.371-0.123-0.556-0.185
						C59.132,26.631,59.071,26.754,59.008,26.877z M60.489,26.507v0.556h0.186c0.21,0.208-0.002,0.078,0.372,0.186
						c0.106-0.284,0.146-0.302,0.184-0.741H60.489z M67.153,26.507h-0.742v0.741h0.742V26.507z M70.114,27.248v0.74h0.741v-0.555
						h-0.187c-0.388-0.471-0.436-0.077-0.555-0.927h-0.74v0.741H70.114z M71.779,27.248v-0.186h-0.186v-0.556h-0.555
						c-0.158,0.209,0.025,0.03-0.184,0.185c0.11,0.37-0.028,0.16,0.184,0.371v0.186h0.555v0.554h0.186v0.187h0.554v-0.74H71.779z
						 M72.519,27.062c0.209,0.208-0.002,0.078,0.37,0.186v-0.186c0.208-0.21,0.079,0.001,0.185-0.371
						c-0.283-0.108-0.302-0.146-0.741-0.185v0.556H72.519z M74.555,26.507H74c-0.158,0.209,0.023,0.03-0.187,0.185
						c0.112,0.37-0.025,0.16,0.187,0.371v0.186h0.555V26.507z M89.73,27.062c-0.209-0.207,0.002-0.078-0.371-0.186
						c-0.158,0.21,0.027,0.029-0.184,0.186c0.111,0.369-0.027,0.159,0.184,0.371v0.184h0.555v-0.555H89.73z M90.842,27.617
						c0.369-0.11,0.158,0.026,0.369-0.184c0.207-0.212,0.078,0,0.186-0.371c-0.186-0.062-0.371-0.123-0.555-0.186V27.617z
						 M92.322,27.434v0.184h0.555c-0.061-0.247-0.123-0.493-0.184-0.74c-0.188,0.062-0.371,0.124-0.557,0.186
						C92.248,27.432,92.111,27.222,92.322,27.434z M58.455,27.802c0.209,0.207-0.002,0.08,0.37,0.187
						c0.107-0.283,0.147-0.301,0.184-0.74h-0.554c-0.063,0.186-0.124,0.369-0.187,0.554H58.455z M59.935,27.802
						c0.209,0.207-0.002,0.08,0.37,0.187c0.108-0.283,0.146-0.301,0.184-0.74h-0.554c-0.159,0.207,0.024,0.027-0.186,0.186
						C59.86,27.802,59.724,27.591,59.935,27.802z M61.414,27.248c-0.157,0.207,0.025,0.027-0.184,0.186
						c0.111,0.368-0.026,0.157,0.184,0.368v0.187h0.557v-0.74H61.414z M73.814,27.434H74v-0.186h-0.74v0.186h-0.187v0.555h0.74
						V27.434z M82.514,28.173h0.184v0.185h0.555v-0.74h-0.738V28.173z M84.18,28.173v0.185h0.553v-0.74H84.18
						c-0.158,0.207,0.025,0.03-0.188,0.185C84.105,28.172,83.969,27.962,84.18,28.173z M85.66,28.173v0.185h0.555v-0.74h-0.74v0.556
						H85.66z M90.471,28.173c0.207-0.21,0.078,0.002,0.184-0.371c-0.281-0.106-0.299-0.146-0.74-0.185v0.74h0.557V28.173z
						 M91.396,27.988c0.029,0.259,0.027-0.023,0.186,0.185c0.209,0.208-0.002,0.079,0.369,0.185v-0.185
						c0.207-0.21,0.08,0.002,0.186-0.371c-0.186-0.061-0.371-0.122-0.555-0.185C91.52,27.741,91.457,27.864,91.396,27.988z
						 M93.061,28.173v0.185h0.371c-0.162-0.346-0.238-0.539-0.555-0.74v0.556H93.061z M57.898,28.729h0.186
						c0.061-0.187,0.123-0.371,0.185-0.556c-0.185-0.062-0.37-0.123-0.554-0.185v0.554h0.184V28.729z M59.194,27.988v0.185h-0.186
						c0.112,0.369-0.025,0.159,0.186,0.369v0.187h0.556v-0.74H59.194z M61.23,28.729v-0.74h-0.556
						c-0.157,0.209,0.024,0.028-0.186,0.185c0.113,0.369-0.024,0.159,0.186,0.369v0.187H61.23z M62.709,27.988H61.97v0.74h0.925
						C62.787,28.446,62.748,28.428,62.709,27.988z M73.074,27.988h-0.741v0.74h0.741V27.988z M81.957,28.357
						c-0.158,0.209,0.025,0.029-0.184,0.185c0.111,0.37-0.027,0.159,0.184,0.37v0.185h0.557v-0.739H81.957z M83.438,28.357
						c-0.158,0.209,0.027,0.029-0.186,0.185c0.113,0.37-0.025,0.159,0.186,0.37v0.185h0.555v-0.739H83.438z M85.289,28.912h0.186
						v-0.555H84.92v0.185h-0.188v0.555h0.557V28.912z M86.4,28.912c0.209,0.207-0.002,0.08,0.369,0.185v-0.185
						c0.207-0.209,0.078,0.002,0.184-0.37c-0.184-0.062-0.369-0.123-0.553-0.185c-0.062,0.123-0.125,0.246-0.186,0.371
						C86.242,28.988,86.24,28.705,86.4,28.912z M90.842,29.097c0.369-0.108,0.158,0.027,0.369-0.185
						c0.207-0.209,0.078,0.002,0.186-0.37c-0.186-0.062-0.371-0.123-0.555-0.185V29.097z M92.322,28.912
						c0.209,0.207-0.002,0.08,0.371,0.185c0.107-0.283,0.146-0.299,0.184-0.739h-0.555c-0.16,0.209,0.023,0.029-0.186,0.185
						C92.248,28.912,92.111,28.701,92.322,28.912z M59.008,29.468v-0.739h-0.554v0.184h-0.187c0.111,0.37-0.025,0.16,0.187,0.371
						v0.185H59.008z M59.75,28.729v0.555h0.186v0.185h0.554v-0.739H59.75z M61.97,28.729h-0.557v0.184H61.23v0.556h0.74V28.729z
						 M81.773,29.097h-0.74v0.742h0.74V29.097z M82.514,29.653h0.184c0.211,0.206-0.002,0.079,0.371,0.186
						c0.109-0.283,0.148-0.301,0.184-0.742h-0.738V29.653z M84.732,29.097h-0.74v0.742h0.74V29.097z M85.66,29.653
						c0.209,0.206-0.002,0.079,0.367,0.186c0.109-0.283,0.148-0.301,0.188-0.742H85.66c-0.158,0.209,0.023,0.031-0.186,0.187
						C85.584,29.653,85.447,29.442,85.66,29.653z M87.139,29.653c0.211,0.206,0,0.079,0.371,0.186v-0.186
						c0.207-0.209,0.08,0.002,0.186-0.37c-0.186-0.061-0.371-0.124-0.557-0.187c-0.061,0.126-0.123,0.249-0.186,0.371
						C86.982,29.729,86.98,29.446,87.139,29.653z M90.102,29.283h-0.188v0.556h0.74v-0.742h-0.553V29.283z M91.951,29.839v-0.186
						c0.207-0.209,0.08,0.002,0.186-0.37c-0.186-0.061-0.371-0.124-0.555-0.187c-0.062,0.187-0.125,0.371-0.186,0.557h0.186
						C91.791,29.859,91.58,29.732,91.951,29.839z M92.877,29.653h0.184v0.186h0.557v-0.742h-0.74V29.653z M57.714,29.468v0.739
						h0.554v-0.739H57.714z M83.809,30.394h0.184v-0.555h-0.74v0.74h0.557V30.394z M85.289,30.579v-0.186h0.186
						c-0.119-0.438-0.053-0.348-0.371-0.555C84.863,30.333,84.561,30.355,85.289,30.579z M86.77,30.579v-0.186
						c0.207-0.21,0.078,0.002,0.184-0.37c-0.184-0.062-0.369-0.124-0.553-0.185c-0.062,0.185-0.125,0.368-0.186,0.555H86.4
						C86.609,30.601,86.398,30.474,86.77,30.579z M92.137,30.765c-0.246-0.124-0.494-0.247-0.74-0.371v-0.37h-0.186
						c-0.209-0.208,0.002-0.08-0.369-0.185c-0.158,0.207,0.023,0.029-0.188,0.185c0.113,0.369-0.023,0.159,0.188,0.37v0.186h0.555
						v0.739h0.74V30.765z M92.693,30.579c0.107-0.284,0.146-0.302,0.184-0.74h-0.555c-0.062,0.185-0.125,0.368-0.186,0.555h0.186
						C92.531,30.601,92.32,30.474,92.693,30.579z M93.061,30.579c-0.158,0.208,0.025,0.027-0.184,0.186
						c0.111,0.369-0.027,0.158,0.184,0.369v0.185h0.557v-0.554h0.371v-0.926h-0.188c-0.107,0.283-0.146,0.301-0.184,0.74H93.061z
						 M58.268,30.207v0.558h0.187v0.184h0.554v-0.741H58.268z M84.18,30.579c-0.062,0.122-0.125,0.247-0.188,0.369v0.186h0.188
						c0.209,0.207-0.002,0.08,0.367,0.185v-0.185c0.209-0.211,0.08,0.001,0.186-0.369C84.547,30.701,84.363,30.641,84.18,30.579z
						 M85.475,30.765c0.109,0.369-0.027,0.158,0.186,0.369c0.209,0.207-0.002,0.08,0.367,0.185c0.109-0.282,0.148-0.301,0.188-0.739
						H85.66C85.502,30.787,85.684,30.606,85.475,30.765z M87.139,31.318c0.371-0.111,0.162,0.026,0.371-0.185
						c0.207-0.211,0.08,0.001,0.186-0.369c-0.186-0.063-0.371-0.124-0.557-0.186V31.318z M57.714,30.948
						c0.11,0.37-0.026,0.159,0.184,0.37c0.113,0.37-0.025,0.159,0.186,0.37c0.107-0.283,0.148-0.302,0.185-0.74H57.714z
						 M94.357,32.244c-0.062-0.369-0.123-0.741-0.186-1.11c-0.184,0.061-0.371,0.123-0.555,0.185
						C93.684,31.992,93.762,32.107,94.357,32.244z M83.252,31.318v0.742h0.74v-0.742H83.252z M84.92,32.061h0.555v-0.742H84.92
						v0.185h-0.188C84.795,31.688,84.857,31.875,84.92,32.061z M86.4,31.875c0.209,0.207-0.002,0.077,0.369,0.186v-0.186
						c0.207-0.21,0.078,0.002,0.184-0.372c-0.184-0.062-0.369-0.122-0.553-0.185c-0.062,0.185-0.125,0.37-0.186,0.557H86.4z
						 M88.25,31.875c0.207-0.21,0.078,0.002,0.186-0.372c-0.186-0.062-0.371-0.122-0.555-0.185v0.742
						C88.25,31.947,88.039,32.085,88.25,31.875z M92.322,31.875c0.209,0.207-0.002,0.077,0.371,0.186v-0.186
						c0.207-0.21,0.078,0.002,0.184-0.372c-0.283-0.107-0.301-0.147-0.74-0.185v0.557H92.322z M58.455,31.688
						c-0.16,0.209,0.024,0.029-0.187,0.187c0.111,0.367-0.025,0.158,0.187,0.369v0.185h0.554v-0.74H58.455z M85.66,32.614
						c0.209,0.207-0.002,0.078,0.367,0.185v-0.185c0.209-0.211,0.08,0.002,0.188-0.37c-0.283-0.108-0.301-0.148-0.74-0.184v0.554
						H85.66z M87.139,32.061v0.184h-0.186c0.062,0.185,0.125,0.37,0.186,0.555c0.371-0.11,0.162,0.025,0.371-0.185
						c0.207-0.211,0.08,0.002,0.186-0.37H87.51C87.301,32.038,87.512,32.166,87.139,32.061z M91.582,32.061
						c-0.158,0.208,0.023,0.027-0.186,0.184c0.109,0.37-0.025,0.159,0.186,0.37c0.209,0.207-0.002,0.078,0.369,0.185
						c0.109-0.282,0.146-0.301,0.186-0.738H91.582z M93.617,32.799v-0.738h-0.557c-0.158,0.208,0.025,0.027-0.184,0.184
						c0.111,0.37-0.027,0.159,0.184,0.37v0.185H93.617z M94.172,32.799c-0.184,0.063-0.371,0.124-0.555,0.185
						c0.111,0.369-0.025,0.16,0.184,0.373v0.183h0.557v-0.925C94.148,32.772,94.328,32.59,94.172,32.799z M85.289,32.983
						c-0.211-0.207,0.002-0.077-0.369-0.185c-0.109,0.282-0.148,0.301-0.188,0.74h0.557v-0.183c0.209-0.213,0.078,0,0.186-0.373
						H85.289z M86.215,33.17v0.187c0.186,0.06,0.369,0.121,0.555,0.183c0.062-0.183,0.123-0.369,0.184-0.556
						c-0.184-0.061-0.369-0.121-0.553-0.185C86.287,33.169,86.426,32.959,86.215,33.17z M88.25,33.356
						c0.207-0.213,0.078,0,0.186-0.373c-0.186-0.061-0.371-0.121-0.555-0.185v0.74C88.25,33.429,88.039,33.566,88.25,33.356z
						 M92.693,33.539c0.107-0.281,0.146-0.301,0.184-0.74h-0.555c-0.062,0.185-0.125,0.371-0.186,0.558h0.186
						C92.531,33.562,92.32,33.434,92.693,33.539z M58.639,33.356h-0.185v0.183c0.187,0.143,0.182,0.229,0.37,0.371
						c0.107-0.282,0.147-0.301,0.184-0.74C58.639,33.28,58.851,33.144,58.639,33.356z M84.732,33.725h-0.186v-0.186h-0.555v0.741
						h0.74V33.725z M85.66,33.539c-0.062,0.186-0.125,0.371-0.186,0.555c0.281,0.109,0.301,0.148,0.74,0.187v-0.556
						C86.027,33.663,85.844,33.601,85.66,33.539z M87.139,33.539c-0.107,0.283-0.146,0.302-0.186,0.741h0.557v-0.187
						c0.207-0.209,0.08,0.002,0.186-0.369H87.51C87.301,33.518,87.512,33.646,87.139,33.539z M91.582,33.539
						c-0.062,0.186-0.125,0.371-0.186,0.555h0.186c0.209,0.208-0.002,0.08,0.369,0.187v-0.187c0.207-0.209,0.08,0.002,0.186-0.369
						C91.951,33.663,91.766,33.601,91.582,33.539z M93.432,34.094h0.186v-0.555h-0.557v0.186h-0.184v0.556h0.555V34.094z
						 M94.172,34.28c-0.184,0.062-0.371,0.124-0.555,0.187c0.141,0.502,0.043,0.42,0.555,0.554c0.113-0.37-0.025-0.158,0.186-0.37
						v-0.557C94.148,34.253,94.328,34.071,94.172,34.28z M85.289,34.835c0.209-0.21,0.078,0.001,0.186-0.368h-0.186
						c-0.211-0.209,0.002-0.08-0.369-0.187c-0.109,0.282-0.148,0.301-0.188,0.74h0.557V34.835z M86.215,34.835H86.4
						c0.209,0.207-0.002,0.079,0.369,0.186v-0.186c0.207-0.21,0.078,0.001,0.184-0.368c-0.281-0.109-0.301-0.15-0.738-0.187V34.835z
						 M93.061,35.021v-0.186h-0.184V34.28h-0.555c-0.16,0.209,0.023,0.028-0.186,0.187c0.111,0.367-0.025,0.158,0.186,0.368v0.186
						h0.555v0.555h0.184v0.187h0.557v-0.741H93.061z M91.582,35.021c-0.062,0.185-0.125,0.369-0.186,0.555
						c0.283,0.108,0.301,0.148,0.74,0.187v-0.741H91.582z M92.693,36.501v-0.186h0.184v-0.554h-0.74v0.739H92.693z M93.617,36.501
						h-0.557c-0.158,0.209,0.025,0.028-0.184,0.185c0.111,0.369-0.027,0.159,0.184,0.37v0.187h0.557
						c0.121-0.577,0.318-0.827,0.371-1.48h-0.371V36.501z M91.396,36.686c0.109,0.369-0.025,0.159,0.186,0.37v0.187h0.555v-0.741
						h-0.555C91.424,36.71,91.605,36.529,91.396,36.686z M92.137,37.426c0.111,0.369-0.025,0.159,0.186,0.371v0.185h0.555v-0.739
						h-0.555C92.162,37.449,92.346,37.27,92.137,37.426z M91.396,37.981v0.556h0.186v0.184h0.555v-0.739H91.396z M92.137,39.276
						h0.186c0.209,0.209-0.002,0.079,0.371,0.185c0.107-0.282,0.146-0.301,0.184-0.74h-0.74V39.276z M91.582,40.016
						c0.209,0.209-0.002,0.08,0.369,0.187c0.109-0.283,0.146-0.302,0.186-0.741h-0.555c-0.158,0.209,0.023,0.03-0.186,0.187
						C91.506,40.016,91.371,39.806,91.582,40.016z M90.842,40.757v0.186h0.555v-0.74h-0.742v0.555H90.842z M92.137,40.388
						c0.143,0.503,0.043,0.421,0.557,0.555c0.061-0.186,0.123-0.37,0.184-0.555c-0.184-0.062-0.371-0.123-0.555-0.186
						C92.162,40.411,92.346,40.231,92.137,40.388z M91.396,40.942v0.741h0.74v-0.741H91.396z M92.137,42.237h0.186
						c0.061-0.185,0.123-0.37,0.184-0.554h-0.369V42.237z M91.951,42.423h-0.555v0.556C91.9,42.837,91.818,42.934,91.951,42.423z
						 M91.211,43.719v-0.186c0.209-0.157,0.029,0.025,0.186-0.186c-0.283-0.108-0.301-0.146-0.742-0.185v0.556H91.211z
						 M89.359,44.644v-0.186h-0.184v-0.556h-0.74v0.741h0.74v0.74h0.555v-0.185c0.471-0.387,0.078-0.435,0.924-0.556v-0.741h-0.74
						v0.741H89.359z M88.436,44.644h-0.555v-0.555c-0.449,0.113-0.408,0.194-0.742,0.369v0.186c0.186,0.062,0.371,0.124,0.557,0.186
						v0.555h0.74V44.644z M88.436,46.124h-0.555v-0.185h-0.186v-0.556c-0.441-0.097-0.58-0.218-0.926-0.37
						c-0.158,0.209,0.025,0.028-0.186,0.186c0.201,0.381,0.311,0.326,0.369,0.925c-0.244-0.061-0.492-0.123-0.738-0.185
						c-0.062,0.124-0.125,0.246-0.188,0.37c0,0,0.334,0.097,0.188,0.371h-0.188v0.184c-0.291-0.138-0.441-0.168-0.924-0.184
						c0.176,0.332,0.264,0.286,0.371,0.739c-0.369,0.111-0.16-0.025-0.371,0.186H84.92v-0.555c-0.752,0.208-0.479,0.504-1.482,0.555
						c-0.109,0.368,0.027,0.158-0.186,0.369v0.187h-1.295c0.213,0.207-0.002,0.078,0.371,0.185v0.556h-0.371v-0.372
						c-0.246-0.061-0.492-0.123-0.74-0.184c-0.107,0.282-0.148,0.302-0.184,0.74c0.555,0.184,1.109,0.37,1.664,0.555V49.27h0.555
						v0.371c0.785-0.057,0.633-0.093,1.111-0.371v-0.184h0.184c0,0,0.271,0.326,0.373,0.37c0.061-0.125,0.123-0.248,0.184-0.37
						H84.92c-0.053-0.485,0.016-0.36,0.184-0.557c0.16-0.207-0.025-0.027,0.186-0.184c0.113,0.235,0.18,0.395,0.371,0.556v0.185
						c0.184-0.062,0.367-0.123,0.555-0.185v-0.556h0.555c0.123-0.247,0.246-0.493,0.369-0.74h0.371V47.42h0.186v-0.556h0.74V46.31
						h0.184c0.389-0.472,0.436-0.077,0.557-0.926h-0.74V46.124z M83.992,48.716c-0.184,0.062-0.369,0.123-0.555,0.186v-0.556
						c0.369,0.11,0.16-0.027,0.371,0.184h0.184V48.716z M84.547,48.161c-0.156,0.207,0.027,0.027-0.184,0.185
						c-0.174-0.565-0.184-0.172,0-0.74l0.369,0.185C84.623,48.159,84.758,47.95,84.547,48.161z M85.844,48.346H85.66
						c-0.062-0.185-0.125-0.371-0.186-0.556c0.186-0.062,0.369-0.123,0.553-0.185c0.062,0.185,0.125,0.369,0.188,0.556
						C85.846,48.272,86.055,48.134,85.844,48.346z M86.4,47.605v-0.741c0.184,0.061,0.369,0.123,0.553,0.187
						C86.814,47.554,86.91,47.471,86.4,47.605z M87.51,46.681c-0.209,0.206,0.002,0.077-0.371,0.184v-0.184h-0.186
						c0.062-0.187,0.125-0.371,0.186-0.557c0.186,0.062,0.371,0.123,0.557,0.186C87.582,46.679,87.721,46.469,87.51,46.681z"/>
				</g>
			</g>
		</g>
	</g>
</g>
</svg>
