<?xml version="1.0" encoding="utf-8"?>
<!-- Generator: Adobe Illustrator 16.0.0, SVG Export Plug-In . SVG Version: 6.00 Build 0)  -->
<!DOCTYPE svg PUBLIC "-//W3C//DTD SVG 1.1//EN" "http://www.w3.org/Graphics/SVG/1.1/DTD/svg11.dtd">
<svg version="1.1" id="レイヤー_1" xmlns="http://www.w3.org/2000/svg" xmlns:xlink="http://www.w3.org/1999/xlink" x="0px"
	 y="0px" width="224.893px" height="17.051px" viewBox="0 0 224.893 17.051" enable-background="new 0 0 224.893 17.051"
	 xml:space="preserve">
<g>
	<g>
		<path fill="#947F28" d="M7.49,9.291C7.274,8.787,7.058,8.246,6.878,7.635C6.608,8.428,6.41,8.967,6.302,9.219l-1.98,4.412L0,4.789
			h2.035l1.873,4.016c0.126,0.289,0.288,0.848,0.414,1.693C4.339,9.957,4.52,9.49,4.753,8.984l2.035-4.5H6.95l2.07,4.5
			c0.234,0.506,0.378,0.973,0.396,1.514c0.108-0.648,0.27-1.207,0.486-1.676l1.836-4.033h2.017l-4.339,8.842L7.49,9.291z"/>
		<path fill="#947F28" d="M20.99,9.291c-0.216-0.504-0.432-1.045-0.612-1.656c-0.27,0.793-0.468,1.332-0.576,1.584l-1.98,4.412
			L13.5,4.789h2.035l1.873,4.016c0.126,0.289,0.288,0.848,0.414,1.693c0.018-0.541,0.198-1.008,0.432-1.514l2.035-4.5h0.162
			l2.07,4.5c0.234,0.506,0.378,0.973,0.396,1.514c0.108-0.648,0.27-1.207,0.486-1.676l1.836-4.033h2.017l-4.339,8.842L20.99,9.291z"
			/>
		<path fill="#947F28" d="M34.49,9.291c-0.216-0.504-0.432-1.045-0.612-1.656c-0.27,0.793-0.468,1.332-0.576,1.584l-1.98,4.412
			L27,4.789h2.035l1.873,4.016c0.126,0.289,0.288,0.848,0.414,1.693c0.018-0.541,0.198-1.008,0.432-1.514l2.035-4.5h0.162l2.07,4.5
			c0.234,0.506,0.378,0.973,0.396,1.514c0.108-0.648,0.27-1.207,0.486-1.676l1.836-4.033h2.017l-4.339,8.842L34.49,9.291z"/>
		<path fill="#947F28" d="M43.345,10.984c0.648,0,1.152,0.521,1.152,1.17c0,0.631-0.504,1.135-1.152,1.135
			c-0.648,0-1.152-0.504-1.152-1.135C42.192,11.506,42.697,10.984,43.345,10.984z"/>
		<path fill="#947F28" d="M47.826,6.465h-1.458V4.789h1.458v-3.15h1.908v3.15h1.458v1.676h-1.458v6.662h-1.908V6.465z"/>
		<path fill="#947F28" d="M58.772,13.127v-1.08c-0.685,0.953-1.584,1.422-2.755,1.422c-2.323,0-3.799-1.674-3.799-4.52
			c0-2.684,1.548-4.447,3.745-4.447c1.369,0,2.359,0.594,2.809,1.656V4.789h1.908v8.338H58.772z M56.539,6.195
			c-1.44,0-2.323,1.043-2.323,2.809c0,1.781,0.846,2.771,2.287,2.771c1.314,0,2.323-1.08,2.323-2.844
			C58.826,7.186,57.961,6.195,56.539,6.195z"/>
		<path fill="#947F28" d="M63.306,4.789h1.8v1.369c0.774-1.17,1.765-1.656,3.223-1.656c1.242,0,2.125,0.396,2.611,1.17
			c0.414,0.631,0.414,1.387,0.414,2.395v5.061h-1.927V8.842c0-1.855-0.234-2.719-1.818-2.719c-0.9,0-1.621,0.342-2.017,0.936
			c-0.342,0.504-0.378,1.225-0.378,2.27v3.799h-1.909V4.789z"/>
		<path fill="#947F28" d="M77.473,17.051c-2.359,0-3.781-1.098-3.799-2.664h2.053c0.054,0.703,0.667,1.098,1.783,1.098
			c1.747,0,2.287-0.773,2.305-2.34l0.018-1.098c-0.685,0.953-1.584,1.422-2.755,1.422c-2.323,0-3.799-1.674-3.799-4.52
			c0-2.684,1.548-4.447,3.745-4.447c1.369,0,2.359,0.594,2.809,1.656V4.789h1.908v7.814C81.74,15.719,80.696,17.051,77.473,17.051z
			 M77.599,6.195c-1.44,0-2.323,1.043-2.323,2.809c0,1.781,0.846,2.771,2.287,2.771c1.314,0,2.323-1.08,2.323-2.844
			C79.885,7.186,79.021,6.195,77.599,6.195z"/>
		<path fill="#947F28" d="M85.733,9.238c0.09,1.566,0.973,2.484,2.359,2.484c1.224,0,1.999-0.486,2.611-1.639l1.603,0.9
			c-0.937,1.674-2.305,2.484-4.177,2.484c-2.665,0-4.375-1.766-4.375-4.484c0-2.592,1.783-4.482,4.375-4.482
			c2.683,0,4.267,1.602,4.267,4.375c0,0.107,0,0.234,0,0.361H85.733z M88.164,6.123c-1.242,0-1.999,0.594-2.305,1.836h4.556
			C90.271,6.752,89.479,6.123,88.164,6.123z"/>
		<path fill="#947F28" d="M98.352,4.502c0.541,0,1.062,0.127,1.566,0.379L99.234,6.5c-0.36-0.252-0.738-0.342-1.17-0.342
			c-1.35,0-1.782,1.062-1.782,3.312v3.656h-1.909V4.771h1.909v1.352C96.696,5.023,97.344,4.502,98.352,4.502z"/>
		<path fill="#947F28" d="M102.042,0c0.666,0,1.188,0.504,1.188,1.189c0,0.684-0.522,1.205-1.188,1.205
			c-0.667,0-1.207-0.557-1.207-1.205S101.375,0,102.042,0z M101.087,4.789h1.909v8.338h-1.909V4.789z"/>
		<path fill="#947F28" d="M105.713,4.789h1.8v1.369c0.774-1.17,1.765-1.656,3.223-1.656c1.242,0,2.125,0.396,2.611,1.17
			c0.414,0.631,0.414,1.387,0.414,2.395v5.061h-1.927V8.842c0-1.855-0.234-2.719-1.818-2.719c-0.9,0-1.621,0.342-2.017,0.936
			c-0.342,0.504-0.378,1.225-0.378,2.27v3.799h-1.909V4.789z"/>
		<path fill="#947F28" d="M117.665,9.238c0.091,1.566,0.973,2.484,2.358,2.484c1.225,0,1.999-0.486,2.611-1.639l1.603,0.9
			c-0.937,1.674-2.305,2.484-4.177,2.484c-2.666,0-4.376-1.766-4.376-4.484c0-2.592,1.782-4.482,4.376-4.482
			c2.682,0,4.267,1.602,4.267,4.375c0,0.107,0,0.234,0,0.361H117.665z M120.096,6.123c-1.242,0-1.998,0.594-2.305,1.836h4.556
			C122.203,6.752,121.41,6.123,120.096,6.123z"/>
		<path fill="#947F28" d="M130.986,8.104v1.764h-4.699V8.104H130.986z"/>
		<path fill="#947F28" d="M139.537,13.127v-1.08c-0.686,0.953-1.585,1.422-2.756,1.422c-2.322,0-3.799-1.674-3.799-4.52
			c0-2.684,1.549-4.447,3.745-4.447c1.368,0,2.358,0.594,2.81,1.656V4.789h1.908v8.338H139.537z M137.304,6.195
			c-1.44,0-2.323,1.043-2.323,2.809c0,1.781,0.847,2.771,2.287,2.771c1.314,0,2.322-1.08,2.322-2.844
			C139.59,7.186,138.727,6.195,137.304,6.195z"/>
		<path fill="#947F28" d="M148.049,4.502c0.541,0,1.062,0.127,1.566,0.379L148.932,6.5c-0.359-0.252-0.738-0.342-1.17-0.342
			c-1.351,0-1.783,1.062-1.783,3.312v3.656h-1.908V4.771h1.908v1.352C146.393,5.023,147.041,4.502,148.049,4.502z"/>
		<path fill="#947F28" d="M151.433,5.799c0.864-0.848,2.017-1.297,3.223-1.297c1.243,0,2.377,0.449,3.259,1.314
			c0.865,0.846,1.351,1.945,1.351,3.15c0,1.242-0.468,2.342-1.332,3.17c-0.9,0.863-2.034,1.332-3.277,1.332
			c-1.206,0-2.358-0.469-3.223-1.314c-0.882-0.865-1.351-1.963-1.351-3.188C150.082,7.762,150.551,6.645,151.433,5.799z
			 M154.674,6.213c-1.423,0-2.575,1.205-2.575,2.771s1.152,2.773,2.575,2.773c1.404,0,2.574-1.207,2.574-2.773
			S156.096,6.213,154.674,6.213z"/>
		<path fill="#947F28" d="M161.278,13.127V4.789h1.8v1.369c0.757-1.152,1.676-1.674,3.008-1.674c1.296,0,2.143,0.539,2.593,1.656
			c0.864-1.135,1.8-1.656,3.097-1.656c1.116,0,1.944,0.432,2.395,1.188c0.271,0.451,0.307,1.027,0.307,1.729
			c0,0.199,0,0.432,0,0.666v5.061h-1.909V8.842c0-1.838-0.18-2.738-1.62-2.738c-1.656,0-2.089,1.082-2.089,3.225v3.799h-1.927V8.842
			c0-1.891-0.342-2.738-1.656-2.738c-0.756,0-1.404,0.361-1.765,0.955c-0.323,0.541-0.323,1.242-0.323,2.27v3.799H161.278z"/>
		<path fill="#947F28" d="M182.971,13.127v-1.08c-0.686,0.953-1.585,1.422-2.756,1.422c-2.322,0-3.799-1.674-3.799-4.52
			c0-2.684,1.549-4.447,3.745-4.447c1.368,0,2.358,0.594,2.81,1.656V4.789h1.908v8.338H182.971z M180.737,6.195
			c-1.44,0-2.323,1.043-2.323,2.809c0,1.781,0.847,2.771,2.287,2.771c1.314,0,2.322-1.08,2.322-2.844
			C183.023,7.186,182.16,6.195,180.737,6.195z"/>
		<path fill="#947F28" d="M188.908,10.984c0.648,0,1.152,0.521,1.152,1.17c0,0.631-0.504,1.135-1.152,1.135
			s-1.152-0.504-1.152-1.135C187.756,11.506,188.26,10.984,188.908,10.984z"/>
		<path fill="#947F28" d="M196.883,6.176c-1.549,0-2.575,1.08-2.575,2.756c0,1.746,1.009,2.791,2.665,2.791
			c0.918,0,1.639-0.342,2.197-1.045v2.197c-0.703,0.396-1.495,0.594-2.414,0.594c-2.61,0-4.429-1.836-4.429-4.484
			c0-2.682,1.872-4.482,4.628-4.482c0.846,0,1.566,0.162,2.215,0.521v2.143C198.594,6.537,197.801,6.176,196.883,6.176z"/>
		<path fill="#947F28" d="M201.85,5.799c0.864-0.848,2.017-1.297,3.223-1.297c1.242,0,2.377,0.449,3.26,1.314
			c0.863,0.846,1.35,1.945,1.35,3.15c0,1.242-0.468,2.342-1.332,3.17c-0.9,0.863-2.035,1.332-3.277,1.332
			c-1.206,0-2.358-0.469-3.223-1.314c-0.883-0.865-1.351-1.963-1.351-3.188C200.499,7.762,200.967,6.645,201.85,5.799z
			 M205.09,6.213c-1.422,0-2.574,1.205-2.574,2.771s1.152,2.773,2.574,2.773c1.405,0,2.575-1.207,2.575-2.773
			S206.513,6.213,205.09,6.213z"/>
		<path fill="#947F28" d="M211.695,13.127V4.789h1.801v1.369c0.756-1.152,1.674-1.674,3.007-1.674c1.296,0,2.143,0.539,2.593,1.656
			c0.864-1.135,1.801-1.656,3.097-1.656c1.116,0,1.944,0.432,2.395,1.188c0.271,0.451,0.306,1.027,0.306,1.729
			c0,0.199,0,0.432,0,0.666v5.061h-1.908V8.842c0-1.838-0.18-2.738-1.62-2.738c-1.657,0-2.089,1.082-2.089,3.225v3.799h-1.926V8.842
			c0-1.891-0.343-2.738-1.657-2.738c-0.757,0-1.404,0.361-1.765,0.955c-0.324,0.541-0.324,1.242-0.324,2.27v3.799H211.695z"/>
	</g>
	<g>
		<path fill="#947F28" d="M7.49,9.291C7.274,8.787,7.058,8.246,6.878,7.635C6.608,8.428,6.41,8.967,6.302,9.219l-1.98,4.412L0,4.789
			h2.035l1.873,4.016c0.126,0.289,0.288,0.848,0.414,1.693C4.339,9.957,4.52,9.49,4.753,8.984l2.035-4.5H6.95l2.07,4.5
			c0.234,0.506,0.378,0.973,0.396,1.514c0.108-0.648,0.27-1.207,0.486-1.676l1.836-4.033h2.017l-4.339,8.842L7.49,9.291z"/>
		<path fill="#947F28" d="M20.99,9.291c-0.216-0.504-0.432-1.045-0.612-1.656c-0.27,0.793-0.468,1.332-0.576,1.584l-1.98,4.412
			L13.5,4.789h2.035l1.873,4.016c0.126,0.289,0.288,0.848,0.414,1.693c0.018-0.541,0.198-1.008,0.432-1.514l2.035-4.5h0.162
			l2.07,4.5c0.234,0.506,0.378,0.973,0.396,1.514c0.108-0.648,0.27-1.207,0.486-1.676l1.836-4.033h2.017l-4.339,8.842L20.99,9.291z"
			/>
		<path fill="#947F28" d="M34.49,9.291c-0.216-0.504-0.432-1.045-0.612-1.656c-0.27,0.793-0.468,1.332-0.576,1.584l-1.98,4.412
			L27,4.789h2.035l1.873,4.016c0.126,0.289,0.288,0.848,0.414,1.693c0.018-0.541,0.198-1.008,0.432-1.514l2.035-4.5h0.162l2.07,4.5
			c0.234,0.506,0.378,0.973,0.396,1.514c0.108-0.648,0.27-1.207,0.486-1.676l1.836-4.033h2.017l-4.339,8.842L34.49,9.291z"/>
		<path fill="#947F28" d="M43.345,10.984c0.648,0,1.152,0.521,1.152,1.17c0,0.631-0.504,1.135-1.152,1.135
			c-0.648,0-1.152-0.504-1.152-1.135C42.192,11.506,42.697,10.984,43.345,10.984z"/>
		<path fill="#947F28" d="M47.826,6.465h-1.458V4.789h1.458v-3.15h1.908v3.15h1.458v1.676h-1.458v6.662h-1.908V6.465z"/>
		<path fill="#947F28" d="M58.772,13.127v-1.08c-0.685,0.953-1.584,1.422-2.755,1.422c-2.323,0-3.799-1.674-3.799-4.52
			c0-2.684,1.548-4.447,3.745-4.447c1.369,0,2.359,0.594,2.809,1.656V4.789h1.908v8.338H58.772z M56.539,6.195
			c-1.44,0-2.323,1.043-2.323,2.809c0,1.781,0.846,2.771,2.287,2.771c1.314,0,2.323-1.08,2.323-2.844
			C58.826,7.186,57.961,6.195,56.539,6.195z"/>
		<path fill="#947F28" d="M63.306,4.789h1.8v1.369c0.774-1.17,1.765-1.656,3.223-1.656c1.242,0,2.125,0.396,2.611,1.17
			c0.414,0.631,0.414,1.387,0.414,2.395v5.061h-1.927V8.842c0-1.855-0.234-2.719-1.818-2.719c-0.9,0-1.621,0.342-2.017,0.936
			c-0.342,0.504-0.378,1.225-0.378,2.27v3.799h-1.909V4.789z"/>
		<path fill="#947F28" d="M77.473,17.051c-2.359,0-3.781-1.098-3.799-2.664h2.053c0.054,0.703,0.667,1.098,1.783,1.098
			c1.747,0,2.287-0.773,2.305-2.34l0.018-1.098c-0.685,0.953-1.584,1.422-2.755,1.422c-2.323,0-3.799-1.674-3.799-4.52
			c0-2.684,1.548-4.447,3.745-4.447c1.369,0,2.359,0.594,2.809,1.656V4.789h1.908v7.814C81.74,15.719,80.696,17.051,77.473,17.051z
			 M77.599,6.195c-1.44,0-2.323,1.043-2.323,2.809c0,1.781,0.846,2.771,2.287,2.771c1.314,0,2.323-1.08,2.323-2.844
			C79.885,7.186,79.021,6.195,77.599,6.195z"/>
		<path fill="#947F28" d="M85.733,9.238c0.09,1.566,0.973,2.484,2.359,2.484c1.224,0,1.999-0.486,2.611-1.639l1.603,0.9
			c-0.937,1.674-2.305,2.484-4.177,2.484c-2.665,0-4.375-1.766-4.375-4.484c0-2.592,1.783-4.482,4.375-4.482
			c2.683,0,4.267,1.602,4.267,4.375c0,0.107,0,0.234,0,0.361H85.733z M88.164,6.123c-1.242,0-1.999,0.594-2.305,1.836h4.556
			C90.271,6.752,89.479,6.123,88.164,6.123z"/>
		<path fill="#947F28" d="M98.352,4.502c0.541,0,1.062,0.127,1.566,0.379L99.234,6.5c-0.36-0.252-0.738-0.342-1.17-0.342
			c-1.35,0-1.782,1.062-1.782,3.312v3.656h-1.909V4.771h1.909v1.352C96.696,5.023,97.344,4.502,98.352,4.502z"/>
		<path fill="#947F28" d="M102.042,0c0.666,0,1.188,0.504,1.188,1.189c0,0.684-0.522,1.205-1.188,1.205
			c-0.667,0-1.207-0.557-1.207-1.205S101.375,0,102.042,0z M101.087,4.789h1.909v8.338h-1.909V4.789z"/>
		<path fill="#947F28" d="M105.713,4.789h1.8v1.369c0.774-1.17,1.765-1.656,3.223-1.656c1.242,0,2.125,0.396,2.611,1.17
			c0.414,0.631,0.414,1.387,0.414,2.395v5.061h-1.927V8.842c0-1.855-0.234-2.719-1.818-2.719c-0.9,0-1.621,0.342-2.017,0.936
			c-0.342,0.504-0.378,1.225-0.378,2.27v3.799h-1.909V4.789z"/>
		<path fill="#947F28" d="M117.665,9.238c0.091,1.566,0.973,2.484,2.358,2.484c1.225,0,1.999-0.486,2.611-1.639l1.603,0.9
			c-0.937,1.674-2.305,2.484-4.177,2.484c-2.666,0-4.376-1.766-4.376-4.484c0-2.592,1.782-4.482,4.376-4.482
			c2.682,0,4.267,1.602,4.267,4.375c0,0.107,0,0.234,0,0.361H117.665z M120.096,6.123c-1.242,0-1.998,0.594-2.305,1.836h4.556
			C122.203,6.752,121.41,6.123,120.096,6.123z"/>
		<path fill="#947F28" d="M130.986,8.104v1.764h-4.699V8.104H130.986z"/>
		<path fill="#947F28" d="M139.537,13.127v-1.08c-0.686,0.953-1.585,1.422-2.756,1.422c-2.322,0-3.799-1.674-3.799-4.52
			c0-2.684,1.549-4.447,3.745-4.447c1.368,0,2.358,0.594,2.81,1.656V4.789h1.908v8.338H139.537z M137.304,6.195
			c-1.44,0-2.323,1.043-2.323,2.809c0,1.781,0.847,2.771,2.287,2.771c1.314,0,2.322-1.08,2.322-2.844
			C139.59,7.186,138.727,6.195,137.304,6.195z"/>
		<path fill="#947F28" d="M148.049,4.502c0.541,0,1.062,0.127,1.566,0.379L148.932,6.5c-0.359-0.252-0.738-0.342-1.17-0.342
			c-1.351,0-1.783,1.062-1.783,3.312v3.656h-1.908V4.771h1.908v1.352C146.393,5.023,147.041,4.502,148.049,4.502z"/>
		<path fill="#947F28" d="M151.433,5.799c0.864-0.848,2.017-1.297,3.223-1.297c1.243,0,2.377,0.449,3.259,1.314
			c0.865,0.846,1.351,1.945,1.351,3.15c0,1.242-0.468,2.342-1.332,3.17c-0.9,0.863-2.034,1.332-3.277,1.332
			c-1.206,0-2.358-0.469-3.223-1.314c-0.882-0.865-1.351-1.963-1.351-3.188C150.082,7.762,150.551,6.645,151.433,5.799z
			 M154.674,6.213c-1.423,0-2.575,1.205-2.575,2.771s1.152,2.773,2.575,2.773c1.404,0,2.574-1.207,2.574-2.773
			S156.096,6.213,154.674,6.213z"/>
		<path fill="#947F28" d="M161.278,13.127V4.789h1.8v1.369c0.757-1.152,1.676-1.674,3.008-1.674c1.296,0,2.143,0.539,2.593,1.656
			c0.864-1.135,1.8-1.656,3.097-1.656c1.116,0,1.944,0.432,2.395,1.188c0.271,0.451,0.307,1.027,0.307,1.729
			c0,0.199,0,0.432,0,0.666v5.061h-1.909V8.842c0-1.838-0.18-2.738-1.62-2.738c-1.656,0-2.089,1.082-2.089,3.225v3.799h-1.927V8.842
			c0-1.891-0.342-2.738-1.656-2.738c-0.756,0-1.404,0.361-1.765,0.955c-0.323,0.541-0.323,1.242-0.323,2.27v3.799H161.278z"/>
		<path fill="#947F28" d="M182.971,13.127v-1.08c-0.686,0.953-1.585,1.422-2.756,1.422c-2.322,0-3.799-1.674-3.799-4.52
			c0-2.684,1.549-4.447,3.745-4.447c1.368,0,2.358,0.594,2.81,1.656V4.789h1.908v8.338H182.971z M180.737,6.195
			c-1.44,0-2.323,1.043-2.323,2.809c0,1.781,0.847,2.771,2.287,2.771c1.314,0,2.322-1.08,2.322-2.844
			C183.023,7.186,182.16,6.195,180.737,6.195z"/>
		<path fill="#947F28" d="M188.908,10.984c0.648,0,1.152,0.521,1.152,1.17c0,0.631-0.504,1.135-1.152,1.135
			s-1.152-0.504-1.152-1.135C187.756,11.506,188.26,10.984,188.908,10.984z"/>
		<path fill="#947F28" d="M196.883,6.176c-1.549,0-2.575,1.08-2.575,2.756c0,1.746,1.009,2.791,2.665,2.791
			c0.918,0,1.639-0.342,2.197-1.045v2.197c-0.703,0.396-1.495,0.594-2.414,0.594c-2.61,0-4.429-1.836-4.429-4.484
			c0-2.682,1.872-4.482,4.628-4.482c0.846,0,1.566,0.162,2.215,0.521v2.143C198.594,6.537,197.801,6.176,196.883,6.176z"/>
		<path fill="#947F28" d="M201.85,5.799c0.864-0.848,2.017-1.297,3.223-1.297c1.242,0,2.377,0.449,3.26,1.314
			c0.863,0.846,1.35,1.945,1.35,3.15c0,1.242-0.468,2.342-1.332,3.17c-0.9,0.863-2.035,1.332-3.277,1.332
			c-1.206,0-2.358-0.469-3.223-1.314c-0.883-0.865-1.351-1.963-1.351-3.188C200.499,7.762,200.967,6.645,201.85,5.799z
			 M205.09,6.213c-1.422,0-2.574,1.205-2.574,2.771s1.152,2.773,2.574,2.773c1.405,0,2.575-1.207,2.575-2.773
			S206.513,6.213,205.09,6.213z"/>
		<path fill="#947F28" d="M211.695,13.127V4.789h1.801v1.369c0.756-1.152,1.674-1.674,3.007-1.674c1.296,0,2.143,0.539,2.593,1.656
			c0.864-1.135,1.801-1.656,3.097-1.656c1.116,0,1.944,0.432,2.395,1.188c0.271,0.451,0.306,1.027,0.306,1.729
			c0,0.199,0,0.432,0,0.666v5.061h-1.908V8.842c0-1.838-0.18-2.738-1.62-2.738c-1.657,0-2.089,1.082-2.089,3.225v3.799h-1.926V8.842
			c0-1.891-0.343-2.738-1.657-2.738c-0.757,0-1.404,0.361-1.765,0.955c-0.324,0.541-0.324,1.242-0.324,2.27v3.799H211.695z"/>
	</g>
</g>
</svg>
